<?xml version="1.0" encoding="UTF-8"?>
<svg xmlns="http://www.w3.org/2000/svg" xmlns:xlink="http://www.w3.org/1999/xlink"
     width="1000.0" height="1000.0" viewBox="0 0 1000.0 1000.0">
<defs>
</defs>
<rect x="0" y="0" width="1000.0" height="1000.0" fill="none" stroke="black" stroke-opacity="0.5" />
<rect x="529.0" y="621.0" width="148.0" height="169.0" fill="none" stroke="red" />
<circle cx="663.0" cy="171.0" r="1" fill="blue" />
<text x="663.0" y="171.0" font-size="12" text-anchor="middle" dominant-baseline="middle">0</text>
<circle cx="410.0" cy="475.0" r="1" fill="blue" />
<text x="410.0" y="475.0" font-size="12" text-anchor="middle" dominant-baseline="middle">1</text>
<circle cx="66.0" cy="302.0" r="1" fill="blue" />
<text x="66.0" y="302.0" font-size="12" text-anchor="middle" dominant-baseline="middle">2</text>
<circle cx="993.0" cy="163.0" r="1" fill="blue" />
<text x="993.0" y="163.0" font-size="12" text-anchor="middle" dominant-baseline="middle">3</text>
<circle cx="255.0" cy="807.0" r="1" fill="blue" />
<text x="255.0" y="807.0" font-size="12" text-anchor="middle" dominant-baseline="middle">4</text>
<circle cx="235.0" cy="475.0" r="1" fill="blue" />
<text x="235.0" y="475.0" font-size="12" text-anchor="middle" dominant-baseline="middle">5</text>
<circle cx="700.0" cy="739.0" r="1" fill="blue" />
<text x="700.0" y="739.0" font-size="12" text-anchor="middle" dominant-baseline="middle">6</text>
<circle cx="955.0" cy="400.0" r="1" fill="blue" />
<text x="955.0" y="400.0" font-size="12" text-anchor="middle" dominant-baseline="middle">7</text>
<circle cx="396.0" cy="155.0" r="1" fill="blue" />
<text x="396.0" y="155.0" font-size="12" text-anchor="middle" dominant-baseline="middle">8</text>
<circle cx="806.0" cy="40.0" r="1" fill="blue" />
<text x="806.0" y="40.0" font-size="12" text-anchor="middle" dominant-baseline="middle">9</text>
<circle cx="337.0" cy="468.0" r="1" fill="blue" />
<text x="337.0" y="468.0" font-size="12" text-anchor="middle" dominant-baseline="middle">10</text>
<circle cx="8.0" cy="235.0" r="1" fill="blue" />
<text x="8.0" y="235.0" font-size="12" text-anchor="middle" dominant-baseline="middle">11</text>
<circle cx="924.0" cy="174.0" r="1" fill="blue" />
<text x="924.0" y="174.0" font-size="12" text-anchor="middle" dominant-baseline="middle">12</text>
<circle cx="979.0" cy="344.0" r="1" fill="blue" />
<text x="979.0" y="344.0" font-size="12" text-anchor="middle" dominant-baseline="middle">13</text>
<circle cx="789.0" cy="535.0" r="1" fill="blue" />
<text x="789.0" y="535.0" font-size="12" text-anchor="middle" dominant-baseline="middle">14</text>
<circle cx="705.0" cy="632.0" r="1" fill="blue" />
<text x="705.0" y="632.0" font-size="12" text-anchor="middle" dominant-baseline="middle">15</text>
<circle cx="934.0" cy="0.0" r="1" fill="blue" />
<text x="934.0" y="0.0" font-size="12" text-anchor="middle" dominant-baseline="middle">16</text>
<circle cx="323.0" cy="592.0" r="1" fill="blue" />
<text x="323.0" y="592.0" font-size="12" text-anchor="middle" dominant-baseline="middle">17</text>
<circle cx="979.0" cy="820.0" r="1" fill="blue" />
<text x="979.0" y="820.0" font-size="12" text-anchor="middle" dominant-baseline="middle">18</text>
<circle cx="225.0" cy="870.0" r="1" fill="blue" />
<text x="225.0" y="870.0" font-size="12" text-anchor="middle" dominant-baseline="middle">19</text>
<circle cx="72.0" cy="223.0" r="1" fill="blue" />
<text x="72.0" y="223.0" font-size="12" text-anchor="middle" dominant-baseline="middle">20</text>
<circle cx="59.0" cy="461.0" r="1" fill="blue" />
<text x="59.0" y="461.0" font-size="12" text-anchor="middle" dominant-baseline="middle">21</text>
<circle cx="446.0" cy="859.0" r="1" fill="blue" />
<text x="446.0" y="859.0" font-size="12" text-anchor="middle" dominant-baseline="middle">22</text>
<circle cx="23.0" cy="154.0" r="1" fill="blue" />
<text x="23.0" y="154.0" font-size="12" text-anchor="middle" dominant-baseline="middle">23</text>
<circle cx="540.0" cy="799.0" r="1" fill="blue" />
<text x="540.0" y="799.0" font-size="12" text-anchor="middle" dominant-baseline="middle">24</text>
<circle cx="829.0" cy="589.0" r="1" fill="blue" />
<text x="829.0" y="589.0" font-size="12" text-anchor="middle" dominant-baseline="middle">25</text>
<circle cx="157.0" cy="725.0" r="1" fill="blue" />
<text x="157.0" y="725.0" font-size="12" text-anchor="middle" dominant-baseline="middle">26</text>
<circle cx="401.0" cy="74.0" r="1" fill="blue" />
<text x="401.0" y="74.0" font-size="12" text-anchor="middle" dominant-baseline="middle">27</text>
<circle cx="930.0" cy="548.0" r="1" fill="blue" />
<text x="930.0" y="548.0" font-size="12" text-anchor="middle" dominant-baseline="middle">28</text>
<circle cx="93.0" cy="402.0" r="1" fill="blue" />
<text x="93.0" y="402.0" font-size="12" text-anchor="middle" dominant-baseline="middle">29</text>
<circle cx="868.0" cy="436.0" r="1" fill="blue" />
<text x="868.0" y="436.0" font-size="12" text-anchor="middle" dominant-baseline="middle">30</text>
<circle cx="764.0" cy="638.0" r="1" fill="blue" />
<text x="764.0" y="638.0" font-size="12" text-anchor="middle" dominant-baseline="middle">31</text>
<circle cx="812.0" cy="957.0" r="1" fill="blue" />
<text x="812.0" y="957.0" font-size="12" text-anchor="middle" dominant-baseline="middle">32</text>
<circle cx="456.0" cy="738.0" r="1" fill="blue" />
<text x="456.0" y="738.0" font-size="12" text-anchor="middle" dominant-baseline="middle">33</text>
<circle cx="110.0" cy="99.0" r="1" fill="blue" />
<text x="110.0" y="99.0" font-size="12" text-anchor="middle" dominant-baseline="middle">34</text>
<circle cx="720.0" cy="255.0" r="1" fill="blue" />
<text x="720.0" y="255.0" font-size="12" text-anchor="middle" dominant-baseline="middle">35</text>
<circle cx="402.0" cy="743.0" r="1" fill="blue" />
<text x="402.0" y="743.0" font-size="12" text-anchor="middle" dominant-baseline="middle">36</text>
<circle cx="735.0" cy="871.0" r="1" fill="blue" />
<text x="735.0" y="871.0" font-size="12" text-anchor="middle" dominant-baseline="middle">37</text>
<circle cx="421.0" cy="301.0" r="1" fill="blue" />
<text x="421.0" y="301.0" font-size="12" text-anchor="middle" dominant-baseline="middle">38</text>
<circle cx="226.0" cy="733.0" r="1" fill="blue" />
<text x="226.0" y="733.0" font-size="12" text-anchor="middle" dominant-baseline="middle">39</text>
<circle cx="843.0" cy="497.0" r="1" fill="blue" />
<text x="843.0" y="497.0" font-size="12" text-anchor="middle" dominant-baseline="middle">40</text>
<circle cx="15.0" cy="588.0" r="1" fill="blue" />
<text x="15.0" y="588.0" font-size="12" text-anchor="middle" dominant-baseline="middle">41</text>
<circle cx="632.0" cy="811.0" r="1" fill="blue" />
<text x="632.0" y="811.0" font-size="12" text-anchor="middle" dominant-baseline="middle">42</text>
<circle cx="823.0" cy="187.0" r="1" fill="blue" />
<text x="823.0" y="187.0" font-size="12" text-anchor="middle" dominant-baseline="middle">43</text>
<circle cx="366.0" cy="728.0" r="1" fill="blue" />
<text x="366.0" y="728.0" font-size="12" text-anchor="middle" dominant-baseline="middle">44</text>
<circle cx="706.0" cy="15.0" r="1" fill="blue" />
<text x="706.0" y="15.0" font-size="12" text-anchor="middle" dominant-baseline="middle">45</text>
<circle cx="440.0" cy="107.0" r="1" fill="blue" />
<text x="440.0" y="107.0" font-size="12" text-anchor="middle" dominant-baseline="middle">46</text>
<circle cx="470.0" cy="685.0" r="1" fill="blue" />
<text x="470.0" y="685.0" font-size="12" text-anchor="middle" dominant-baseline="middle">47</text>
<circle cx="593.0" cy="851.0" r="1" fill="blue" />
<text x="593.0" y="851.0" font-size="12" text-anchor="middle" dominant-baseline="middle">48</text>
<circle cx="836.0" cy="145.0" r="1" fill="blue" />
<text x="836.0" y="145.0" font-size="12" text-anchor="middle" dominant-baseline="middle">49</text>
<circle cx="422.0" cy="557.0" r="1" fill="blue" />
<text x="422.0" y="557.0" font-size="12" text-anchor="middle" dominant-baseline="middle">50</text>
<circle cx="992.0" cy="789.0" r="1" fill="blue" />
<text x="992.0" y="789.0" font-size="12" text-anchor="middle" dominant-baseline="middle">51</text>
<circle cx="464.0" cy="118.0" r="1" fill="blue" />
<text x="464.0" y="118.0" font-size="12" text-anchor="middle" dominant-baseline="middle">52</text>
<circle cx="369.0" cy="441.0" r="1" fill="blue" />
<text x="369.0" y="441.0" font-size="12" text-anchor="middle" dominant-baseline="middle">53</text>
<circle cx="726.0" cy="482.0" r="1" fill="blue" />
<text x="726.0" y="482.0" font-size="12" text-anchor="middle" dominant-baseline="middle">54</text>
<circle cx="161.0" cy="390.0" r="1" fill="blue" />
<text x="161.0" y="390.0" font-size="12" text-anchor="middle" dominant-baseline="middle">55</text>
<circle cx="840.0" cy="658.0" r="1" fill="blue" />
<text x="840.0" y="658.0" font-size="12" text-anchor="middle" dominant-baseline="middle">56</text>
<circle cx="792.0" cy="124.0" r="1" fill="blue" />
<text x="792.0" y="124.0" font-size="12" text-anchor="middle" dominant-baseline="middle">57</text>
<circle cx="107.0" cy="953.0" r="1" fill="blue" />
<text x="107.0" y="953.0" font-size="12" text-anchor="middle" dominant-baseline="middle">58</text>
<circle cx="31.0" cy="612.0" r="1" fill="blue" />
<text x="31.0" y="612.0" font-size="12" text-anchor="middle" dominant-baseline="middle">59</text>
<circle cx="986.0" cy="390.0" r="1" fill="blue" />
<text x="986.0" y="390.0" font-size="12" text-anchor="middle" dominant-baseline="middle">60</text>
<circle cx="548.0" cy="380.0" r="1" fill="blue" />
<text x="548.0" y="380.0" font-size="12" text-anchor="middle" dominant-baseline="middle">61</text>
<circle cx="366.0" cy="114.0" r="1" fill="blue" />
<text x="366.0" y="114.0" font-size="12" text-anchor="middle" dominant-baseline="middle">62</text>
<circle cx="783.0" cy="417.0" r="1" fill="blue" />
<text x="783.0" y="417.0" font-size="12" text-anchor="middle" dominant-baseline="middle">63</text>
<circle cx="216.0" cy="718.0" r="1" fill="blue" />
<text x="216.0" y="718.0" font-size="12" text-anchor="middle" dominant-baseline="middle">64</text>
<circle cx="907.0" cy="629.0" r="1" fill="blue" />
<text x="907.0" y="629.0" font-size="12" text-anchor="middle" dominant-baseline="middle">65</text>
<circle cx="70.0" cy="112.0" r="1" fill="blue" />
<text x="70.0" y="112.0" font-size="12" text-anchor="middle" dominant-baseline="middle">66</text>
<circle cx="240.0" cy="111.0" r="1" fill="blue" />
<text x="240.0" y="111.0" font-size="12" text-anchor="middle" dominant-baseline="middle">67</text>
<circle cx="57.0" cy="659.0" r="1" fill="blue" />
<text x="57.0" y="659.0" font-size="12" text-anchor="middle" dominant-baseline="middle">68</text>
<circle cx="937.0" cy="503.0" r="1" fill="blue" />
<text x="937.0" y="503.0" font-size="12" text-anchor="middle" dominant-baseline="middle">69</text>
<circle cx="964.0" cy="981.0" r="1" fill="blue" />
<text x="964.0" y="981.0" font-size="12" text-anchor="middle" dominant-baseline="middle">70</text>
<circle cx="538.0" cy="426.0" r="1" fill="blue" />
<text x="538.0" y="426.0" font-size="12" text-anchor="middle" dominant-baseline="middle">71</text>
<circle cx="670.0" cy="117.0" r="1" fill="blue" />
<text x="670.0" y="117.0" font-size="12" text-anchor="middle" dominant-baseline="middle">72</text>
<circle cx="412.0" cy="910.0" r="1" fill="blue" />
<text x="412.0" y="910.0" font-size="12" text-anchor="middle" dominant-baseline="middle">73</text>
<circle cx="648.0" cy="167.0" r="1" fill="blue" />
<text x="648.0" y="167.0" font-size="12" text-anchor="middle" dominant-baseline="middle">74</text>
<circle cx="693.0" cy="663.0" r="1" fill="blue" />
<text x="693.0" y="663.0" font-size="12" text-anchor="middle" dominant-baseline="middle">75</text>
<circle cx="936.0" cy="384.0" r="1" fill="blue" />
<text x="936.0" y="384.0" font-size="12" text-anchor="middle" dominant-baseline="middle">76</text>
<circle cx="922.0" cy="425.0" r="1" fill="blue" />
<text x="922.0" y="425.0" font-size="12" text-anchor="middle" dominant-baseline="middle">77</text>
<circle cx="706.0" cy="650.0" r="1" fill="blue" />
<text x="706.0" y="650.0" font-size="12" text-anchor="middle" dominant-baseline="middle">78</text>
<circle cx="47.0" cy="452.0" r="1" fill="blue" />
<text x="47.0" y="452.0" font-size="12" text-anchor="middle" dominant-baseline="middle">79</text>
<circle cx="249.0" cy="5.0" r="1" fill="blue" />
<text x="249.0" y="5.0" font-size="12" text-anchor="middle" dominant-baseline="middle">80</text>
<circle cx="13.0" cy="437.0" r="1" fill="blue" />
<text x="13.0" y="437.0" font-size="12" text-anchor="middle" dominant-baseline="middle">81</text>
<circle cx="997.0" cy="446.0" r="1" fill="blue" />
<text x="997.0" y="446.0" font-size="12" text-anchor="middle" dominant-baseline="middle">82</text>
<circle cx="353.0" cy="610.0" r="1" fill="blue" />
<text x="353.0" y="610.0" font-size="12" text-anchor="middle" dominant-baseline="middle">83</text>
<circle cx="367.0" cy="667.0" r="1" fill="blue" />
<text x="367.0" y="667.0" font-size="12" text-anchor="middle" dominant-baseline="middle">84</text>
<circle cx="24.0" cy="855.0" r="1" fill="blue" />
<text x="24.0" y="855.0" font-size="12" text-anchor="middle" dominant-baseline="middle">85</text>
<circle cx="774.0" cy="574.0" r="1" fill="blue" />
<text x="774.0" y="574.0" font-size="12" text-anchor="middle" dominant-baseline="middle">86</text>
<circle cx="544.0" cy="35.0" r="1" fill="blue" />
<text x="544.0" y="35.0" font-size="12" text-anchor="middle" dominant-baseline="middle">87</text>
<circle cx="365.0" cy="990.0" r="1" fill="blue" />
<text x="365.0" y="990.0" font-size="12" text-anchor="middle" dominant-baseline="middle">88</text>
<circle cx="255.0" cy="91.0" r="1" fill="blue" />
<text x="255.0" y="91.0" font-size="12" text-anchor="middle" dominant-baseline="middle">89</text>
<circle cx="5.0" cy="782.0" r="1" fill="blue" />
<text x="5.0" y="782.0" font-size="12" text-anchor="middle" dominant-baseline="middle">90</text>
<circle cx="200.0" cy="997.0" r="1" fill="blue" />
<text x="200.0" y="997.0" font-size="12" text-anchor="middle" dominant-baseline="middle">91</text>
<circle cx="311.0" cy="804.0" r="1" fill="blue" />
<text x="311.0" y="804.0" font-size="12" text-anchor="middle" dominant-baseline="middle">92</text>
<circle cx="503.0" cy="312.0" r="1" fill="blue" />
<text x="503.0" y="312.0" font-size="12" text-anchor="middle" dominant-baseline="middle">93</text>
<circle cx="745.0" cy="207.0" r="1" fill="blue" />
<text x="745.0" y="207.0" font-size="12" text-anchor="middle" dominant-baseline="middle">94</text>
<circle cx="482.0" cy="736.0" r="1" fill="blue" />
<text x="482.0" y="736.0" font-size="12" text-anchor="middle" dominant-baseline="middle">95</text>
<circle cx="605.0" cy="491.0" r="1" fill="blue" />
<text x="605.0" y="491.0" font-size="12" text-anchor="middle" dominant-baseline="middle">96</text>
<circle cx="687.0" cy="597.0" r="1" fill="blue" />
<text x="687.0" y="597.0" font-size="12" text-anchor="middle" dominant-baseline="middle">97</text>
<circle cx="457.0" cy="856.0" r="1" fill="blue" />
<text x="457.0" y="856.0" font-size="12" text-anchor="middle" dominant-baseline="middle">98</text>
<circle cx="860.0" cy="126.0" r="1" fill="blue" />
<text x="860.0" y="126.0" font-size="12" text-anchor="middle" dominant-baseline="middle">99</text>
<circle cx="604.8520212216969" cy="770.2854421933928" r="10" fill="none" stroke="green" />
<circle cx="604.8520212216969" cy="770.2854421933928" r="5" fill="red" />
<text x="604.8520212216969" y="770.2854421933928" font-size="12" text-anchor="middle" dominant-baseline="middle">0-0</text>
<circle cx="561.6379664749178" cy="776.3144001511224" r="10" fill="none" stroke="green" />
<circle cx="561.6379664749178" cy="776.3144001511224" r="5" fill="red" />
<text x="561.6379664749178" y="776.3144001511224" font-size="12" text-anchor="middle" dominant-baseline="middle">1-1</text>
<circle cx="576.0396218818637" cy="665.5489667914914" r="10" fill="none" stroke="green" />
<circle cx="576.0396218818637" cy="665.5489667914914" r="5" fill="red" />
<text x="576.0396218818637" y="665.5489667914914" font-size="12" text-anchor="middle" dominant-baseline="middle">2-0</text>
<circle cx="545.6653640095135" cy="779.7035220285663" r="10" fill="none" stroke="green" />
<circle cx="545.6653640095135" cy="779.7035220285663" r="5" fill="red" />
<text x="545.6653640095135" y="779.7035220285663" font-size="12" text-anchor="middle" dominant-baseline="middle">3-0</text>
<circle cx="621.6874411605459" cy="778.4454629139445" r="10" fill="none" stroke="green" />
<circle cx="621.6874411605459" cy="778.4454629139445" r="5" fill="red" />
<text x="621.6874411605459" y="778.4454629139445" font-size="12" text-anchor="middle" dominant-baseline="middle">4-1</text>
</svg>