<?xml version="1.0" encoding="UTF-8"?>
<svg xmlns="http://www.w3.org/2000/svg" xmlns:xlink="http://www.w3.org/1999/xlink"
     width="1000.0" height="1000.0" viewBox="0 0 1000.0 1000.0">
<defs>
</defs>
<rect x="0" y="0" width="1000.0" height="1000.0" fill="none" stroke="black" stroke-opacity="0.5" />
<rect x="875.0" y="107.0" width="105.0" height="175.0" fill="none" stroke="red" />
<circle cx="21.0" cy="19.0" r="1" fill="blue" />
<text x="21.0" y="19.0" font-size="12" text-anchor="middle" dominant-baseline="middle">0</text>
<circle cx="341.0" cy="456.0" r="1" fill="blue" />
<text x="341.0" y="456.0" font-size="12" text-anchor="middle" dominant-baseline="middle">1</text>
<circle cx="493.0" cy="111.0" r="1" fill="blue" />
<text x="493.0" y="111.0" font-size="12" text-anchor="middle" dominant-baseline="middle">2</text>
<circle cx="951.0" cy="446.0" r="1" fill="blue" />
<text x="951.0" y="446.0" font-size="12" text-anchor="middle" dominant-baseline="middle">3</text>
<circle cx="827.0" cy="716.0" r="1" fill="blue" />
<text x="827.0" y="716.0" font-size="12" text-anchor="middle" dominant-baseline="middle">4</text>
<circle cx="554.0" cy="187.0" r="1" fill="blue" />
<text x="554.0" y="187.0" font-size="12" text-anchor="middle" dominant-baseline="middle">5</text>
<circle cx="428.0" cy="311.0" r="1" fill="blue" />
<text x="428.0" y="311.0" font-size="12" text-anchor="middle" dominant-baseline="middle">6</text>
<circle cx="213.0" cy="83.0" r="1" fill="blue" />
<text x="213.0" y="83.0" font-size="12" text-anchor="middle" dominant-baseline="middle">7</text>
<circle cx="756.0" cy="188.0" r="1" fill="blue" />
<text x="756.0" y="188.0" font-size="12" text-anchor="middle" dominant-baseline="middle">8</text>
<circle cx="479.0" cy="420.0" r="1" fill="blue" />
<text x="479.0" y="420.0" font-size="12" text-anchor="middle" dominant-baseline="middle">9</text>
<circle cx="263.0" cy="617.0" r="1" fill="blue" />
<text x="263.0" y="617.0" font-size="12" text-anchor="middle" dominant-baseline="middle">10</text>
<circle cx="730.0" cy="180.0" r="1" fill="blue" />
<text x="730.0" y="180.0" font-size="12" text-anchor="middle" dominant-baseline="middle">11</text>
<circle cx="415.0" cy="791.0" r="1" fill="blue" />
<text x="415.0" y="791.0" font-size="12" text-anchor="middle" dominant-baseline="middle">12</text>
<circle cx="161.0" cy="610.0" r="1" fill="blue" />
<text x="161.0" y="610.0" font-size="12" text-anchor="middle" dominant-baseline="middle">13</text>
<circle cx="51.0" cy="717.0" r="1" fill="blue" />
<text x="51.0" y="717.0" font-size="12" text-anchor="middle" dominant-baseline="middle">14</text>
<circle cx="499.0" cy="419.0" r="1" fill="blue" />
<text x="499.0" y="419.0" font-size="12" text-anchor="middle" dominant-baseline="middle">15</text>
<circle cx="78.0" cy="425.0" r="1" fill="blue" />
<text x="78.0" y="425.0" font-size="12" text-anchor="middle" dominant-baseline="middle">16</text>
<circle cx="395.0" cy="0.0" r="1" fill="blue" />
<text x="395.0" y="0.0" font-size="12" text-anchor="middle" dominant-baseline="middle">17</text>
<circle cx="522.0" cy="116.0" r="1" fill="blue" />
<text x="522.0" y="116.0" font-size="12" text-anchor="middle" dominant-baseline="middle">18</text>
<circle cx="184.0" cy="371.0" r="1" fill="blue" />
<text x="184.0" y="371.0" font-size="12" text-anchor="middle" dominant-baseline="middle">19</text>
<circle cx="798.0" cy="539.0" r="1" fill="blue" />
<text x="798.0" y="539.0" font-size="12" text-anchor="middle" dominant-baseline="middle">20</text>
<circle cx="178.0" cy="471.0" r="1" fill="blue" />
<text x="178.0" y="471.0" font-size="12" text-anchor="middle" dominant-baseline="middle">21</text>
<circle cx="176.0" cy="210.0" r="1" fill="blue" />
<text x="176.0" y="210.0" font-size="12" text-anchor="middle" dominant-baseline="middle">22</text>
<circle cx="542.0" cy="424.0" r="1" fill="blue" />
<text x="542.0" y="424.0" font-size="12" text-anchor="middle" dominant-baseline="middle">23</text>
<circle cx="207.0" cy="433.0" r="1" fill="blue" />
<text x="207.0" y="433.0" font-size="12" text-anchor="middle" dominant-baseline="middle">24</text>
<circle cx="338.0" cy="64.0" r="1" fill="blue" />
<text x="338.0" y="64.0" font-size="12" text-anchor="middle" dominant-baseline="middle">25</text>
<circle cx="911.0" cy="627.0" r="1" fill="blue" />
<text x="911.0" y="627.0" font-size="12" text-anchor="middle" dominant-baseline="middle">26</text>
<circle cx="985.0" cy="423.0" r="1" fill="blue" />
<text x="985.0" y="423.0" font-size="12" text-anchor="middle" dominant-baseline="middle">27</text>
<circle cx="256.0" cy="393.0" r="1" fill="blue" />
<text x="256.0" y="393.0" font-size="12" text-anchor="middle" dominant-baseline="middle">28</text>
<circle cx="888.0" cy="562.0" r="1" fill="blue" />
<text x="888.0" y="562.0" font-size="12" text-anchor="middle" dominant-baseline="middle">29</text>
<circle cx="625.0" cy="94.0" r="1" fill="blue" />
<text x="625.0" y="94.0" font-size="12" text-anchor="middle" dominant-baseline="middle">30</text>
<circle cx="436.0" cy="351.0" r="1" fill="blue" />
<text x="436.0" y="351.0" font-size="12" text-anchor="middle" dominant-baseline="middle">31</text>
<circle cx="730.0" cy="330.0" r="1" fill="blue" />
<text x="730.0" y="330.0" font-size="12" text-anchor="middle" dominant-baseline="middle">32</text>
<circle cx="634.0" cy="277.0" r="1" fill="blue" />
<text x="634.0" y="277.0" font-size="12" text-anchor="middle" dominant-baseline="middle">33</text>
<circle cx="158.0" cy="617.0" r="1" fill="blue" />
<text x="158.0" y="617.0" font-size="12" text-anchor="middle" dominant-baseline="middle">34</text>
<circle cx="890.0" cy="55.0" r="1" fill="blue" />
<text x="890.0" y="55.0" font-size="12" text-anchor="middle" dominant-baseline="middle">35</text>
<circle cx="607.0" cy="711.0" r="1" fill="blue" />
<text x="607.0" y="711.0" font-size="12" text-anchor="middle" dominant-baseline="middle">36</text>
<circle cx="159.0" cy="215.0" r="1" fill="blue" />
<text x="159.0" y="215.0" font-size="12" text-anchor="middle" dominant-baseline="middle">37</text>
<circle cx="715.0" cy="910.0" r="1" fill="blue" />
<text x="715.0" y="910.0" font-size="12" text-anchor="middle" dominant-baseline="middle">38</text>
<circle cx="589.0" cy="651.0" r="1" fill="blue" />
<text x="589.0" y="651.0" font-size="12" text-anchor="middle" dominant-baseline="middle">39</text>
<circle cx="954.0" cy="679.0" r="1" fill="blue" />
<text x="954.0" y="679.0" font-size="12" text-anchor="middle" dominant-baseline="middle">40</text>
<circle cx="853.0" cy="131.0" r="1" fill="blue" />
<text x="853.0" y="131.0" font-size="12" text-anchor="middle" dominant-baseline="middle">41</text>
<circle cx="191.0" cy="911.0" r="1" fill="blue" />
<text x="191.0" y="911.0" font-size="12" text-anchor="middle" dominant-baseline="middle">42</text>
<circle cx="611.0" cy="99.0" r="1" fill="blue" />
<text x="611.0" y="99.0" font-size="12" text-anchor="middle" dominant-baseline="middle">43</text>
<circle cx="6.0" cy="99.0" r="1" fill="blue" />
<text x="6.0" y="99.0" font-size="12" text-anchor="middle" dominant-baseline="middle">44</text>
<circle cx="723.0" cy="69.0" r="1" fill="blue" />
<text x="723.0" y="69.0" font-size="12" text-anchor="middle" dominant-baseline="middle">45</text>
<circle cx="259.0" cy="160.0" r="1" fill="blue" />
<text x="259.0" y="160.0" font-size="12" text-anchor="middle" dominant-baseline="middle">46</text>
<circle cx="93.0" cy="221.0" r="1" fill="blue" />
<text x="93.0" y="221.0" font-size="12" text-anchor="middle" dominant-baseline="middle">47</text>
<circle cx="466.0" cy="318.0" r="1" fill="blue" />
<text x="466.0" y="318.0" font-size="12" text-anchor="middle" dominant-baseline="middle">48</text>
<circle cx="186.0" cy="149.0" r="1" fill="blue" />
<text x="186.0" y="149.0" font-size="12" text-anchor="middle" dominant-baseline="middle">49</text>
<circle cx="627.0" cy="597.0" r="1" fill="blue" />
<text x="627.0" y="597.0" font-size="12" text-anchor="middle" dominant-baseline="middle">50</text>
<circle cx="473.0" cy="828.0" r="1" fill="blue" />
<text x="473.0" y="828.0" font-size="12" text-anchor="middle" dominant-baseline="middle">51</text>
<circle cx="4.0" cy="4.0" r="1" fill="blue" />
<text x="4.0" y="4.0" font-size="12" text-anchor="middle" dominant-baseline="middle">52</text>
<circle cx="875.0" cy="580.0" r="1" fill="blue" />
<text x="875.0" y="580.0" font-size="12" text-anchor="middle" dominant-baseline="middle">53</text>
<circle cx="822.0" cy="351.0" r="1" fill="blue" />
<text x="822.0" y="351.0" font-size="12" text-anchor="middle" dominant-baseline="middle">54</text>
<circle cx="336.0" cy="533.0" r="1" fill="blue" />
<text x="336.0" y="533.0" font-size="12" text-anchor="middle" dominant-baseline="middle">55</text>
<circle cx="419.0" cy="524.0" r="1" fill="blue" />
<text x="419.0" y="524.0" font-size="12" text-anchor="middle" dominant-baseline="middle">56</text>
<circle cx="404.0" cy="400.0" r="1" fill="blue" />
<text x="404.0" y="400.0" font-size="12" text-anchor="middle" dominant-baseline="middle">57</text>
<circle cx="694.0" cy="152.0" r="1" fill="blue" />
<text x="694.0" y="152.0" font-size="12" text-anchor="middle" dominant-baseline="middle">58</text>
<circle cx="53.0" cy="276.0" r="1" fill="blue" />
<text x="53.0" y="276.0" font-size="12" text-anchor="middle" dominant-baseline="middle">59</text>
<circle cx="338.0" cy="210.0" r="1" fill="blue" />
<text x="338.0" y="210.0" font-size="12" text-anchor="middle" dominant-baseline="middle">60</text>
<circle cx="792.0" cy="81.0" r="1" fill="blue" />
<text x="792.0" y="81.0" font-size="12" text-anchor="middle" dominant-baseline="middle">61</text>
<circle cx="866.0" cy="318.0" r="1" fill="blue" />
<text x="866.0" y="318.0" font-size="12" text-anchor="middle" dominant-baseline="middle">62</text>
<circle cx="849.0" cy="327.0" r="1" fill="blue" />
<text x="849.0" y="327.0" font-size="12" text-anchor="middle" dominant-baseline="middle">63</text>
<circle cx="122.0" cy="485.0" r="1" fill="blue" />
<text x="122.0" y="485.0" font-size="12" text-anchor="middle" dominant-baseline="middle">64</text>
<circle cx="246.0" cy="756.0" r="1" fill="blue" />
<text x="246.0" y="756.0" font-size="12" text-anchor="middle" dominant-baseline="middle">65</text>
<circle cx="321.0" cy="479.0" r="1" fill="blue" />
<text x="321.0" y="479.0" font-size="12" text-anchor="middle" dominant-baseline="middle">66</text>
<circle cx="848.0" cy="752.0" r="1" fill="blue" />
<text x="848.0" y="752.0" font-size="12" text-anchor="middle" dominant-baseline="middle">67</text>
<circle cx="738.0" cy="752.0" r="1" fill="blue" />
<text x="738.0" y="752.0" font-size="12" text-anchor="middle" dominant-baseline="middle">68</text>
<circle cx="767.0" cy="767.0" r="1" fill="blue" />
<text x="767.0" y="767.0" font-size="12" text-anchor="middle" dominant-baseline="middle">69</text>
<circle cx="843.0" cy="66.0" r="1" fill="blue" />
<text x="843.0" y="66.0" font-size="12" text-anchor="middle" dominant-baseline="middle">70</text>
<circle cx="737.0" cy="809.0" r="1" fill="blue" />
<text x="737.0" y="809.0" font-size="12" text-anchor="middle" dominant-baseline="middle">71</text>
<circle cx="807.0" cy="844.0" r="1" fill="blue" />
<text x="807.0" y="844.0" font-size="12" text-anchor="middle" dominant-baseline="middle">72</text>
<circle cx="31.0" cy="984.0" r="1" fill="blue" />
<text x="31.0" y="984.0" font-size="12" text-anchor="middle" dominant-baseline="middle">73</text>
<circle cx="688.0" cy="197.0" r="1" fill="blue" />
<text x="688.0" y="197.0" font-size="12" text-anchor="middle" dominant-baseline="middle">74</text>
<circle cx="21.0" cy="807.0" r="1" fill="blue" />
<text x="21.0" y="807.0" font-size="12" text-anchor="middle" dominant-baseline="middle">75</text>
<circle cx="67.0" cy="645.0" r="1" fill="blue" />
<text x="67.0" y="645.0" font-size="12" text-anchor="middle" dominant-baseline="middle">76</text>
<circle cx="286.0" cy="747.0" r="1" fill="blue" />
<text x="286.0" y="747.0" font-size="12" text-anchor="middle" dominant-baseline="middle">77</text>
<circle cx="708.0" cy="743.0" r="1" fill="blue" />
<text x="708.0" y="743.0" font-size="12" text-anchor="middle" dominant-baseline="middle">78</text>
<circle cx="562.0" cy="694.0" r="1" fill="blue" />
<text x="562.0" y="694.0" font-size="12" text-anchor="middle" dominant-baseline="middle">79</text>
<circle cx="305.0" cy="763.0" r="1" fill="blue" />
<text x="305.0" y="763.0" font-size="12" text-anchor="middle" dominant-baseline="middle">80</text>
<circle cx="122.0" cy="425.0" r="1" fill="blue" />
<text x="122.0" y="425.0" font-size="12" text-anchor="middle" dominant-baseline="middle">81</text>
<circle cx="92.0" cy="796.0" r="1" fill="blue" />
<text x="92.0" y="796.0" font-size="12" text-anchor="middle" dominant-baseline="middle">82</text>
<circle cx="267.0" cy="912.0" r="1" fill="blue" />
<text x="267.0" y="912.0" font-size="12" text-anchor="middle" dominant-baseline="middle">83</text>
<circle cx="748.0" cy="864.0" r="1" fill="blue" />
<text x="748.0" y="864.0" font-size="12" text-anchor="middle" dominant-baseline="middle">84</text>
<circle cx="596.0" cy="524.0" r="1" fill="blue" />
<text x="596.0" y="524.0" font-size="12" text-anchor="middle" dominant-baseline="middle">85</text>
<circle cx="844.0" cy="837.0" r="1" fill="blue" />
<text x="844.0" y="837.0" font-size="12" text-anchor="middle" dominant-baseline="middle">86</text>
<circle cx="143.0" cy="894.0" r="1" fill="blue" />
<text x="143.0" y="894.0" font-size="12" text-anchor="middle" dominant-baseline="middle">87</text>
<circle cx="74.0" cy="59.0" r="1" fill="blue" />
<text x="74.0" y="59.0" font-size="12" text-anchor="middle" dominant-baseline="middle">88</text>
<circle cx="338.0" cy="221.0" r="1" fill="blue" />
<text x="338.0" y="221.0" font-size="12" text-anchor="middle" dominant-baseline="middle">89</text>
<circle cx="59.0" cy="89.0" r="1" fill="blue" />
<text x="59.0" y="89.0" font-size="12" text-anchor="middle" dominant-baseline="middle">90</text>
<circle cx="756.0" cy="132.0" r="1" fill="blue" />
<text x="756.0" y="132.0" font-size="12" text-anchor="middle" dominant-baseline="middle">91</text>
<circle cx="561.0" cy="483.0" r="1" fill="blue" />
<text x="561.0" y="483.0" font-size="12" text-anchor="middle" dominant-baseline="middle">92</text>
<circle cx="441.0" cy="225.0" r="1" fill="blue" />
<text x="441.0" y="225.0" font-size="12" text-anchor="middle" dominant-baseline="middle">93</text>
<circle cx="127.0" cy="233.0" r="1" fill="blue" />
<text x="127.0" y="233.0" font-size="12" text-anchor="middle" dominant-baseline="middle">94</text>
<circle cx="602.0" cy="938.0" r="1" fill="blue" />
<text x="602.0" y="938.0" font-size="12" text-anchor="middle" dominant-baseline="middle">95</text>
<circle cx="192.0" cy="672.0" r="1" fill="blue" />
<text x="192.0" y="672.0" font-size="12" text-anchor="middle" dominant-baseline="middle">96</text>
<circle cx="46.0" cy="471.0" r="1" fill="blue" />
<text x="46.0" y="471.0" font-size="12" text-anchor="middle" dominant-baseline="middle">97</text>
<circle cx="965.0" cy="863.0" r="1" fill="blue" />
<text x="965.0" y="863.0" font-size="12" text-anchor="middle" dominant-baseline="middle">98</text>
<circle cx="659.0" cy="177.0" r="1" fill="blue" />
<text x="659.0" y="177.0" font-size="12" text-anchor="middle" dominant-baseline="middle">99</text>
<circle cx="899.2782819585807" cy="264.47270966462787" r="10" fill="none" stroke="green" />
<circle cx="899.2782819585807" cy="264.47270966462787" r="5" fill="red" />
<text x="899.2782819585807" y="264.47270966462787" font-size="12" text-anchor="middle" dominant-baseline="middle">0-0</text>
<circle cx="885.0933346350881" cy="132.30107900315605" r="10" fill="none" stroke="green" />
<circle cx="885.0933346350881" cy="132.30107900315605" r="5" fill="red" />
<text x="885.0933346350881" y="132.30107900315605" font-size="12" text-anchor="middle" dominant-baseline="middle">1-1</text>
<circle cx="888.0465861494887" cy="188.37804899437612" r="10" fill="none" stroke="green" />
<circle cx="888.0465861494887" cy="188.37804899437612" r="5" fill="red" />
<text x="888.0465861494887" y="188.37804899437612" font-size="12" text-anchor="middle" dominant-baseline="middle">2-0</text>
<circle cx="910.892424467806" cy="124.64461734455578" r="10" fill="none" stroke="green" />
<circle cx="910.892424467806" cy="124.64461734455578" r="5" fill="red" />
<text x="910.892424467806" y="124.64461734455578" font-size="12" text-anchor="middle" dominant-baseline="middle">3-0</text>
<circle cx="886.5222724701539" cy="121.22230114814019" r="10" fill="none" stroke="green" />
<circle cx="886.5222724701539" cy="121.22230114814019" r="5" fill="red" />
<text x="886.5222724701539" y="121.22230114814019" font-size="12" text-anchor="middle" dominant-baseline="middle">4-1</text>
</svg>