<?xml version="1.0" encoding="UTF-8"?>
<svg xmlns="http://www.w3.org/2000/svg" xmlns:xlink="http://www.w3.org/1999/xlink"
     width="9948.0" height="8811.0" viewBox="0 0 9948.0 8811.0">
<defs>
</defs>
<rect x="0" y="0" width="9948.0" height="8811.0" fill="none" stroke="black" stroke-opacity="0.5" />
<rect x="0.0" y="0.0" width="1301.0" height="1815.0" fill="none" stroke="red" />
<circle cx="419.0" cy="2263.0" r="1" fill="blue" />
<text x="419.0" y="2263.0" font-size="12" text-anchor="middle" dominant-baseline="middle">0</text>
<circle cx="9255.0" cy="1695.0" r="1" fill="blue" />
<text x="9255.0" y="1695.0" font-size="12" text-anchor="middle" dominant-baseline="middle">1</text>
<circle cx="9838.0" cy="7231.0" r="1" fill="blue" />
<text x="9838.0" y="7231.0" font-size="12" text-anchor="middle" dominant-baseline="middle">2</text>
<circle cx="1379.0" cy="4926.0" r="1" fill="blue" />
<text x="1379.0" y="4926.0" font-size="12" text-anchor="middle" dominant-baseline="middle">3</text>
<circle cx="7435.0" cy="3599.0" r="1" fill="blue" />
<text x="7435.0" y="3599.0" font-size="12" text-anchor="middle" dominant-baseline="middle">4</text>
<circle cx="8667.0" cy="8393.0" r="1" fill="blue" />
<text x="8667.0" y="8393.0" font-size="12" text-anchor="middle" dominant-baseline="middle">5</text>
<circle cx="9707.0" cy="8242.0" r="1" fill="blue" />
<text x="9707.0" y="8242.0" font-size="12" text-anchor="middle" dominant-baseline="middle">6</text>
<circle cx="8981.0" cy="4573.0" r="1" fill="blue" />
<text x="8981.0" y="4573.0" font-size="12" text-anchor="middle" dominant-baseline="middle">7</text>
<circle cx="3131.0" cy="7092.0" r="1" fill="blue" />
<text x="3131.0" y="7092.0" font-size="12" text-anchor="middle" dominant-baseline="middle">8</text>
<circle cx="7049.0" cy="2319.0" r="1" fill="blue" />
<text x="7049.0" y="2319.0" font-size="12" text-anchor="middle" dominant-baseline="middle">9</text>
<circle cx="8928.0" cy="6648.0" r="1" fill="blue" />
<text x="8928.0" y="6648.0" font-size="12" text-anchor="middle" dominant-baseline="middle">10</text>
<circle cx="9403.0" cy="2692.0" r="1" fill="blue" />
<text x="9403.0" y="2692.0" font-size="12" text-anchor="middle" dominant-baseline="middle">11</text>
<circle cx="6001.0" cy="1382.0" r="1" fill="blue" />
<text x="6001.0" y="1382.0" font-size="12" text-anchor="middle" dominant-baseline="middle">12</text>
<circle cx="1487.0" cy="2085.0" r="1" fill="blue" />
<text x="1487.0" y="2085.0" font-size="12" text-anchor="middle" dominant-baseline="middle">13</text>
<circle cx="3368.0" cy="7068.0" r="1" fill="blue" />
<text x="3368.0" y="7068.0" font-size="12" text-anchor="middle" dominant-baseline="middle">14</text>
<circle cx="587.0" cy="6618.0" r="1" fill="blue" />
<text x="587.0" y="6618.0" font-size="12" text-anchor="middle" dominant-baseline="middle">15</text>
<circle cx="5308.0" cy="4061.0" r="1" fill="blue" />
<text x="5308.0" y="4061.0" font-size="12" text-anchor="middle" dominant-baseline="middle">16</text>
<circle cx="2674.0" cy="7699.0" r="1" fill="blue" />
<text x="2674.0" y="7699.0" font-size="12" text-anchor="middle" dominant-baseline="middle">17</text>
<circle cx="8409.0" cy="3335.0" r="1" fill="blue" />
<text x="8409.0" y="3335.0" font-size="12" text-anchor="middle" dominant-baseline="middle">18</text>
<circle cx="7774.0" cy="7989.0" r="1" fill="blue" />
<text x="7774.0" y="7989.0" font-size="12" text-anchor="middle" dominant-baseline="middle">19</text>
<circle cx="1972.0" cy="3603.0" r="1" fill="blue" />
<text x="1972.0" y="3603.0" font-size="12" text-anchor="middle" dominant-baseline="middle">20</text>
<circle cx="3576.0" cy="3721.0" r="1" fill="blue" />
<text x="3576.0" y="3721.0" font-size="12" text-anchor="middle" dominant-baseline="middle">21</text>
<circle cx="9851.0" cy="7457.0" r="1" fill="blue" />
<text x="9851.0" y="7457.0" font-size="12" text-anchor="middle" dominant-baseline="middle">22</text>
<circle cx="8500.0" cy="2114.0" r="1" fill="blue" />
<text x="8500.0" y="2114.0" font-size="12" text-anchor="middle" dominant-baseline="middle">23</text>
<circle cx="4552.0" cy="5739.0" r="1" fill="blue" />
<text x="4552.0" y="5739.0" font-size="12" text-anchor="middle" dominant-baseline="middle">24</text>
<circle cx="9711.0" cy="2803.0" r="1" fill="blue" />
<text x="9711.0" y="2803.0" font-size="12" text-anchor="middle" dominant-baseline="middle">25</text>
<circle cx="4680.0" cy="5018.0" r="1" fill="blue" />
<text x="4680.0" y="5018.0" font-size="12" text-anchor="middle" dominant-baseline="middle">26</text>
<circle cx="2036.0" cy="3977.0" r="1" fill="blue" />
<text x="2036.0" y="3977.0" font-size="12" text-anchor="middle" dominant-baseline="middle">27</text>
<circle cx="6849.0" cy="3803.0" r="1" fill="blue" />
<text x="6849.0" y="3803.0" font-size="12" text-anchor="middle" dominant-baseline="middle">28</text>
<circle cx="3841.0" cy="6196.0" r="1" fill="blue" />
<text x="3841.0" y="6196.0" font-size="12" text-anchor="middle" dominant-baseline="middle">29</text>
<circle cx="9007.0" cy="3890.0" r="1" fill="blue" />
<text x="9007.0" y="3890.0" font-size="12" text-anchor="middle" dominant-baseline="middle">30</text>
<circle cx="2142.0" cy="8580.0" r="1" fill="blue" />
<text x="2142.0" y="8580.0" font-size="12" text-anchor="middle" dominant-baseline="middle">31</text>
<circle cx="1491.0" cy="3254.0" r="1" fill="blue" />
<text x="1491.0" y="3254.0" font-size="12" text-anchor="middle" dominant-baseline="middle">32</text>
<circle cx="4409.0" cy="4675.0" r="1" fill="blue" />
<text x="4409.0" y="4675.0" font-size="12" text-anchor="middle" dominant-baseline="middle">33</text>
<circle cx="7179.0" cy="8472.0" r="1" fill="blue" />
<text x="7179.0" y="8472.0" font-size="12" text-anchor="middle" dominant-baseline="middle">34</text>
<circle cx="1018.0" cy="3841.0" r="1" fill="blue" />
<text x="1018.0" y="3841.0" font-size="12" text-anchor="middle" dominant-baseline="middle">35</text>
<circle cx="7127.0" cy="6188.0" r="1" fill="blue" />
<text x="7127.0" y="6188.0" font-size="12" text-anchor="middle" dominant-baseline="middle">36</text>
<circle cx="8433.0" cy="8762.0" r="1" fill="blue" />
<text x="8433.0" y="8762.0" font-size="12" text-anchor="middle" dominant-baseline="middle">37</text>
<circle cx="8339.0" cy="292.0" r="1" fill="blue" />
<text x="8339.0" y="292.0" font-size="12" text-anchor="middle" dominant-baseline="middle">38</text>
<circle cx="2716.0" cy="7619.0" r="1" fill="blue" />
<text x="2716.0" y="7619.0" font-size="12" text-anchor="middle" dominant-baseline="middle">39</text>
<circle cx="6801.0" cy="1614.0" r="1" fill="blue" />
<text x="6801.0" y="1614.0" font-size="12" text-anchor="middle" dominant-baseline="middle">40</text>
<circle cx="9296.0" cy="90.0" r="1" fill="blue" />
<text x="9296.0" y="90.0" font-size="12" text-anchor="middle" dominant-baseline="middle">41</text>
<circle cx="3261.0" cy="7358.0" r="1" fill="blue" />
<text x="3261.0" y="7358.0" font-size="12" text-anchor="middle" dominant-baseline="middle">42</text>
<circle cx="5802.0" cy="2861.0" r="1" fill="blue" />
<text x="5802.0" y="2861.0" font-size="12" text-anchor="middle" dominant-baseline="middle">43</text>
<circle cx="9294.0" cy="1034.0" r="1" fill="blue" />
<text x="9294.0" y="1034.0" font-size="12" text-anchor="middle" dominant-baseline="middle">44</text>
<circle cx="2576.0" cy="686.0" r="1" fill="blue" />
<text x="2576.0" y="686.0" font-size="12" text-anchor="middle" dominant-baseline="middle">45</text>
<circle cx="9915.0" cy="6361.0" r="1" fill="blue" />
<text x="9915.0" y="6361.0" font-size="12" text-anchor="middle" dominant-baseline="middle">46</text>
<circle cx="728.0" cy="6235.0" r="1" fill="blue" />
<text x="728.0" y="6235.0" font-size="12" text-anchor="middle" dominant-baseline="middle">47</text>
<circle cx="2684.0" cy="3890.0" r="1" fill="blue" />
<text x="2684.0" y="3890.0" font-size="12" text-anchor="middle" dominant-baseline="middle">48</text>
<circle cx="5007.0" cy="6666.0" r="1" fill="blue" />
<text x="5007.0" y="6666.0" font-size="12" text-anchor="middle" dominant-baseline="middle">49</text>
<circle cx="6268.0" cy="7704.0" r="1" fill="blue" />
<text x="6268.0" y="7704.0" font-size="12" text-anchor="middle" dominant-baseline="middle">50</text>
<circle cx="4628.0" cy="2850.0" r="1" fill="blue" />
<text x="4628.0" y="2850.0" font-size="12" text-anchor="middle" dominant-baseline="middle">51</text>
<circle cx="5632.0" cy="5195.0" r="1" fill="blue" />
<text x="5632.0" y="5195.0" font-size="12" text-anchor="middle" dominant-baseline="middle">52</text>
<circle cx="173.0" cy="6683.0" r="1" fill="blue" />
<text x="173.0" y="6683.0" font-size="12" text-anchor="middle" dominant-baseline="middle">53</text>
<circle cx="6278.0" cy="8225.0" r="1" fill="blue" />
<text x="6278.0" y="8225.0" font-size="12" text-anchor="middle" dominant-baseline="middle">54</text>
<circle cx="4255.0" cy="7025.0" r="1" fill="blue" />
<text x="4255.0" y="7025.0" font-size="12" text-anchor="middle" dominant-baseline="middle">55</text>
<circle cx="4321.0" cy="7887.0" r="1" fill="blue" />
<text x="4321.0" y="7887.0" font-size="12" text-anchor="middle" dominant-baseline="middle">56</text>
<circle cx="7926.0" cy="6773.0" r="1" fill="blue" />
<text x="7926.0" y="6773.0" font-size="12" text-anchor="middle" dominant-baseline="middle">57</text>
<circle cx="307.0" cy="3592.0" r="1" fill="blue" />
<text x="307.0" y="3592.0" font-size="12" text-anchor="middle" dominant-baseline="middle">58</text>
<circle cx="3365.0" cy="8395.0" r="1" fill="blue" />
<text x="3365.0" y="8395.0" font-size="12" text-anchor="middle" dominant-baseline="middle">59</text>
<circle cx="9621.0" cy="6042.0" r="1" fill="blue" />
<text x="9621.0" y="6042.0" font-size="12" text-anchor="middle" dominant-baseline="middle">60</text>
<circle cx="7711.0" cy="4632.0" r="1" fill="blue" />
<text x="7711.0" y="4632.0" font-size="12" text-anchor="middle" dominant-baseline="middle">61</text>
<circle cx="9494.0" cy="2507.0" r="1" fill="blue" />
<text x="9494.0" y="2507.0" font-size="12" text-anchor="middle" dominant-baseline="middle">62</text>
<circle cx="1626.0" cy="6027.0" r="1" fill="blue" />
<text x="1626.0" y="6027.0" font-size="12" text-anchor="middle" dominant-baseline="middle">63</text>
<circle cx="6959.0" cy="5650.0" r="1" fill="blue" />
<text x="6959.0" y="5650.0" font-size="12" text-anchor="middle" dominant-baseline="middle">64</text>
<circle cx="4318.0" cy="3870.0" r="1" fill="blue" />
<text x="4318.0" y="3870.0" font-size="12" text-anchor="middle" dominant-baseline="middle">65</text>
<circle cx="9765.0" cy="7980.0" r="1" fill="blue" />
<text x="9765.0" y="7980.0" font-size="12" text-anchor="middle" dominant-baseline="middle">66</text>
<circle cx="2930.0" cy="3091.0" r="1" fill="blue" />
<text x="2930.0" y="3091.0" font-size="12" text-anchor="middle" dominant-baseline="middle">67</text>
<circle cx="884.0" cy="3120.0" r="1" fill="blue" />
<text x="884.0" y="3120.0" font-size="12" text-anchor="middle" dominant-baseline="middle">68</text>
<circle cx="546.0" cy="2310.0" r="1" fill="blue" />
<text x="546.0" y="2310.0" font-size="12" text-anchor="middle" dominant-baseline="middle">69</text>
<circle cx="5943.0" cy="2378.0" r="1" fill="blue" />
<text x="5943.0" y="2378.0" font-size="12" text-anchor="middle" dominant-baseline="middle">70</text>
<circle cx="5646.0" cy="6895.0" r="1" fill="blue" />
<text x="5646.0" y="6895.0" font-size="12" text-anchor="middle" dominant-baseline="middle">71</text>
<circle cx="2674.0" cy="5640.0" r="1" fill="blue" />
<text x="2674.0" y="5640.0" font-size="12" text-anchor="middle" dominant-baseline="middle">72</text>
<circle cx="7258.0" cy="3750.0" r="1" fill="blue" />
<text x="7258.0" y="3750.0" font-size="12" text-anchor="middle" dominant-baseline="middle">73</text>
<circle cx="6303.0" cy="753.0" r="1" fill="blue" />
<text x="6303.0" y="753.0" font-size="12" text-anchor="middle" dominant-baseline="middle">74</text>
<circle cx="4884.0" cy="932.0" r="1" fill="blue" />
<text x="4884.0" y="932.0" font-size="12" text-anchor="middle" dominant-baseline="middle">75</text>
<circle cx="2124.0" cy="90.0" r="1" fill="blue" />
<text x="2124.0" y="90.0" font-size="12" text-anchor="middle" dominant-baseline="middle">76</text>
<circle cx="3589.0" cy="1345.0" r="1" fill="blue" />
<text x="3589.0" y="1345.0" font-size="12" text-anchor="middle" dominant-baseline="middle">77</text>
<circle cx="2075.0" cy="1343.0" r="1" fill="blue" />
<text x="2075.0" y="1343.0" font-size="12" text-anchor="middle" dominant-baseline="middle">78</text>
<circle cx="7305.0" cy="4976.0" r="1" fill="blue" />
<text x="7305.0" y="4976.0" font-size="12" text-anchor="middle" dominant-baseline="middle">79</text>
<circle cx="2351.0" cy="78.0" r="1" fill="blue" />
<text x="2351.0" y="78.0" font-size="12" text-anchor="middle" dominant-baseline="middle">80</text>
<circle cx="7410.0" cy="118.0" r="1" fill="blue" />
<text x="7410.0" y="118.0" font-size="12" text-anchor="middle" dominant-baseline="middle">81</text>
<circle cx="4147.0" cy="1775.0" r="1" fill="blue" />
<text x="4147.0" y="1775.0" font-size="12" text-anchor="middle" dominant-baseline="middle">82</text>
<circle cx="5359.0" cy="1065.0" r="1" fill="blue" />
<text x="5359.0" y="1065.0" font-size="12" text-anchor="middle" dominant-baseline="middle">83</text>
<circle cx="3106.0" cy="2788.0" r="1" fill="blue" />
<text x="3106.0" y="2788.0" font-size="12" text-anchor="middle" dominant-baseline="middle">84</text>
<circle cx="9500.0" cy="2930.0" r="1" fill="blue" />
<text x="9500.0" y="2930.0" font-size="12" text-anchor="middle" dominant-baseline="middle">85</text>
<circle cx="4594.0" cy="4340.0" r="1" fill="blue" />
<text x="4594.0" y="4340.0" font-size="12" text-anchor="middle" dominant-baseline="middle">86</text>
<circle cx="2431.0" cy="8512.0" r="1" fill="blue" />
<text x="2431.0" y="8512.0" font-size="12" text-anchor="middle" dominant-baseline="middle">87</text>
<circle cx="6122.0" cy="1847.0" r="1" fill="blue" />
<text x="6122.0" y="1847.0" font-size="12" text-anchor="middle" dominant-baseline="middle">88</text>
<circle cx="4794.0" cy="1707.0" r="1" fill="blue" />
<text x="4794.0" y="1707.0" font-size="12" text-anchor="middle" dominant-baseline="middle">89</text>
<circle cx="3001.0" cy="2471.0" r="1" fill="blue" />
<text x="3001.0" y="2471.0" font-size="12" text-anchor="middle" dominant-baseline="middle">90</text>
<circle cx="8107.0" cy="1465.0" r="1" fill="blue" />
<text x="8107.0" y="1465.0" font-size="12" text-anchor="middle" dominant-baseline="middle">91</text>
<circle cx="6609.0" cy="499.0" r="1" fill="blue" />
<text x="6609.0" y="499.0" font-size="12" text-anchor="middle" dominant-baseline="middle">92</text>
<circle cx="4333.0" cy="2928.0" r="1" fill="blue" />
<text x="4333.0" y="2928.0" font-size="12" text-anchor="middle" dominant-baseline="middle">93</text>
<circle cx="7441.0" cy="6853.0" r="1" fill="blue" />
<text x="7441.0" y="6853.0" font-size="12" text-anchor="middle" dominant-baseline="middle">94</text>
<circle cx="972.0" cy="3019.0" r="1" fill="blue" />
<text x="972.0" y="3019.0" font-size="12" text-anchor="middle" dominant-baseline="middle">95</text>
<circle cx="3279.0" cy="7248.0" r="1" fill="blue" />
<text x="3279.0" y="7248.0" font-size="12" text-anchor="middle" dominant-baseline="middle">96</text>
<circle cx="6587.0" cy="6968.0" r="1" fill="blue" />
<text x="6587.0" y="6968.0" font-size="12" text-anchor="middle" dominant-baseline="middle">97</text>
<circle cx="2380.0" cy="5942.0" r="1" fill="blue" />
<text x="2380.0" y="5942.0" font-size="12" text-anchor="middle" dominant-baseline="middle">98</text>
<circle cx="3525.0" cy="4363.0" r="1" fill="blue" />
<text x="3525.0" y="4363.0" font-size="12" text-anchor="middle" dominant-baseline="middle">99</text>
<circle cx="5153.0" cy="1532.0" r="1" fill="blue" />
<text x="5153.0" y="1532.0" font-size="12" text-anchor="middle" dominant-baseline="middle">100</text>
<circle cx="7315.0" cy="3174.0" r="1" fill="blue" />
<text x="7315.0" y="3174.0" font-size="12" text-anchor="middle" dominant-baseline="middle">101</text>
<circle cx="7247.0" cy="8242.0" r="1" fill="blue" />
<text x="7247.0" y="8242.0" font-size="12" text-anchor="middle" dominant-baseline="middle">102</text>
<circle cx="1072.0" cy="3511.0" r="1" fill="blue" />
<text x="1072.0" y="3511.0" font-size="12" text-anchor="middle" dominant-baseline="middle">103</text>
<circle cx="21.0" cy="5390.0" r="1" fill="blue" />
<text x="21.0" y="5390.0" font-size="12" text-anchor="middle" dominant-baseline="middle">104</text>
<circle cx="9440.0" cy="1934.0" r="1" fill="blue" />
<text x="9440.0" y="1934.0" font-size="12" text-anchor="middle" dominant-baseline="middle">105</text>
<circle cx="2984.0" cy="1806.0" r="1" fill="blue" />
<text x="2984.0" y="1806.0" font-size="12" text-anchor="middle" dominant-baseline="middle">106</text>
<circle cx="6557.0" cy="2682.0" r="1" fill="blue" />
<text x="6557.0" y="2682.0" font-size="12" text-anchor="middle" dominant-baseline="middle">107</text>
<circle cx="1770.0" cy="6751.0" r="1" fill="blue" />
<text x="1770.0" y="6751.0" font-size="12" text-anchor="middle" dominant-baseline="middle">108</text>
<circle cx="5691.0" cy="5489.0" r="1" fill="blue" />
<text x="5691.0" y="5489.0" font-size="12" text-anchor="middle" dominant-baseline="middle">109</text>
<circle cx="4104.0" cy="205.0" r="1" fill="blue" />
<text x="4104.0" y="205.0" font-size="12" text-anchor="middle" dominant-baseline="middle">110</text>
<circle cx="1990.0" cy="1997.0" r="1" fill="blue" />
<text x="1990.0" y="1997.0" font-size="12" text-anchor="middle" dominant-baseline="middle">111</text>
<circle cx="5000.0" cy="2058.0" r="1" fill="blue" />
<text x="5000.0" y="2058.0" font-size="12" text-anchor="middle" dominant-baseline="middle">112</text>
<circle cx="7976.0" cy="6647.0" r="1" fill="blue" />
<text x="7976.0" y="6647.0" font-size="12" text-anchor="middle" dominant-baseline="middle">113</text>
<circle cx="8163.0" cy="7443.0" r="1" fill="blue" />
<text x="8163.0" y="7443.0" font-size="12" text-anchor="middle" dominant-baseline="middle">114</text>
<circle cx="9670.0" cy="4037.0" r="1" fill="blue" />
<text x="9670.0" y="4037.0" font-size="12" text-anchor="middle" dominant-baseline="middle">115</text>
<circle cx="2100.0" cy="1533.0" r="1" fill="blue" />
<text x="2100.0" y="1533.0" font-size="12" text-anchor="middle" dominant-baseline="middle">116</text>
<circle cx="7719.0" cy="4023.0" r="1" fill="blue" />
<text x="7719.0" y="4023.0" font-size="12" text-anchor="middle" dominant-baseline="middle">117</text>
<circle cx="7103.0" cy="2103.0" r="1" fill="blue" />
<text x="7103.0" y="2103.0" font-size="12" text-anchor="middle" dominant-baseline="middle">118</text>
<circle cx="8017.0" cy="5592.0" r="1" fill="blue" />
<text x="8017.0" y="5592.0" font-size="12" text-anchor="middle" dominant-baseline="middle">119</text>
<circle cx="1175.0" cy="6444.0" r="1" fill="blue" />
<text x="1175.0" y="6444.0" font-size="12" text-anchor="middle" dominant-baseline="middle">120</text>
<circle cx="8875.0" cy="6340.0" r="1" fill="blue" />
<text x="8875.0" y="6340.0" font-size="12" text-anchor="middle" dominant-baseline="middle">121</text>
<circle cx="3106.0" cy="8356.0" r="1" fill="blue" />
<text x="3106.0" y="8356.0" font-size="12" text-anchor="middle" dominant-baseline="middle">122</text>
<circle cx="4543.0" cy="4183.0" r="1" fill="blue" />
<text x="4543.0" y="4183.0" font-size="12" text-anchor="middle" dominant-baseline="middle">123</text>
<circle cx="8334.0" cy="4146.0" r="1" fill="blue" />
<text x="8334.0" y="4146.0" font-size="12" text-anchor="middle" dominant-baseline="middle">124</text>
<circle cx="921.0" cy="7737.0" r="1" fill="blue" />
<text x="921.0" y="7737.0" font-size="12" text-anchor="middle" dominant-baseline="middle">125</text>
<circle cx="544.0" cy="8799.0" r="1" fill="blue" />
<text x="544.0" y="8799.0" font-size="12" text-anchor="middle" dominant-baseline="middle">126</text>
<circle cx="5886.0" cy="8783.0" r="1" fill="blue" />
<text x="5886.0" y="8783.0" font-size="12" text-anchor="middle" dominant-baseline="middle">127</text>
<circle cx="6266.0" cy="992.0" r="1" fill="blue" />
<text x="6266.0" y="992.0" font-size="12" text-anchor="middle" dominant-baseline="middle">128</text>
<circle cx="9485.0" cy="4933.0" r="1" fill="blue" />
<text x="9485.0" y="4933.0" font-size="12" text-anchor="middle" dominant-baseline="middle">129</text>
<circle cx="5373.0" cy="5423.0" r="1" fill="blue" />
<text x="5373.0" y="5423.0" font-size="12" text-anchor="middle" dominant-baseline="middle">130</text>
<circle cx="8520.0" cy="6522.0" r="1" fill="blue" />
<text x="8520.0" y="6522.0" font-size="12" text-anchor="middle" dominant-baseline="middle">131</text>
<circle cx="4666.0" cy="7261.0" r="1" fill="blue" />
<text x="4666.0" y="7261.0" font-size="12" text-anchor="middle" dominant-baseline="middle">132</text>
<circle cx="9867.0" cy="4510.0" r="1" fill="blue" />
<text x="9867.0" y="4510.0" font-size="12" text-anchor="middle" dominant-baseline="middle">133</text>
<circle cx="4546.0" cy="2690.0" r="1" fill="blue" />
<text x="4546.0" y="2690.0" font-size="12" text-anchor="middle" dominant-baseline="middle">134</text>
<circle cx="7255.0" cy="8403.0" r="1" fill="blue" />
<text x="7255.0" y="8403.0" font-size="12" text-anchor="middle" dominant-baseline="middle">135</text>
<circle cx="8343.0" cy="3737.0" r="1" fill="blue" />
<text x="8343.0" y="3737.0" font-size="12" text-anchor="middle" dominant-baseline="middle">136</text>
<circle cx="9291.0" cy="1183.0" r="1" fill="blue" />
<text x="9291.0" y="1183.0" font-size="12" text-anchor="middle" dominant-baseline="middle">137</text>
<circle cx="6495.0" cy="677.0" r="1" fill="blue" />
<text x="6495.0" y="677.0" font-size="12" text-anchor="middle" dominant-baseline="middle">138</text>
<circle cx="2607.0" cy="1234.0" r="1" fill="blue" />
<text x="2607.0" y="1234.0" font-size="12" text-anchor="middle" dominant-baseline="middle">139</text>
<circle cx="4852.0" cy="1162.0" r="1" fill="blue" />
<text x="4852.0" y="1162.0" font-size="12" text-anchor="middle" dominant-baseline="middle">140</text>
<circle cx="1490.0" cy="5284.0" r="1" fill="blue" />
<text x="1490.0" y="5284.0" font-size="12" text-anchor="middle" dominant-baseline="middle">141</text>
<circle cx="4832.0" cy="6935.0" r="1" fill="blue" />
<text x="4832.0" y="6935.0" font-size="12" text-anchor="middle" dominant-baseline="middle">142</text>
<circle cx="4519.0" cy="3267.0" r="1" fill="blue" />
<text x="4519.0" y="3267.0" font-size="12" text-anchor="middle" dominant-baseline="middle">143</text>
<circle cx="7083.0" cy="1229.0" r="1" fill="blue" />
<text x="7083.0" y="1229.0" font-size="12" text-anchor="middle" dominant-baseline="middle">144</text>
<circle cx="5767.0" cy="8730.0" r="1" fill="blue" />
<text x="5767.0" y="8730.0" font-size="12" text-anchor="middle" dominant-baseline="middle">145</text>
<circle cx="6787.0" cy="4059.0" r="1" fill="blue" />
<text x="6787.0" y="4059.0" font-size="12" text-anchor="middle" dominant-baseline="middle">146</text>
<circle cx="8333.0" cy="4174.0" r="1" fill="blue" />
<text x="8333.0" y="4174.0" font-size="12" text-anchor="middle" dominant-baseline="middle">147</text>
<circle cx="1565.0" cy="2358.0" r="1" fill="blue" />
<text x="1565.0" y="2358.0" font-size="12" text-anchor="middle" dominant-baseline="middle">148</text>
<circle cx="1877.0" cy="4818.0" r="1" fill="blue" />
<text x="1877.0" y="4818.0" font-size="12" text-anchor="middle" dominant-baseline="middle">149</text>
<circle cx="4552.0" cy="7677.0" r="1" fill="blue" />
<text x="4552.0" y="7677.0" font-size="12" text-anchor="middle" dominant-baseline="middle">150</text>
<circle cx="8987.0" cy="6589.0" r="1" fill="blue" />
<text x="8987.0" y="6589.0" font-size="12" text-anchor="middle" dominant-baseline="middle">151</text>
<circle cx="4214.0" cy="4124.0" r="1" fill="blue" />
<text x="4214.0" y="4124.0" font-size="12" text-anchor="middle" dominant-baseline="middle">152</text>
<circle cx="9632.0" cy="2831.0" r="1" fill="blue" />
<text x="9632.0" y="2831.0" font-size="12" text-anchor="middle" dominant-baseline="middle">153</text>
<circle cx="5104.0" cy="6822.0" r="1" fill="blue" />
<text x="5104.0" y="6822.0" font-size="12" text-anchor="middle" dominant-baseline="middle">154</text>
<circle cx="2313.0" cy="4386.0" r="1" fill="blue" />
<text x="2313.0" y="4386.0" font-size="12" text-anchor="middle" dominant-baseline="middle">155</text>
<circle cx="7551.0" cy="4081.0" r="1" fill="blue" />
<text x="7551.0" y="4081.0" font-size="12" text-anchor="middle" dominant-baseline="middle">156</text>
<circle cx="8510.0" cy="1483.0" r="1" fill="blue" />
<text x="8510.0" y="1483.0" font-size="12" text-anchor="middle" dominant-baseline="middle">157</text>
<circle cx="8617.0" cy="747.0" r="1" fill="blue" />
<text x="8617.0" y="747.0" font-size="12" text-anchor="middle" dominant-baseline="middle">158</text>
<circle cx="3546.0" cy="5629.0" r="1" fill="blue" />
<text x="3546.0" y="5629.0" font-size="12" text-anchor="middle" dominant-baseline="middle">159</text>
<circle cx="496.0" cy="4363.0" r="1" fill="blue" />
<text x="496.0" y="4363.0" font-size="12" text-anchor="middle" dominant-baseline="middle">160</text>
<circle cx="7103.0" cy="7096.0" r="1" fill="blue" />
<text x="7103.0" y="7096.0" font-size="12" text-anchor="middle" dominant-baseline="middle">161</text>
<circle cx="7573.0" cy="1901.0" r="1" fill="blue" />
<text x="7573.0" y="1901.0" font-size="12" text-anchor="middle" dominant-baseline="middle">162</text>
<circle cx="926.0" cy="7354.0" r="1" fill="blue" />
<text x="926.0" y="7354.0" font-size="12" text-anchor="middle" dominant-baseline="middle">163</text>
<circle cx="7311.0" cy="8712.0" r="1" fill="blue" />
<text x="7311.0" y="8712.0" font-size="12" text-anchor="middle" dominant-baseline="middle">164</text>
<circle cx="4619.0" cy="6451.0" r="1" fill="blue" />
<text x="4619.0" y="6451.0" font-size="12" text-anchor="middle" dominant-baseline="middle">165</text>
<circle cx="2082.0" cy="36.0" r="1" fill="blue" />
<text x="2082.0" y="36.0" font-size="12" text-anchor="middle" dominant-baseline="middle">166</text>
<circle cx="3680.0" cy="3088.0" r="1" fill="blue" />
<text x="3680.0" y="3088.0" font-size="12" text-anchor="middle" dominant-baseline="middle">167</text>
<circle cx="3611.0" cy="4258.0" r="1" fill="blue" />
<text x="3611.0" y="4258.0" font-size="12" text-anchor="middle" dominant-baseline="middle">168</text>
<circle cx="1087.0" cy="8341.0" r="1" fill="blue" />
<text x="1087.0" y="8341.0" font-size="12" text-anchor="middle" dominant-baseline="middle">169</text>
<circle cx="2588.0" cy="4780.0" r="1" fill="blue" />
<text x="2588.0" y="4780.0" font-size="12" text-anchor="middle" dominant-baseline="middle">170</text>
<circle cx="2667.0" cy="7758.0" r="1" fill="blue" />
<text x="2667.0" y="7758.0" font-size="12" text-anchor="middle" dominant-baseline="middle">171</text>
<circle cx="5971.0" cy="2630.0" r="1" fill="blue" />
<text x="5971.0" y="2630.0" font-size="12" text-anchor="middle" dominant-baseline="middle">172</text>
<circle cx="2135.0" cy="1745.0" r="1" fill="blue" />
<text x="2135.0" y="1745.0" font-size="12" text-anchor="middle" dominant-baseline="middle">173</text>
<circle cx="3075.0" cy="879.0" r="1" fill="blue" />
<text x="3075.0" y="879.0" font-size="12" text-anchor="middle" dominant-baseline="middle">174</text>
<circle cx="2000.0" cy="2240.0" r="1" fill="blue" />
<text x="2000.0" y="2240.0" font-size="12" text-anchor="middle" dominant-baseline="middle">175</text>
<circle cx="4864.0" cy="5348.0" r="1" fill="blue" />
<text x="4864.0" y="5348.0" font-size="12" text-anchor="middle" dominant-baseline="middle">176</text>
<circle cx="6663.0" cy="1747.0" r="1" fill="blue" />
<text x="6663.0" y="1747.0" font-size="12" text-anchor="middle" dominant-baseline="middle">177</text>
<circle cx="3581.0" cy="3269.0" r="1" fill="blue" />
<text x="3581.0" y="3269.0" font-size="12" text-anchor="middle" dominant-baseline="middle">178</text>
<circle cx="7234.0" cy="650.0" r="1" fill="blue" />
<text x="7234.0" y="650.0" font-size="12" text-anchor="middle" dominant-baseline="middle">179</text>
<circle cx="9687.0" cy="4259.0" r="1" fill="blue" />
<text x="9687.0" y="4259.0" font-size="12" text-anchor="middle" dominant-baseline="middle">180</text>
<circle cx="6840.0" cy="3315.0" r="1" fill="blue" />
<text x="6840.0" y="3315.0" font-size="12" text-anchor="middle" dominant-baseline="middle">181</text>
<circle cx="5934.0" cy="5214.0" r="1" fill="blue" />
<text x="5934.0" y="5214.0" font-size="12" text-anchor="middle" dominant-baseline="middle">182</text>
<circle cx="2294.0" cy="4984.0" r="1" fill="blue" />
<text x="2294.0" y="4984.0" font-size="12" text-anchor="middle" dominant-baseline="middle">183</text>
<circle cx="1937.0" cy="2011.0" r="1" fill="blue" />
<text x="1937.0" y="2011.0" font-size="12" text-anchor="middle" dominant-baseline="middle">184</text>
<circle cx="8217.0" cy="6182.0" r="1" fill="blue" />
<text x="8217.0" y="6182.0" font-size="12" text-anchor="middle" dominant-baseline="middle">185</text>
<circle cx="7718.0" cy="3459.0" r="1" fill="blue" />
<text x="7718.0" y="3459.0" font-size="12" text-anchor="middle" dominant-baseline="middle">186</text>
<circle cx="3073.0" cy="5533.0" r="1" fill="blue" />
<text x="3073.0" y="5533.0" font-size="12" text-anchor="middle" dominant-baseline="middle">187</text>
<circle cx="3069.0" cy="323.0" r="1" fill="blue" />
<text x="3069.0" y="323.0" font-size="12" text-anchor="middle" dominant-baseline="middle">188</text>
<circle cx="1487.0" cy="5723.0" r="1" fill="blue" />
<text x="1487.0" y="5723.0" font-size="12" text-anchor="middle" dominant-baseline="middle">189</text>
<circle cx="4405.0" cy="6195.0" r="1" fill="blue" />
<text x="4405.0" y="6195.0" font-size="12" text-anchor="middle" dominant-baseline="middle">190</text>
<circle cx="6013.0" cy="7152.0" r="1" fill="blue" />
<text x="6013.0" y="7152.0" font-size="12" text-anchor="middle" dominant-baseline="middle">191</text>
<circle cx="7778.0" cy="8408.0" r="1" fill="blue" />
<text x="7778.0" y="8408.0" font-size="12" text-anchor="middle" dominant-baseline="middle">192</text>
<circle cx="4199.0" cy="615.0" r="1" fill="blue" />
<text x="4199.0" y="615.0" font-size="12" text-anchor="middle" dominant-baseline="middle">193</text>
<circle cx="7741.0" cy="3847.0" r="1" fill="blue" />
<text x="7741.0" y="3847.0" font-size="12" text-anchor="middle" dominant-baseline="middle">194</text>
<circle cx="7480.0" cy="4906.0" r="1" fill="blue" />
<text x="7480.0" y="4906.0" font-size="12" text-anchor="middle" dominant-baseline="middle">195</text>
<circle cx="3179.0" cy="357.0" r="1" fill="blue" />
<text x="3179.0" y="357.0" font-size="12" text-anchor="middle" dominant-baseline="middle">196</text>
<circle cx="7561.0" cy="3709.0" r="1" fill="blue" />
<text x="7561.0" y="3709.0" font-size="12" text-anchor="middle" dominant-baseline="middle">197</text>
<circle cx="5380.0" cy="7039.0" r="1" fill="blue" />
<text x="5380.0" y="7039.0" font-size="12" text-anchor="middle" dominant-baseline="middle">198</text>
<circle cx="753.0" cy="7758.0" r="1" fill="blue" />
<text x="753.0" y="7758.0" font-size="12" text-anchor="middle" dominant-baseline="middle">199</text>
<circle cx="9764.0" cy="2969.0" r="1" fill="blue" />
<text x="9764.0" y="2969.0" font-size="12" text-anchor="middle" dominant-baseline="middle">200</text>
<circle cx="8654.0" cy="6766.0" r="1" fill="blue" />
<text x="8654.0" y="6766.0" font-size="12" text-anchor="middle" dominant-baseline="middle">201</text>
<circle cx="6133.0" cy="8648.0" r="1" fill="blue" />
<text x="6133.0" y="8648.0" font-size="12" text-anchor="middle" dominant-baseline="middle">202</text>
<circle cx="5806.0" cy="1864.0" r="1" fill="blue" />
<text x="5806.0" y="1864.0" font-size="12" text-anchor="middle" dominant-baseline="middle">203</text>
<circle cx="6728.0" cy="8782.0" r="1" fill="blue" />
<text x="6728.0" y="8782.0" font-size="12" text-anchor="middle" dominant-baseline="middle">204</text>
<circle cx="8873.0" cy="7950.0" r="1" fill="blue" />
<text x="8873.0" y="7950.0" font-size="12" text-anchor="middle" dominant-baseline="middle">205</text>
<circle cx="7089.0" cy="1310.0" r="1" fill="blue" />
<text x="7089.0" y="1310.0" font-size="12" text-anchor="middle" dominant-baseline="middle">206</text>
<circle cx="8641.0" cy="263.0" r="1" fill="blue" />
<text x="8641.0" y="263.0" font-size="12" text-anchor="middle" dominant-baseline="middle">207</text>
<circle cx="2681.0" cy="7655.0" r="1" fill="blue" />
<text x="2681.0" y="7655.0" font-size="12" text-anchor="middle" dominant-baseline="middle">208</text>
<circle cx="2122.0" cy="8274.0" r="1" fill="blue" />
<text x="2122.0" y="8274.0" font-size="12" text-anchor="middle" dominant-baseline="middle">209</text>
<circle cx="7937.0" cy="5619.0" r="1" fill="blue" />
<text x="7937.0" y="5619.0" font-size="12" text-anchor="middle" dominant-baseline="middle">210</text>
<circle cx="3521.0" cy="202.0" r="1" fill="blue" />
<text x="3521.0" y="202.0" font-size="12" text-anchor="middle" dominant-baseline="middle">211</text>
<circle cx="3997.0" cy="2400.0" r="1" fill="blue" />
<text x="3997.0" y="2400.0" font-size="12" text-anchor="middle" dominant-baseline="middle">212</text>
<circle cx="8171.0" cy="1247.0" r="1" fill="blue" />
<text x="8171.0" y="1247.0" font-size="12" text-anchor="middle" dominant-baseline="middle">213</text>
<circle cx="6392.0" cy="1097.0" r="1" fill="blue" />
<text x="6392.0" y="1097.0" font-size="12" text-anchor="middle" dominant-baseline="middle">214</text>
<circle cx="1849.0" cy="2892.0" r="1" fill="blue" />
<text x="1849.0" y="2892.0" font-size="12" text-anchor="middle" dominant-baseline="middle">215</text>
<circle cx="8158.0" cy="2544.0" r="1" fill="blue" />
<text x="8158.0" y="2544.0" font-size="12" text-anchor="middle" dominant-baseline="middle">216</text>
<circle cx="7364.0" cy="3819.0" r="1" fill="blue" />
<text x="7364.0" y="3819.0" font-size="12" text-anchor="middle" dominant-baseline="middle">217</text>
<circle cx="2844.0" cy="574.0" r="1" fill="blue" />
<text x="2844.0" y="574.0" font-size="12" text-anchor="middle" dominant-baseline="middle">218</text>
<circle cx="6126.0" cy="8214.0" r="1" fill="blue" />
<text x="6126.0" y="8214.0" font-size="12" text-anchor="middle" dominant-baseline="middle">219</text>
<circle cx="7905.0" cy="4848.0" r="1" fill="blue" />
<text x="7905.0" y="4848.0" font-size="12" text-anchor="middle" dominant-baseline="middle">220</text>
<circle cx="4235.0" cy="271.0" r="1" fill="blue" />
<text x="4235.0" y="271.0" font-size="12" text-anchor="middle" dominant-baseline="middle">221</text>
<circle cx="9595.0" cy="192.0" r="1" fill="blue" />
<text x="9595.0" y="192.0" font-size="12" text-anchor="middle" dominant-baseline="middle">222</text>
<circle cx="8911.0" cy="8651.0" r="1" fill="blue" />
<text x="8911.0" y="8651.0" font-size="12" text-anchor="middle" dominant-baseline="middle">223</text>
<circle cx="5603.0" cy="6836.0" r="1" fill="blue" />
<text x="5603.0" y="6836.0" font-size="12" text-anchor="middle" dominant-baseline="middle">224</text>
<circle cx="5175.0" cy="7228.0" r="1" fill="blue" />
<text x="5175.0" y="7228.0" font-size="12" text-anchor="middle" dominant-baseline="middle">225</text>
<circle cx="8351.0" cy="7862.0" r="1" fill="blue" />
<text x="8351.0" y="7862.0" font-size="12" text-anchor="middle" dominant-baseline="middle">226</text>
<circle cx="6176.0" cy="2426.0" r="1" fill="blue" />
<text x="6176.0" y="2426.0" font-size="12" text-anchor="middle" dominant-baseline="middle">227</text>
<circle cx="1327.0" cy="1646.0" r="1" fill="blue" />
<text x="1327.0" y="1646.0" font-size="12" text-anchor="middle" dominant-baseline="middle">228</text>
<circle cx="4747.0" cy="1927.0" r="1" fill="blue" />
<text x="4747.0" y="1927.0" font-size="12" text-anchor="middle" dominant-baseline="middle">229</text>
<circle cx="5832.0" cy="6910.0" r="1" fill="blue" />
<text x="5832.0" y="6910.0" font-size="12" text-anchor="middle" dominant-baseline="middle">230</text>
<circle cx="9527.0" cy="553.0" r="1" fill="blue" />
<text x="9527.0" y="553.0" font-size="12" text-anchor="middle" dominant-baseline="middle">231</text>
<circle cx="8393.0" cy="2504.0" r="1" fill="blue" />
<text x="8393.0" y="2504.0" font-size="12" text-anchor="middle" dominant-baseline="middle">232</text>
<circle cx="3635.0" cy="5492.0" r="1" fill="blue" />
<text x="3635.0" y="5492.0" font-size="12" text-anchor="middle" dominant-baseline="middle">233</text>
<circle cx="7151.0" cy="8198.0" r="1" fill="blue" />
<text x="7151.0" y="8198.0" font-size="12" text-anchor="middle" dominant-baseline="middle">234</text>
<circle cx="9851.0" cy="3679.0" r="1" fill="blue" />
<text x="9851.0" y="3679.0" font-size="12" text-anchor="middle" dominant-baseline="middle">235</text>
<circle cx="9274.0" cy="4810.0" r="1" fill="blue" />
<text x="9274.0" y="4810.0" font-size="12" text-anchor="middle" dominant-baseline="middle">236</text>
<circle cx="3048.0" cy="7295.0" r="1" fill="blue" />
<text x="3048.0" y="7295.0" font-size="12" text-anchor="middle" dominant-baseline="middle">237</text>
<circle cx="7038.0" cy="5739.0" r="1" fill="blue" />
<text x="7038.0" y="5739.0" font-size="12" text-anchor="middle" dominant-baseline="middle">238</text>
<circle cx="7472.0" cy="5357.0" r="1" fill="blue" />
<text x="7472.0" y="5357.0" font-size="12" text-anchor="middle" dominant-baseline="middle">239</text>
<circle cx="2997.0" cy="3956.0" r="1" fill="blue" />
<text x="2997.0" y="3956.0" font-size="12" text-anchor="middle" dominant-baseline="middle">240</text>
<circle cx="3050.0" cy="7980.0" r="1" fill="blue" />
<text x="3050.0" y="7980.0" font-size="12" text-anchor="middle" dominant-baseline="middle">241</text>
<circle cx="1404.0" cy="10.0" r="1" fill="blue" />
<text x="1404.0" y="10.0" font-size="12" text-anchor="middle" dominant-baseline="middle">242</text>
<circle cx="2849.0" cy="7789.0" r="1" fill="blue" />
<text x="2849.0" y="7789.0" font-size="12" text-anchor="middle" dominant-baseline="middle">243</text>
<circle cx="3309.0" cy="7428.0" r="1" fill="blue" />
<text x="3309.0" y="7428.0" font-size="12" text-anchor="middle" dominant-baseline="middle">244</text>
<circle cx="3387.0" cy="5295.0" r="1" fill="blue" />
<text x="3387.0" y="5295.0" font-size="12" text-anchor="middle" dominant-baseline="middle">245</text>
<circle cx="8476.0" cy="4024.0" r="1" fill="blue" />
<text x="8476.0" y="4024.0" font-size="12" text-anchor="middle" dominant-baseline="middle">246</text>
<circle cx="1237.0" cy="8076.0" r="1" fill="blue" />
<text x="1237.0" y="8076.0" font-size="12" text-anchor="middle" dominant-baseline="middle">247</text>
<circle cx="1746.0" cy="6160.0" r="1" fill="blue" />
<text x="1746.0" y="6160.0" font-size="12" text-anchor="middle" dominant-baseline="middle">248</text>
<circle cx="1183.0" cy="7571.0" r="1" fill="blue" />
<text x="1183.0" y="7571.0" font-size="12" text-anchor="middle" dominant-baseline="middle">249</text>
<circle cx="6731.0" cy="3029.0" r="1" fill="blue" />
<text x="6731.0" y="3029.0" font-size="12" text-anchor="middle" dominant-baseline="middle">250</text>
<circle cx="2753.0" cy="6113.0" r="1" fill="blue" />
<text x="2753.0" y="6113.0" font-size="12" text-anchor="middle" dominant-baseline="middle">251</text>
<circle cx="3400.0" cy="8047.0" r="1" fill="blue" />
<text x="3400.0" y="8047.0" font-size="12" text-anchor="middle" dominant-baseline="middle">252</text>
<circle cx="8456.0" cy="1958.0" r="1" fill="blue" />
<text x="8456.0" y="1958.0" font-size="12" text-anchor="middle" dominant-baseline="middle">253</text>
<circle cx="9424.0" cy="373.0" r="1" fill="blue" />
<text x="9424.0" y="373.0" font-size="12" text-anchor="middle" dominant-baseline="middle">254</text>
<circle cx="4920.0" cy="2470.0" r="1" fill="blue" />
<text x="4920.0" y="2470.0" font-size="12" text-anchor="middle" dominant-baseline="middle">255</text>
<circle cx="6988.0" cy="2163.0" r="1" fill="blue" />
<text x="6988.0" y="2163.0" font-size="12" text-anchor="middle" dominant-baseline="middle">256</text>
<circle cx="8000.0" cy="4216.0" r="1" fill="blue" />
<text x="8000.0" y="4216.0" font-size="12" text-anchor="middle" dominant-baseline="middle">257</text>
<circle cx="5344.0" cy="7859.0" r="1" fill="blue" />
<text x="5344.0" y="7859.0" font-size="12" text-anchor="middle" dominant-baseline="middle">258</text>
<circle cx="6716.0" cy="7256.0" r="1" fill="blue" />
<text x="6716.0" y="7256.0" font-size="12" text-anchor="middle" dominant-baseline="middle">259</text>
<circle cx="5882.0" cy="3870.0" r="1" fill="blue" />
<text x="5882.0" y="3870.0" font-size="12" text-anchor="middle" dominant-baseline="middle">260</text>
<circle cx="3554.0" cy="6921.0" r="1" fill="blue" />
<text x="3554.0" y="6921.0" font-size="12" text-anchor="middle" dominant-baseline="middle">261</text>
<circle cx="3186.0" cy="3508.0" r="1" fill="blue" />
<text x="3186.0" y="3508.0" font-size="12" text-anchor="middle" dominant-baseline="middle">262</text>
<circle cx="2702.0" cy="7902.0" r="1" fill="blue" />
<text x="2702.0" y="7902.0" font-size="12" text-anchor="middle" dominant-baseline="middle">263</text>
<circle cx="8691.0" cy="6904.0" r="1" fill="blue" />
<text x="8691.0" y="6904.0" font-size="12" text-anchor="middle" dominant-baseline="middle">264</text>
<circle cx="3735.0" cy="2891.0" r="1" fill="blue" />
<text x="3735.0" y="2891.0" font-size="12" text-anchor="middle" dominant-baseline="middle">265</text>
<circle cx="7765.0" cy="2678.0" r="1" fill="blue" />
<text x="7765.0" y="2678.0" font-size="12" text-anchor="middle" dominant-baseline="middle">266</text>
<circle cx="9757.0" cy="5682.0" r="1" fill="blue" />
<text x="9757.0" y="5682.0" font-size="12" text-anchor="middle" dominant-baseline="middle">267</text>
<circle cx="4156.0" cy="4665.0" r="1" fill="blue" />
<text x="4156.0" y="4665.0" font-size="12" text-anchor="middle" dominant-baseline="middle">268</text>
<circle cx="6845.0" cy="7526.0" r="1" fill="blue" />
<text x="6845.0" y="7526.0" font-size="12" text-anchor="middle" dominant-baseline="middle">269</text>
<circle cx="3948.0" cy="4274.0" r="1" fill="blue" />
<text x="3948.0" y="4274.0" font-size="12" text-anchor="middle" dominant-baseline="middle">270</text>
<circle cx="2449.0" cy="1635.0" r="1" fill="blue" />
<text x="2449.0" y="1635.0" font-size="12" text-anchor="middle" dominant-baseline="middle">271</text>
<circle cx="9121.0" cy="5190.0" r="1" fill="blue" />
<text x="9121.0" y="5190.0" font-size="12" text-anchor="middle" dominant-baseline="middle">272</text>
<circle cx="5290.0" cy="6148.0" r="1" fill="blue" />
<text x="5290.0" y="6148.0" font-size="12" text-anchor="middle" dominant-baseline="middle">273</text>
<circle cx="4483.0" cy="6063.0" r="1" fill="blue" />
<text x="4483.0" y="6063.0" font-size="12" text-anchor="middle" dominant-baseline="middle">274</text>
<circle cx="7309.0" cy="6098.0" r="1" fill="blue" />
<text x="7309.0" y="6098.0" font-size="12" text-anchor="middle" dominant-baseline="middle">275</text>
<circle cx="5090.0" cy="134.0" r="1" fill="blue" />
<text x="5090.0" y="134.0" font-size="12" text-anchor="middle" dominant-baseline="middle">276</text>
<circle cx="4404.0" cy="89.0" r="1" fill="blue" />
<text x="4404.0" y="89.0" font-size="12" text-anchor="middle" dominant-baseline="middle">277</text>
<circle cx="6028.0" cy="7187.0" r="1" fill="blue" />
<text x="6028.0" y="7187.0" font-size="12" text-anchor="middle" dominant-baseline="middle">278</text>
<circle cx="5741.0" cy="1717.0" r="1" fill="blue" />
<text x="5741.0" y="1717.0" font-size="12" text-anchor="middle" dominant-baseline="middle">279</text>
<circle cx="6945.0" cy="1221.0" r="1" fill="blue" />
<text x="6945.0" y="1221.0" font-size="12" text-anchor="middle" dominant-baseline="middle">280</text>
<circle cx="2174.0" cy="2375.0" r="1" fill="blue" />
<text x="2174.0" y="2375.0" font-size="12" text-anchor="middle" dominant-baseline="middle">281</text>
<circle cx="6662.0" cy="5064.0" r="1" fill="blue" />
<text x="6662.0" y="5064.0" font-size="12" text-anchor="middle" dominant-baseline="middle">282</text>
<circle cx="1760.0" cy="2769.0" r="1" fill="blue" />
<text x="1760.0" y="2769.0" font-size="12" text-anchor="middle" dominant-baseline="middle">283</text>
<circle cx="2354.0" cy="7724.0" r="1" fill="blue" />
<text x="2354.0" y="7724.0" font-size="12" text-anchor="middle" dominant-baseline="middle">284</text>
<circle cx="5073.0" cy="4892.0" r="1" fill="blue" />
<text x="5073.0" y="4892.0" font-size="12" text-anchor="middle" dominant-baseline="middle">285</text>
<circle cx="4874.0" cy="3029.0" r="1" fill="blue" />
<text x="4874.0" y="3029.0" font-size="12" text-anchor="middle" dominant-baseline="middle">286</text>
<circle cx="7671.0" cy="8181.0" r="1" fill="blue" />
<text x="7671.0" y="8181.0" font-size="12" text-anchor="middle" dominant-baseline="middle">287</text>
<circle cx="5944.0" cy="6662.0" r="1" fill="blue" />
<text x="5944.0" y="6662.0" font-size="12" text-anchor="middle" dominant-baseline="middle">288</text>
<circle cx="5862.0" cy="380.0" r="1" fill="blue" />
<text x="5862.0" y="380.0" font-size="12" text-anchor="middle" dominant-baseline="middle">289</text>
<circle cx="6440.0" cy="6046.0" r="1" fill="blue" />
<text x="6440.0" y="6046.0" font-size="12" text-anchor="middle" dominant-baseline="middle">290</text>
<circle cx="5737.0" cy="1763.0" r="1" fill="blue" />
<text x="5737.0" y="1763.0" font-size="12" text-anchor="middle" dominant-baseline="middle">291</text>
<circle cx="6987.0" cy="7035.0" r="1" fill="blue" />
<text x="6987.0" y="7035.0" font-size="12" text-anchor="middle" dominant-baseline="middle">292</text>
<circle cx="8990.0" cy="8774.0" r="1" fill="blue" />
<text x="8990.0" y="8774.0" font-size="12" text-anchor="middle" dominant-baseline="middle">293</text>
<circle cx="6492.0" cy="1977.0" r="1" fill="blue" />
<text x="6492.0" y="1977.0" font-size="12" text-anchor="middle" dominant-baseline="middle">294</text>
<circle cx="6484.0" cy="2061.0" r="1" fill="blue" />
<text x="6484.0" y="2061.0" font-size="12" text-anchor="middle" dominant-baseline="middle">295</text>
<circle cx="4974.0" cy="4661.0" r="1" fill="blue" />
<text x="4974.0" y="4661.0" font-size="12" text-anchor="middle" dominant-baseline="middle">296</text>
<circle cx="7362.0" cy="6395.0" r="1" fill="blue" />
<text x="7362.0" y="6395.0" font-size="12" text-anchor="middle" dominant-baseline="middle">297</text>
<circle cx="6558.0" cy="246.0" r="1" fill="blue" />
<text x="6558.0" y="246.0" font-size="12" text-anchor="middle" dominant-baseline="middle">298</text>
<circle cx="719.0" cy="3550.0" r="1" fill="blue" />
<text x="719.0" y="3550.0" font-size="12" text-anchor="middle" dominant-baseline="middle">299</text>
<circle cx="10.0" cy="10.0" r="10" fill="none" stroke="green" />
<circle cx="10.0" cy="10.0" r="5" fill="red" />
<text x="10.0" y="10.0" font-size="12" text-anchor="middle" dominant-baseline="middle">0-0</text>
<circle cx="20.0" cy="10.0" r="10" fill="none" stroke="green" />
<circle cx="20.0" cy="10.0" r="5" fill="red" />
<text x="20.0" y="10.0" font-size="12" text-anchor="middle" dominant-baseline="middle">1-1</text>
<circle cx="30.0" cy="10.0" r="10" fill="none" stroke="green" />
<circle cx="30.0" cy="10.0" r="5" fill="red" />
<text x="30.0" y="10.0" font-size="12" text-anchor="middle" dominant-baseline="middle">2-2</text>
<circle cx="40.0" cy="10.0" r="10" fill="none" stroke="green" />
<circle cx="40.0" cy="10.0" r="5" fill="red" />
<text x="40.0" y="10.0" font-size="12" text-anchor="middle" dominant-baseline="middle">3-2</text>
<circle cx="50.0" cy="10.0" r="10" fill="none" stroke="green" />
<circle cx="50.0" cy="10.0" r="5" fill="red" />
<text x="50.0" y="10.0" font-size="12" text-anchor="middle" dominant-baseline="middle">4-2</text>
<circle cx="60.0" cy="10.0" r="10" fill="none" stroke="green" />
<circle cx="60.0" cy="10.0" r="5" fill="red" />
<text x="60.0" y="10.0" font-size="12" text-anchor="middle" dominant-baseline="middle">5-1</text>
<circle cx="70.0" cy="10.0" r="10" fill="none" stroke="green" />
<circle cx="70.0" cy="10.0" r="5" fill="red" />
<text x="70.0" y="10.0" font-size="12" text-anchor="middle" dominant-baseline="middle">6-1</text>
<circle cx="80.0" cy="10.0" r="10" fill="none" stroke="green" />
<circle cx="80.0" cy="10.0" r="5" fill="red" />
<text x="80.0" y="10.0" font-size="12" text-anchor="middle" dominant-baseline="middle">7-1</text>
<circle cx="90.0" cy="10.0" r="10" fill="none" stroke="green" />
<circle cx="90.0" cy="10.0" r="5" fill="red" />
<text x="90.0" y="10.0" font-size="12" text-anchor="middle" dominant-baseline="middle">8-0</text>
<circle cx="100.0" cy="10.0" r="10" fill="none" stroke="green" />
<circle cx="100.0" cy="10.0" r="5" fill="red" />
<text x="100.0" y="10.0" font-size="12" text-anchor="middle" dominant-baseline="middle">9-1</text>
<circle cx="110.0" cy="10.0" r="10" fill="none" stroke="green" />
<circle cx="110.0" cy="10.0" r="5" fill="red" />
<text x="110.0" y="10.0" font-size="12" text-anchor="middle" dominant-baseline="middle">10-1</text>
<circle cx="120.0" cy="10.0" r="10" fill="none" stroke="green" />
<circle cx="120.0" cy="10.0" r="5" fill="red" />
<text x="120.0" y="10.0" font-size="12" text-anchor="middle" dominant-baseline="middle">11-0</text>
<circle cx="130.0" cy="10.0" r="10" fill="none" stroke="green" />
<circle cx="130.0" cy="10.0" r="5" fill="red" />
<text x="130.0" y="10.0" font-size="12" text-anchor="middle" dominant-baseline="middle">12-0</text>
<circle cx="140.0" cy="10.0" r="10" fill="none" stroke="green" />
<circle cx="140.0" cy="10.0" r="5" fill="red" />
<text x="140.0" y="10.0" font-size="12" text-anchor="middle" dominant-baseline="middle">13-2</text>
</svg>