<?xml version="1.0" encoding="UTF-8"?>
<svg xmlns="http://www.w3.org/2000/svg" xmlns:xlink="http://www.w3.org/1999/xlink"
     width="8531.0" height="3600.0" viewBox="0 0 8531.0 3600.0">
<defs>
</defs>
<rect x="0" y="0" width="8531.0" height="3600.0" fill="none" stroke="black" stroke-opacity="0.5" />
<rect x="0.0" y="0.0" width="216.0" height="1126.0" fill="none" stroke="red" />
<circle cx="4940.0" cy="3555.0" r="1" fill="blue" />
<text x="4940.0" y="3555.0" font-size="12" text-anchor="middle" dominant-baseline="middle">0</text>
<circle cx="6230.0" cy="576.0" r="1" fill="blue" />
<text x="6230.0" y="576.0" font-size="12" text-anchor="middle" dominant-baseline="middle">1</text>
<circle cx="2740.0" cy="3289.0" r="1" fill="blue" />
<text x="2740.0" y="3289.0" font-size="12" text-anchor="middle" dominant-baseline="middle">2</text>
<circle cx="2979.0" cy="777.0" r="1" fill="blue" />
<text x="2979.0" y="777.0" font-size="12" text-anchor="middle" dominant-baseline="middle">3</text>
<circle cx="7770.0" cy="1221.0" r="1" fill="blue" />
<text x="7770.0" y="1221.0" font-size="12" text-anchor="middle" dominant-baseline="middle">4</text>
<circle cx="3703.0" cy="2298.0" r="1" fill="blue" />
<text x="3703.0" y="2298.0" font-size="12" text-anchor="middle" dominant-baseline="middle">5</text>
<circle cx="642.0" cy="2973.0" r="1" fill="blue" />
<text x="642.0" y="2973.0" font-size="12" text-anchor="middle" dominant-baseline="middle">6</text>
<circle cx="5714.0" cy="243.0" r="1" fill="blue" />
<text x="5714.0" y="243.0" font-size="12" text-anchor="middle" dominant-baseline="middle">7</text>
<circle cx="2499.0" cy="1049.0" r="1" fill="blue" />
<text x="2499.0" y="1049.0" font-size="12" text-anchor="middle" dominant-baseline="middle">8</text>
<circle cx="2979.0" cy="2083.0" r="1" fill="blue" />
<text x="2979.0" y="2083.0" font-size="12" text-anchor="middle" dominant-baseline="middle">9</text>
<circle cx="6196.0" cy="291.0" r="1" fill="blue" />
<text x="6196.0" y="291.0" font-size="12" text-anchor="middle" dominant-baseline="middle">10</text>
<circle cx="266.0" cy="2647.0" r="1" fill="blue" />
<text x="266.0" y="2647.0" font-size="12" text-anchor="middle" dominant-baseline="middle">11</text>
<circle cx="5432.0" cy="272.0" r="1" fill="blue" />
<text x="5432.0" y="272.0" font-size="12" text-anchor="middle" dominant-baseline="middle">12</text>
<circle cx="8052.0" cy="3117.0" r="1" fill="blue" />
<text x="8052.0" y="3117.0" font-size="12" text-anchor="middle" dominant-baseline="middle">13</text>
<circle cx="5617.0" cy="471.0" r="1" fill="blue" />
<text x="5617.0" y="471.0" font-size="12" text-anchor="middle" dominant-baseline="middle">14</text>
<circle cx="137.0" cy="2239.0" r="1" fill="blue" />
<text x="137.0" y="2239.0" font-size="12" text-anchor="middle" dominant-baseline="middle">15</text>
<circle cx="4411.0" cy="2989.0" r="1" fill="blue" />
<text x="4411.0" y="2989.0" font-size="12" text-anchor="middle" dominant-baseline="middle">16</text>
<circle cx="6296.0" cy="1429.0" r="1" fill="blue" />
<text x="6296.0" y="1429.0" font-size="12" text-anchor="middle" dominant-baseline="middle">17</text>
<circle cx="5661.0" cy="3174.0" r="1" fill="blue" />
<text x="5661.0" y="3174.0" font-size="12" text-anchor="middle" dominant-baseline="middle">18</text>
<circle cx="253.0" cy="3050.0" r="1" fill="blue" />
<text x="253.0" y="3050.0" font-size="12" text-anchor="middle" dominant-baseline="middle">19</text>
<circle cx="4493.0" cy="2517.0" r="1" fill="blue" />
<text x="4493.0" y="2517.0" font-size="12" text-anchor="middle" dominant-baseline="middle">20</text>
<circle cx="7317.0" cy="517.0" r="1" fill="blue" />
<text x="7317.0" y="517.0" font-size="12" text-anchor="middle" dominant-baseline="middle">21</text>
<circle cx="4075.0" cy="3016.0" r="1" fill="blue" />
<text x="4075.0" y="3016.0" font-size="12" text-anchor="middle" dominant-baseline="middle">22</text>
<circle cx="392.0" cy="822.0" r="1" fill="blue" />
<text x="392.0" y="822.0" font-size="12" text-anchor="middle" dominant-baseline="middle">23</text>
<circle cx="8326.0" cy="592.0" r="1" fill="blue" />
<text x="8326.0" y="592.0" font-size="12" text-anchor="middle" dominant-baseline="middle">24</text>
<circle cx="3259.0" cy="532.0" r="1" fill="blue" />
<text x="3259.0" y="532.0" font-size="12" text-anchor="middle" dominant-baseline="middle">25</text>
<circle cx="2818.0" cy="1755.0" r="1" fill="blue" />
<text x="2818.0" y="1755.0" font-size="12" text-anchor="middle" dominant-baseline="middle">26</text>
<circle cx="2622.0" cy="1128.0" r="1" fill="blue" />
<text x="2622.0" y="1128.0" font-size="12" text-anchor="middle" dominant-baseline="middle">27</text>
<circle cx="15.0" cy="3081.0" r="1" fill="blue" />
<text x="15.0" y="3081.0" font-size="12" text-anchor="middle" dominant-baseline="middle">28</text>
<circle cx="8222.0" cy="155.0" r="1" fill="blue" />
<text x="8222.0" y="155.0" font-size="12" text-anchor="middle" dominant-baseline="middle">29</text>
<circle cx="2504.0" cy="2058.0" r="1" fill="blue" />
<text x="2504.0" y="2058.0" font-size="12" text-anchor="middle" dominant-baseline="middle">30</text>
<circle cx="864.0" cy="2141.0" r="1" fill="blue" />
<text x="864.0" y="2141.0" font-size="12" text-anchor="middle" dominant-baseline="middle">31</text>
<circle cx="696.0" cy="522.0" r="1" fill="blue" />
<text x="696.0" y="522.0" font-size="12" text-anchor="middle" dominant-baseline="middle">32</text>
<circle cx="829.0" cy="3473.0" r="1" fill="blue" />
<text x="829.0" y="3473.0" font-size="12" text-anchor="middle" dominant-baseline="middle">33</text>
<circle cx="397.0" cy="2009.0" r="1" fill="blue" />
<text x="397.0" y="2009.0" font-size="12" text-anchor="middle" dominant-baseline="middle">34</text>
<circle cx="196.0" cy="3281.0" r="1" fill="blue" />
<text x="196.0" y="3281.0" font-size="12" text-anchor="middle" dominant-baseline="middle">35</text>
<circle cx="6595.0" cy="2683.0" r="1" fill="blue" />
<text x="6595.0" y="2683.0" font-size="12" text-anchor="middle" dominant-baseline="middle">36</text>
<circle cx="2931.0" cy="2779.0" r="1" fill="blue" />
<text x="2931.0" y="2779.0" font-size="12" text-anchor="middle" dominant-baseline="middle">37</text>
<circle cx="6295.0" cy="841.0" r="1" fill="blue" />
<text x="6295.0" y="841.0" font-size="12" text-anchor="middle" dominant-baseline="middle">38</text>
<circle cx="7563.0" cy="174.0" r="1" fill="blue" />
<text x="7563.0" y="174.0" font-size="12" text-anchor="middle" dominant-baseline="middle">39</text>
<circle cx="7907.0" cy="2081.0" r="1" fill="blue" />
<text x="7907.0" y="2081.0" font-size="12" text-anchor="middle" dominant-baseline="middle">40</text>
<circle cx="4538.0" cy="897.0" r="1" fill="blue" />
<text x="4538.0" y="897.0" font-size="12" text-anchor="middle" dominant-baseline="middle">41</text>
<circle cx="7176.0" cy="2261.0" r="1" fill="blue" />
<text x="7176.0" y="2261.0" font-size="12" text-anchor="middle" dominant-baseline="middle">42</text>
<circle cx="6266.0" cy="951.0" r="1" fill="blue" />
<text x="6266.0" y="951.0" font-size="12" text-anchor="middle" dominant-baseline="middle">43</text>
<circle cx="4604.0" cy="3077.0" r="1" fill="blue" />
<text x="4604.0" y="3077.0" font-size="12" text-anchor="middle" dominant-baseline="middle">44</text>
<circle cx="7189.0" cy="243.0" r="1" fill="blue" />
<text x="7189.0" y="243.0" font-size="12" text-anchor="middle" dominant-baseline="middle">45</text>
<circle cx="158.0" cy="2245.0" r="1" fill="blue" />
<text x="158.0" y="2245.0" font-size="12" text-anchor="middle" dominant-baseline="middle">46</text>
<circle cx="4015.0" cy="276.0" r="1" fill="blue" />
<text x="4015.0" y="276.0" font-size="12" text-anchor="middle" dominant-baseline="middle">47</text>
<circle cx="1008.0" cy="1724.0" r="1" fill="blue" />
<text x="1008.0" y="1724.0" font-size="12" text-anchor="middle" dominant-baseline="middle">48</text>
<circle cx="6849.0" cy="2944.0" r="1" fill="blue" />
<text x="6849.0" y="2944.0" font-size="12" text-anchor="middle" dominant-baseline="middle">49</text>
<circle cx="2777.0" cy="2050.0" r="1" fill="blue" />
<text x="2777.0" y="2050.0" font-size="12" text-anchor="middle" dominant-baseline="middle">50</text>
<circle cx="7162.0" cy="3582.0" r="1" fill="blue" />
<text x="7162.0" y="3582.0" font-size="12" text-anchor="middle" dominant-baseline="middle">51</text>
<circle cx="7600.0" cy="2925.0" r="1" fill="blue" />
<text x="7600.0" y="2925.0" font-size="12" text-anchor="middle" dominant-baseline="middle">52</text>
<circle cx="7295.0" cy="2334.0" r="1" fill="blue" />
<text x="7295.0" y="2334.0" font-size="12" text-anchor="middle" dominant-baseline="middle">53</text>
<circle cx="1876.0" cy="3075.0" r="1" fill="blue" />
<text x="1876.0" y="3075.0" font-size="12" text-anchor="middle" dominant-baseline="middle">54</text>
<circle cx="2783.0" cy="2722.0" r="1" fill="blue" />
<text x="2783.0" y="2722.0" font-size="12" text-anchor="middle" dominant-baseline="middle">55</text>
<circle cx="8254.0" cy="34.0" r="1" fill="blue" />
<text x="8254.0" y="34.0" font-size="12" text-anchor="middle" dominant-baseline="middle">56</text>
<circle cx="2689.0" cy="2858.0" r="1" fill="blue" />
<text x="2689.0" y="2858.0" font-size="12" text-anchor="middle" dominant-baseline="middle">57</text>
<circle cx="8031.0" cy="357.0" r="1" fill="blue" />
<text x="8031.0" y="357.0" font-size="12" text-anchor="middle" dominant-baseline="middle">58</text>
<circle cx="3395.0" cy="63.0" r="1" fill="blue" />
<text x="3395.0" y="63.0" font-size="12" text-anchor="middle" dominant-baseline="middle">59</text>
<circle cx="5804.0" cy="1849.0" r="1" fill="blue" />
<text x="5804.0" y="1849.0" font-size="12" text-anchor="middle" dominant-baseline="middle">60</text>
<circle cx="6686.0" cy="105.0" r="1" fill="blue" />
<text x="6686.0" y="105.0" font-size="12" text-anchor="middle" dominant-baseline="middle">61</text>
<circle cx="4966.0" cy="891.0" r="1" fill="blue" />
<text x="4966.0" y="891.0" font-size="12" text-anchor="middle" dominant-baseline="middle">62</text>
<circle cx="7494.0" cy="2513.0" r="1" fill="blue" />
<text x="7494.0" y="2513.0" font-size="12" text-anchor="middle" dominant-baseline="middle">63</text>
<circle cx="6377.0" cy="426.0" r="1" fill="blue" />
<text x="6377.0" y="426.0" font-size="12" text-anchor="middle" dominant-baseline="middle">64</text>
<circle cx="5819.0" cy="141.0" r="1" fill="blue" />
<text x="5819.0" y="141.0" font-size="12" text-anchor="middle" dominant-baseline="middle">65</text>
<circle cx="5042.0" cy="313.0" r="1" fill="blue" />
<text x="5042.0" y="313.0" font-size="12" text-anchor="middle" dominant-baseline="middle">66</text>
<circle cx="5934.0" cy="809.0" r="1" fill="blue" />
<text x="5934.0" y="809.0" font-size="12" text-anchor="middle" dominant-baseline="middle">67</text>
<circle cx="6919.0" cy="3351.0" r="1" fill="blue" />
<text x="6919.0" y="3351.0" font-size="12" text-anchor="middle" dominant-baseline="middle">68</text>
<circle cx="7245.0" cy="3021.0" r="1" fill="blue" />
<text x="7245.0" y="3021.0" font-size="12" text-anchor="middle" dominant-baseline="middle">69</text>
<circle cx="3235.0" cy="2050.0" r="1" fill="blue" />
<text x="3235.0" y="2050.0" font-size="12" text-anchor="middle" dominant-baseline="middle">70</text>
<circle cx="2886.0" cy="62.0" r="1" fill="blue" />
<text x="2886.0" y="62.0" font-size="12" text-anchor="middle" dominant-baseline="middle">71</text>
<circle cx="7600.0" cy="2413.0" r="1" fill="blue" />
<text x="7600.0" y="2413.0" font-size="12" text-anchor="middle" dominant-baseline="middle">72</text>
<circle cx="4488.0" cy="3083.0" r="1" fill="blue" />
<text x="4488.0" y="3083.0" font-size="12" text-anchor="middle" dominant-baseline="middle">73</text>
<circle cx="2344.0" cy="2658.0" r="1" fill="blue" />
<text x="2344.0" y="2658.0" font-size="12" text-anchor="middle" dominant-baseline="middle">74</text>
<circle cx="8299.0" cy="1372.0" r="1" fill="blue" />
<text x="8299.0" y="1372.0" font-size="12" text-anchor="middle" dominant-baseline="middle">75</text>
<circle cx="1346.0" cy="2649.0" r="1" fill="blue" />
<text x="1346.0" y="2649.0" font-size="12" text-anchor="middle" dominant-baseline="middle">76</text>
<circle cx="3162.0" cy="1910.0" r="1" fill="blue" />
<text x="3162.0" y="1910.0" font-size="12" text-anchor="middle" dominant-baseline="middle">77</text>
<circle cx="355.0" cy="1942.0" r="1" fill="blue" />
<text x="355.0" y="1942.0" font-size="12" text-anchor="middle" dominant-baseline="middle">78</text>
<circle cx="1439.0" cy="2779.0" r="1" fill="blue" />
<text x="1439.0" y="2779.0" font-size="12" text-anchor="middle" dominant-baseline="middle">79</text>
<circle cx="3374.0" cy="597.0" r="1" fill="blue" />
<text x="3374.0" y="597.0" font-size="12" text-anchor="middle" dominant-baseline="middle">80</text>
<circle cx="1057.0" cy="310.0" r="1" fill="blue" />
<text x="1057.0" y="310.0" font-size="12" text-anchor="middle" dominant-baseline="middle">81</text>
<circle cx="7626.0" cy="3160.0" r="1" fill="blue" />
<text x="7626.0" y="3160.0" font-size="12" text-anchor="middle" dominant-baseline="middle">82</text>
<circle cx="8002.0" cy="3410.0" r="1" fill="blue" />
<text x="8002.0" y="3410.0" font-size="12" text-anchor="middle" dominant-baseline="middle">83</text>
<circle cx="7608.0" cy="2533.0" r="1" fill="blue" />
<text x="7608.0" y="2533.0" font-size="12" text-anchor="middle" dominant-baseline="middle">84</text>
<circle cx="2262.0" cy="1447.0" r="1" fill="blue" />
<text x="2262.0" y="1447.0" font-size="12" text-anchor="middle" dominant-baseline="middle">85</text>
<circle cx="8335.0" cy="639.0" r="1" fill="blue" />
<text x="8335.0" y="639.0" font-size="12" text-anchor="middle" dominant-baseline="middle">86</text>
<circle cx="7808.0" cy="1317.0" r="1" fill="blue" />
<text x="7808.0" y="1317.0" font-size="12" text-anchor="middle" dominant-baseline="middle">87</text>
<circle cx="3152.0" cy="1529.0" r="1" fill="blue" />
<text x="3152.0" y="1529.0" font-size="12" text-anchor="middle" dominant-baseline="middle">88</text>
<circle cx="6583.0" cy="1396.0" r="1" fill="blue" />
<text x="6583.0" y="1396.0" font-size="12" text-anchor="middle" dominant-baseline="middle">89</text>
<circle cx="1705.0" cy="1766.0" r="1" fill="blue" />
<text x="1705.0" y="1766.0" font-size="12" text-anchor="middle" dominant-baseline="middle">90</text>
<circle cx="1884.0" cy="145.0" r="1" fill="blue" />
<text x="1884.0" y="145.0" font-size="12" text-anchor="middle" dominant-baseline="middle">91</text>
<circle cx="1810.0" cy="2963.0" r="1" fill="blue" />
<text x="1810.0" y="2963.0" font-size="12" text-anchor="middle" dominant-baseline="middle">92</text>
<circle cx="523.0" cy="2166.0" r="1" fill="blue" />
<text x="523.0" y="2166.0" font-size="12" text-anchor="middle" dominant-baseline="middle">93</text>
<circle cx="5122.0" cy="1475.0" r="1" fill="blue" />
<text x="5122.0" y="1475.0" font-size="12" text-anchor="middle" dominant-baseline="middle">94</text>
<circle cx="3328.0" cy="1310.0" r="1" fill="blue" />
<text x="3328.0" y="1310.0" font-size="12" text-anchor="middle" dominant-baseline="middle">95</text>
<circle cx="4973.0" cy="1539.0" r="1" fill="blue" />
<text x="4973.0" y="1539.0" font-size="12" text-anchor="middle" dominant-baseline="middle">96</text>
<circle cx="2998.0" cy="3525.0" r="1" fill="blue" />
<text x="2998.0" y="3525.0" font-size="12" text-anchor="middle" dominant-baseline="middle">97</text>
<circle cx="7607.0" cy="2003.0" r="1" fill="blue" />
<text x="7607.0" y="2003.0" font-size="12" text-anchor="middle" dominant-baseline="middle">98</text>
<circle cx="1990.0" cy="1844.0" r="1" fill="blue" />
<text x="1990.0" y="1844.0" font-size="12" text-anchor="middle" dominant-baseline="middle">99</text>
<circle cx="1896.0" cy="561.0" r="1" fill="blue" />
<text x="1896.0" y="561.0" font-size="12" text-anchor="middle" dominant-baseline="middle">100</text>
<circle cx="1850.0" cy="3057.0" r="1" fill="blue" />
<text x="1850.0" y="3057.0" font-size="12" text-anchor="middle" dominant-baseline="middle">101</text>
<circle cx="7884.0" cy="709.0" r="1" fill="blue" />
<text x="7884.0" y="709.0" font-size="12" text-anchor="middle" dominant-baseline="middle">102</text>
<circle cx="2095.0" cy="1763.0" r="1" fill="blue" />
<text x="2095.0" y="1763.0" font-size="12" text-anchor="middle" dominant-baseline="middle">103</text>
<circle cx="5501.0" cy="2370.0" r="1" fill="blue" />
<text x="5501.0" y="2370.0" font-size="12" text-anchor="middle" dominant-baseline="middle">104</text>
<circle cx="4937.0" cy="1179.0" r="1" fill="blue" />
<text x="4937.0" y="1179.0" font-size="12" text-anchor="middle" dominant-baseline="middle">105</text>
<circle cx="5550.0" cy="1500.0" r="1" fill="blue" />
<text x="5550.0" y="1500.0" font-size="12" text-anchor="middle" dominant-baseline="middle">106</text>
<circle cx="3866.0" cy="2217.0" r="1" fill="blue" />
<text x="3866.0" y="2217.0" font-size="12" text-anchor="middle" dominant-baseline="middle">107</text>
<circle cx="4357.0" cy="1269.0" r="1" fill="blue" />
<text x="4357.0" y="1269.0" font-size="12" text-anchor="middle" dominant-baseline="middle">108</text>
<circle cx="86.0" cy="1375.0" r="1" fill="blue" />
<text x="86.0" y="1375.0" font-size="12" text-anchor="middle" dominant-baseline="middle">109</text>
<circle cx="4171.0" cy="1720.0" r="1" fill="blue" />
<text x="4171.0" y="1720.0" font-size="12" text-anchor="middle" dominant-baseline="middle">110</text>
<circle cx="6401.0" cy="1390.0" r="1" fill="blue" />
<text x="6401.0" y="1390.0" font-size="12" text-anchor="middle" dominant-baseline="middle">111</text>
<circle cx="3007.0" cy="2280.0" r="1" fill="blue" />
<text x="3007.0" y="2280.0" font-size="12" text-anchor="middle" dominant-baseline="middle">112</text>
<circle cx="1487.0" cy="2032.0" r="1" fill="blue" />
<text x="1487.0" y="2032.0" font-size="12" text-anchor="middle" dominant-baseline="middle">113</text>
<circle cx="4172.0" cy="1860.0" r="1" fill="blue" />
<text x="4172.0" y="1860.0" font-size="12" text-anchor="middle" dominant-baseline="middle">114</text>
<circle cx="1811.0" cy="2916.0" r="1" fill="blue" />
<text x="1811.0" y="2916.0" font-size="12" text-anchor="middle" dominant-baseline="middle">115</text>
<circle cx="2946.0" cy="1956.0" r="1" fill="blue" />
<text x="2946.0" y="1956.0" font-size="12" text-anchor="middle" dominant-baseline="middle">116</text>
<circle cx="5936.0" cy="3394.0" r="1" fill="blue" />
<text x="5936.0" y="3394.0" font-size="12" text-anchor="middle" dominant-baseline="middle">117</text>
<circle cx="7167.0" cy="2463.0" r="1" fill="blue" />
<text x="7167.0" y="2463.0" font-size="12" text-anchor="middle" dominant-baseline="middle">118</text>
<circle cx="6497.0" cy="3593.0" r="1" fill="blue" />
<text x="6497.0" y="3593.0" font-size="12" text-anchor="middle" dominant-baseline="middle">119</text>
<circle cx="3792.0" cy="2151.0" r="1" fill="blue" />
<text x="3792.0" y="2151.0" font-size="12" text-anchor="middle" dominant-baseline="middle">120</text>
<circle cx="2822.0" cy="255.0" r="1" fill="blue" />
<text x="2822.0" y="255.0" font-size="12" text-anchor="middle" dominant-baseline="middle">121</text>
<circle cx="3599.0" cy="1680.0" r="1" fill="blue" />
<text x="3599.0" y="1680.0" font-size="12" text-anchor="middle" dominant-baseline="middle">122</text>
<circle cx="893.0" cy="480.0" r="1" fill="blue" />
<text x="893.0" y="480.0" font-size="12" text-anchor="middle" dominant-baseline="middle">123</text>
<circle cx="322.0" cy="322.0" r="1" fill="blue" />
<text x="322.0" y="322.0" font-size="12" text-anchor="middle" dominant-baseline="middle">124</text>
<circle cx="8400.0" cy="994.0" r="1" fill="blue" />
<text x="8400.0" y="994.0" font-size="12" text-anchor="middle" dominant-baseline="middle">125</text>
<circle cx="1853.0" cy="2196.0" r="1" fill="blue" />
<text x="1853.0" y="2196.0" font-size="12" text-anchor="middle" dominant-baseline="middle">126</text>
<circle cx="2974.0" cy="2313.0" r="1" fill="blue" />
<text x="2974.0" y="2313.0" font-size="12" text-anchor="middle" dominant-baseline="middle">127</text>
<circle cx="8176.0" cy="1630.0" r="1" fill="blue" />
<text x="8176.0" y="1630.0" font-size="12" text-anchor="middle" dominant-baseline="middle">128</text>
<circle cx="1176.0" cy="1414.0" r="1" fill="blue" />
<text x="1176.0" y="1414.0" font-size="12" text-anchor="middle" dominant-baseline="middle">129</text>
<circle cx="792.0" cy="1983.0" r="1" fill="blue" />
<text x="792.0" y="1983.0" font-size="12" text-anchor="middle" dominant-baseline="middle">130</text>
<circle cx="4753.0" cy="2131.0" r="1" fill="blue" />
<text x="4753.0" y="2131.0" font-size="12" text-anchor="middle" dominant-baseline="middle">131</text>
<circle cx="6141.0" cy="582.0" r="1" fill="blue" />
<text x="6141.0" y="582.0" font-size="12" text-anchor="middle" dominant-baseline="middle">132</text>
<circle cx="4887.0" cy="3287.0" r="1" fill="blue" />
<text x="4887.0" y="3287.0" font-size="12" text-anchor="middle" dominant-baseline="middle">133</text>
<circle cx="8469.0" cy="3162.0" r="1" fill="blue" />
<text x="8469.0" y="3162.0" font-size="12" text-anchor="middle" dominant-baseline="middle">134</text>
<circle cx="3480.0" cy="1287.0" r="1" fill="blue" />
<text x="3480.0" y="1287.0" font-size="12" text-anchor="middle" dominant-baseline="middle">135</text>
<circle cx="3017.0" cy="1739.0" r="1" fill="blue" />
<text x="3017.0" y="1739.0" font-size="12" text-anchor="middle" dominant-baseline="middle">136</text>
<circle cx="4234.0" cy="2586.0" r="1" fill="blue" />
<text x="4234.0" y="2586.0" font-size="12" text-anchor="middle" dominant-baseline="middle">137</text>
<circle cx="7451.0" cy="863.0" r="1" fill="blue" />
<text x="7451.0" y="863.0" font-size="12" text-anchor="middle" dominant-baseline="middle">138</text>
<circle cx="2002.0" cy="2518.0" r="1" fill="blue" />
<text x="2002.0" y="2518.0" font-size="12" text-anchor="middle" dominant-baseline="middle">139</text>
<circle cx="5311.0" cy="842.0" r="1" fill="blue" />
<text x="5311.0" y="842.0" font-size="12" text-anchor="middle" dominant-baseline="middle">140</text>
<circle cx="7658.0" cy="907.0" r="1" fill="blue" />
<text x="7658.0" y="907.0" font-size="12" text-anchor="middle" dominant-baseline="middle">141</text>
<circle cx="392.0" cy="6.0" r="1" fill="blue" />
<text x="392.0" y="6.0" font-size="12" text-anchor="middle" dominant-baseline="middle">142</text>
<circle cx="5298.0" cy="1502.0" r="1" fill="blue" />
<text x="5298.0" y="1502.0" font-size="12" text-anchor="middle" dominant-baseline="middle">143</text>
<circle cx="3018.0" cy="1692.0" r="1" fill="blue" />
<text x="3018.0" y="1692.0" font-size="12" text-anchor="middle" dominant-baseline="middle">144</text>
<circle cx="4466.0" cy="2999.0" r="1" fill="blue" />
<text x="4466.0" y="2999.0" font-size="12" text-anchor="middle" dominant-baseline="middle">145</text>
<circle cx="1203.0" cy="2713.0" r="1" fill="blue" />
<text x="1203.0" y="2713.0" font-size="12" text-anchor="middle" dominant-baseline="middle">146</text>
<circle cx="4200.0" cy="2093.0" r="1" fill="blue" />
<text x="4200.0" y="2093.0" font-size="12" text-anchor="middle" dominant-baseline="middle">147</text>
<circle cx="8130.0" cy="488.0" r="1" fill="blue" />
<text x="8130.0" y="488.0" font-size="12" text-anchor="middle" dominant-baseline="middle">148</text>
<circle cx="3601.0" cy="47.0" r="1" fill="blue" />
<text x="3601.0" y="47.0" font-size="12" text-anchor="middle" dominant-baseline="middle">149</text>
<circle cx="540.0" cy="2378.0" r="1" fill="blue" />
<text x="540.0" y="2378.0" font-size="12" text-anchor="middle" dominant-baseline="middle">150</text>
<circle cx="2555.0" cy="3012.0" r="1" fill="blue" />
<text x="2555.0" y="3012.0" font-size="12" text-anchor="middle" dominant-baseline="middle">151</text>
<circle cx="6798.0" cy="1330.0" r="1" fill="blue" />
<text x="6798.0" y="1330.0" font-size="12" text-anchor="middle" dominant-baseline="middle">152</text>
<circle cx="4833.0" cy="2447.0" r="1" fill="blue" />
<text x="4833.0" y="2447.0" font-size="12" text-anchor="middle" dominant-baseline="middle">153</text>
<circle cx="7190.0" cy="1701.0" r="1" fill="blue" />
<text x="7190.0" y="1701.0" font-size="12" text-anchor="middle" dominant-baseline="middle">154</text>
<circle cx="2757.0" cy="2743.0" r="1" fill="blue" />
<text x="2757.0" y="2743.0" font-size="12" text-anchor="middle" dominant-baseline="middle">155</text>
<circle cx="4570.0" cy="696.0" r="1" fill="blue" />
<text x="4570.0" y="696.0" font-size="12" text-anchor="middle" dominant-baseline="middle">156</text>
<circle cx="5623.0" cy="3267.0" r="1" fill="blue" />
<text x="5623.0" y="3267.0" font-size="12" text-anchor="middle" dominant-baseline="middle">157</text>
<circle cx="5556.0" cy="2154.0" r="1" fill="blue" />
<text x="5556.0" y="2154.0" font-size="12" text-anchor="middle" dominant-baseline="middle">158</text>
<circle cx="250.0" cy="1546.0" r="1" fill="blue" />
<text x="250.0" y="1546.0" font-size="12" text-anchor="middle" dominant-baseline="middle">159</text>
<circle cx="3459.0" cy="2551.0" r="1" fill="blue" />
<text x="3459.0" y="2551.0" font-size="12" text-anchor="middle" dominant-baseline="middle">160</text>
<circle cx="5214.0" cy="2232.0" r="1" fill="blue" />
<text x="5214.0" y="2232.0" font-size="12" text-anchor="middle" dominant-baseline="middle">161</text>
<circle cx="5929.0" cy="3487.0" r="1" fill="blue" />
<text x="5929.0" y="3487.0" font-size="12" text-anchor="middle" dominant-baseline="middle">162</text>
<circle cx="3120.0" cy="1915.0" r="1" fill="blue" />
<text x="3120.0" y="1915.0" font-size="12" text-anchor="middle" dominant-baseline="middle">163</text>
<circle cx="3360.0" cy="2671.0" r="1" fill="blue" />
<text x="3360.0" y="2671.0" font-size="12" text-anchor="middle" dominant-baseline="middle">164</text>
<circle cx="3107.0" cy="3166.0" r="1" fill="blue" />
<text x="3107.0" y="3166.0" font-size="12" text-anchor="middle" dominant-baseline="middle">165</text>
<circle cx="3770.0" cy="591.0" r="1" fill="blue" />
<text x="3770.0" y="591.0" font-size="12" text-anchor="middle" dominant-baseline="middle">166</text>
<circle cx="671.0" cy="1676.0" r="1" fill="blue" />
<text x="671.0" y="1676.0" font-size="12" text-anchor="middle" dominant-baseline="middle">167</text>
<circle cx="3671.0" cy="658.0" r="1" fill="blue" />
<text x="3671.0" y="658.0" font-size="12" text-anchor="middle" dominant-baseline="middle">168</text>
<circle cx="7086.0" cy="3497.0" r="1" fill="blue" />
<text x="7086.0" y="3497.0" font-size="12" text-anchor="middle" dominant-baseline="middle">169</text>
<circle cx="3864.0" cy="539.0" r="1" fill="blue" />
<text x="3864.0" y="539.0" font-size="12" text-anchor="middle" dominant-baseline="middle">170</text>
<circle cx="5593.0" cy="2174.0" r="1" fill="blue" />
<text x="5593.0" y="2174.0" font-size="12" text-anchor="middle" dominant-baseline="middle">171</text>
<circle cx="8279.0" cy="545.0" r="1" fill="blue" />
<text x="8279.0" y="545.0" font-size="12" text-anchor="middle" dominant-baseline="middle">172</text>
<circle cx="6774.0" cy="1352.0" r="1" fill="blue" />
<text x="6774.0" y="1352.0" font-size="12" text-anchor="middle" dominant-baseline="middle">173</text>
<circle cx="3540.0" cy="1417.0" r="1" fill="blue" />
<text x="3540.0" y="1417.0" font-size="12" text-anchor="middle" dominant-baseline="middle">174</text>
<circle cx="1992.0" cy="1734.0" r="1" fill="blue" />
<text x="1992.0" y="1734.0" font-size="12" text-anchor="middle" dominant-baseline="middle">175</text>
<circle cx="2736.0" cy="204.0" r="1" fill="blue" />
<text x="2736.0" y="204.0" font-size="12" text-anchor="middle" dominant-baseline="middle">176</text>
<circle cx="1288.0" cy="3402.0" r="1" fill="blue" />
<text x="1288.0" y="3402.0" font-size="12" text-anchor="middle" dominant-baseline="middle">177</text>
<circle cx="1680.0" cy="707.0" r="1" fill="blue" />
<text x="1680.0" y="707.0" font-size="12" text-anchor="middle" dominant-baseline="middle">178</text>
<circle cx="2998.0" cy="1373.0" r="1" fill="blue" />
<text x="2998.0" y="1373.0" font-size="12" text-anchor="middle" dominant-baseline="middle">179</text>
<circle cx="5858.0" cy="3460.0" r="1" fill="blue" />
<text x="5858.0" y="3460.0" font-size="12" text-anchor="middle" dominant-baseline="middle">180</text>
<circle cx="5135.0" cy="1056.0" r="1" fill="blue" />
<text x="5135.0" y="1056.0" font-size="12" text-anchor="middle" dominant-baseline="middle">181</text>
<circle cx="7728.0" cy="1003.0" r="1" fill="blue" />
<text x="7728.0" y="1003.0" font-size="12" text-anchor="middle" dominant-baseline="middle">182</text>
<circle cx="3385.0" cy="1419.0" r="1" fill="blue" />
<text x="3385.0" y="1419.0" font-size="12" text-anchor="middle" dominant-baseline="middle">183</text>
<circle cx="3980.0" cy="754.0" r="1" fill="blue" />
<text x="3980.0" y="754.0" font-size="12" text-anchor="middle" dominant-baseline="middle">184</text>
<circle cx="1061.0" cy="3103.0" r="1" fill="blue" />
<text x="1061.0" y="3103.0" font-size="12" text-anchor="middle" dominant-baseline="middle">185</text>
<circle cx="8390.0" cy="1096.0" r="1" fill="blue" />
<text x="8390.0" y="1096.0" font-size="12" text-anchor="middle" dominant-baseline="middle">186</text>
<circle cx="5277.0" cy="3530.0" r="1" fill="blue" />
<text x="5277.0" y="3530.0" font-size="12" text-anchor="middle" dominant-baseline="middle">187</text>
<circle cx="950.0" cy="860.0" r="1" fill="blue" />
<text x="950.0" y="860.0" font-size="12" text-anchor="middle" dominant-baseline="middle">188</text>
<circle cx="2228.0" cy="254.0" r="1" fill="blue" />
<text x="2228.0" y="254.0" font-size="12" text-anchor="middle" dominant-baseline="middle">189</text>
<circle cx="1569.0" cy="766.0" r="1" fill="blue" />
<text x="1569.0" y="766.0" font-size="12" text-anchor="middle" dominant-baseline="middle">190</text>
<circle cx="803.0" cy="731.0" r="1" fill="blue" />
<text x="803.0" y="731.0" font-size="12" text-anchor="middle" dominant-baseline="middle">191</text>
<circle cx="4291.0" cy="2244.0" r="1" fill="blue" />
<text x="4291.0" y="2244.0" font-size="12" text-anchor="middle" dominant-baseline="middle">192</text>
<circle cx="6194.0" cy="64.0" r="1" fill="blue" />
<text x="6194.0" y="64.0" font-size="12" text-anchor="middle" dominant-baseline="middle">193</text>
<circle cx="8197.0" cy="865.0" r="1" fill="blue" />
<text x="8197.0" y="865.0" font-size="12" text-anchor="middle" dominant-baseline="middle">194</text>
<circle cx="6863.0" cy="1988.0" r="1" fill="blue" />
<text x="6863.0" y="1988.0" font-size="12" text-anchor="middle" dominant-baseline="middle">195</text>
<circle cx="6556.0" cy="2997.0" r="1" fill="blue" />
<text x="6556.0" y="2997.0" font-size="12" text-anchor="middle" dominant-baseline="middle">196</text>
<circle cx="2977.0" cy="1296.0" r="1" fill="blue" />
<text x="2977.0" y="1296.0" font-size="12" text-anchor="middle" dominant-baseline="middle">197</text>
<circle cx="1431.0" cy="2685.0" r="1" fill="blue" />
<text x="1431.0" y="2685.0" font-size="12" text-anchor="middle" dominant-baseline="middle">198</text>
<circle cx="992.0" cy="2578.0" r="1" fill="blue" />
<text x="992.0" y="2578.0" font-size="12" text-anchor="middle" dominant-baseline="middle">199</text>
<circle cx="10.0" cy="10.0" r="10" fill="none" stroke="green" />
<circle cx="10.0" cy="10.0" r="5" fill="red" />
<text x="10.0" y="10.0" font-size="12" text-anchor="middle" dominant-baseline="middle">0-0</text>
<circle cx="20.0" cy="10.0" r="10" fill="none" stroke="green" />
<circle cx="20.0" cy="10.0" r="5" fill="red" />
<text x="20.0" y="10.0" font-size="12" text-anchor="middle" dominant-baseline="middle">1-1</text>
<circle cx="30.0" cy="10.0" r="10" fill="none" stroke="green" />
<circle cx="30.0" cy="10.0" r="5" fill="red" />
<text x="30.0" y="10.0" font-size="12" text-anchor="middle" dominant-baseline="middle">2-2</text>
<circle cx="40.0" cy="10.0" r="10" fill="none" stroke="green" />
<circle cx="40.0" cy="10.0" r="5" fill="red" />
<text x="40.0" y="10.0" font-size="12" text-anchor="middle" dominant-baseline="middle">3-3</text>
<circle cx="50.0" cy="10.0" r="10" fill="none" stroke="green" />
<circle cx="50.0" cy="10.0" r="5" fill="red" />
<text x="50.0" y="10.0" font-size="12" text-anchor="middle" dominant-baseline="middle">4-4</text>
<circle cx="60.0" cy="10.0" r="10" fill="none" stroke="green" />
<circle cx="60.0" cy="10.0" r="5" fill="red" />
<text x="60.0" y="10.0" font-size="12" text-anchor="middle" dominant-baseline="middle">5-5</text>
<circle cx="70.0" cy="10.0" r="10" fill="none" stroke="green" />
<circle cx="70.0" cy="10.0" r="5" fill="red" />
<text x="70.0" y="10.0" font-size="12" text-anchor="middle" dominant-baseline="middle">6-6</text>
<circle cx="80.0" cy="10.0" r="10" fill="none" stroke="green" />
<circle cx="80.0" cy="10.0" r="5" fill="red" />
<text x="80.0" y="10.0" font-size="12" text-anchor="middle" dominant-baseline="middle">7-5</text>
<circle cx="90.0" cy="10.0" r="10" fill="none" stroke="green" />
<circle cx="90.0" cy="10.0" r="5" fill="red" />
<text x="90.0" y="10.0" font-size="12" text-anchor="middle" dominant-baseline="middle">8-2</text>
<circle cx="100.0" cy="10.0" r="10" fill="none" stroke="green" />
<circle cx="100.0" cy="10.0" r="5" fill="red" />
<text x="100.0" y="10.0" font-size="12" text-anchor="middle" dominant-baseline="middle">9-6</text>
<circle cx="110.0" cy="10.0" r="10" fill="none" stroke="green" />
<circle cx="110.0" cy="10.0" r="5" fill="red" />
<text x="110.0" y="10.0" font-size="12" text-anchor="middle" dominant-baseline="middle">10-3</text>
<circle cx="120.0" cy="10.0" r="10" fill="none" stroke="green" />
<circle cx="120.0" cy="10.0" r="5" fill="red" />
<text x="120.0" y="10.0" font-size="12" text-anchor="middle" dominant-baseline="middle">11-1</text>
<circle cx="130.0" cy="10.0" r="10" fill="none" stroke="green" />
<circle cx="130.0" cy="10.0" r="5" fill="red" />
<text x="130.0" y="10.0" font-size="12" text-anchor="middle" dominant-baseline="middle">12-4</text>
<circle cx="140.0" cy="10.0" r="10" fill="none" stroke="green" />
<circle cx="140.0" cy="10.0" r="5" fill="red" />
<text x="140.0" y="10.0" font-size="12" text-anchor="middle" dominant-baseline="middle">13-0</text>
<circle cx="150.0" cy="10.0" r="10" fill="none" stroke="green" />
<circle cx="150.0" cy="10.0" r="5" fill="red" />
<text x="150.0" y="10.0" font-size="12" text-anchor="middle" dominant-baseline="middle">14-0</text>
<circle cx="160.0" cy="10.0" r="10" fill="none" stroke="green" />
<circle cx="160.0" cy="10.0" r="5" fill="red" />
<text x="160.0" y="10.0" font-size="12" text-anchor="middle" dominant-baseline="middle">15-5</text>
<circle cx="170.0" cy="10.0" r="10" fill="none" stroke="green" />
<circle cx="170.0" cy="10.0" r="5" fill="red" />
<text x="170.0" y="10.0" font-size="12" text-anchor="middle" dominant-baseline="middle">16-3</text>
<circle cx="180.0" cy="10.0" r="10" fill="none" stroke="green" />
<circle cx="180.0" cy="10.0" r="5" fill="red" />
<text x="180.0" y="10.0" font-size="12" text-anchor="middle" dominant-baseline="middle">17-4</text>
<circle cx="190.0" cy="10.0" r="10" fill="none" stroke="green" />
<circle cx="190.0" cy="10.0" r="5" fill="red" />
<text x="190.0" y="10.0" font-size="12" text-anchor="middle" dominant-baseline="middle">18-1</text>
<circle cx="200.0" cy="10.0" r="10" fill="none" stroke="green" />
<circle cx="200.0" cy="10.0" r="5" fill="red" />
<text x="200.0" y="10.0" font-size="12" text-anchor="middle" dominant-baseline="middle">19-1</text>
<circle cx="10.0" cy="20.0" r="10" fill="none" stroke="green" />
<circle cx="10.0" cy="20.0" r="5" fill="red" />
<text x="10.0" y="20.0" font-size="12" text-anchor="middle" dominant-baseline="middle">20-6</text>
<circle cx="20.0" cy="20.0" r="10" fill="none" stroke="green" />
<circle cx="20.0" cy="20.0" r="5" fill="red" />
<text x="20.0" y="20.0" font-size="12" text-anchor="middle" dominant-baseline="middle">21-3</text>
<circle cx="30.0" cy="20.0" r="10" fill="none" stroke="green" />
<circle cx="30.0" cy="20.0" r="5" fill="red" />
<text x="30.0" y="20.0" font-size="12" text-anchor="middle" dominant-baseline="middle">22-1</text>
<circle cx="40.0" cy="20.0" r="10" fill="none" stroke="green" />
<circle cx="40.0" cy="20.0" r="5" fill="red" />
<text x="40.0" y="20.0" font-size="12" text-anchor="middle" dominant-baseline="middle">23-4</text>
<circle cx="50.0" cy="20.0" r="10" fill="none" stroke="green" />
<circle cx="50.0" cy="20.0" r="5" fill="red" />
<text x="50.0" y="20.0" font-size="12" text-anchor="middle" dominant-baseline="middle">24-2</text>
<circle cx="60.0" cy="20.0" r="10" fill="none" stroke="green" />
<circle cx="60.0" cy="20.0" r="5" fill="red" />
<text x="60.0" y="20.0" font-size="12" text-anchor="middle" dominant-baseline="middle">25-2</text>
<circle cx="70.0" cy="20.0" r="10" fill="none" stroke="green" />
<circle cx="70.0" cy="20.0" r="5" fill="red" />
<text x="70.0" y="20.0" font-size="12" text-anchor="middle" dominant-baseline="middle">26-6</text>
<circle cx="80.0" cy="20.0" r="10" fill="none" stroke="green" />
<circle cx="80.0" cy="20.0" r="5" fill="red" />
<text x="80.0" y="20.0" font-size="12" text-anchor="middle" dominant-baseline="middle">27-5</text>
<circle cx="90.0" cy="20.0" r="10" fill="none" stroke="green" />
<circle cx="90.0" cy="20.0" r="5" fill="red" />
<text x="90.0" y="20.0" font-size="12" text-anchor="middle" dominant-baseline="middle">28-2</text>
<circle cx="100.0" cy="20.0" r="10" fill="none" stroke="green" />
<circle cx="100.0" cy="20.0" r="5" fill="red" />
<text x="100.0" y="20.0" font-size="12" text-anchor="middle" dominant-baseline="middle">29-4</text>
<circle cx="110.0" cy="20.0" r="10" fill="none" stroke="green" />
<circle cx="110.0" cy="20.0" r="5" fill="red" />
<text x="110.0" y="20.0" font-size="12" text-anchor="middle" dominant-baseline="middle">30-2</text>
<circle cx="120.0" cy="20.0" r="10" fill="none" stroke="green" />
<circle cx="120.0" cy="20.0" r="5" fill="red" />
<text x="120.0" y="20.0" font-size="12" text-anchor="middle" dominant-baseline="middle">31-5</text>
<circle cx="130.0" cy="20.0" r="10" fill="none" stroke="green" />
<circle cx="130.0" cy="20.0" r="5" fill="red" />
<text x="130.0" y="20.0" font-size="12" text-anchor="middle" dominant-baseline="middle">32-0</text>
<circle cx="140.0" cy="20.0" r="10" fill="none" stroke="green" />
<circle cx="140.0" cy="20.0" r="5" fill="red" />
<text x="140.0" y="20.0" font-size="12" text-anchor="middle" dominant-baseline="middle">33-6</text>
<circle cx="150.0" cy="20.0" r="10" fill="none" stroke="green" />
<circle cx="150.0" cy="20.0" r="5" fill="red" />
<text x="150.0" y="20.0" font-size="12" text-anchor="middle" dominant-baseline="middle">34-3</text>
<circle cx="160.0" cy="20.0" r="10" fill="none" stroke="green" />
<circle cx="160.0" cy="20.0" r="5" fill="red" />
<text x="160.0" y="20.0" font-size="12" text-anchor="middle" dominant-baseline="middle">35-2</text>
<circle cx="170.0" cy="20.0" r="10" fill="none" stroke="green" />
<circle cx="170.0" cy="20.0" r="5" fill="red" />
<text x="170.0" y="20.0" font-size="12" text-anchor="middle" dominant-baseline="middle">36-6</text>
<circle cx="180.0" cy="20.0" r="10" fill="none" stroke="green" />
<circle cx="180.0" cy="20.0" r="5" fill="red" />
<text x="180.0" y="20.0" font-size="12" text-anchor="middle" dominant-baseline="middle">37-5</text>
</svg>