<?xml version="1.0" encoding="UTF-8"?>
<svg xmlns="http://www.w3.org/2000/svg" xmlns:xlink="http://www.w3.org/1999/xlink"
     width="5144.0" height="3291.0" viewBox="0 0 5144.0 3291.0">
<defs>
</defs>
<rect x="0" y="0" width="5144.0" height="3291.0" fill="none" stroke="black" stroke-opacity="0.5" />
<rect x="0.0" y="0.0" width="1611.0" height="801.0" fill="none" stroke="red" />
<circle cx="2603.0" cy="1140.0" r="1" fill="blue" />
<text x="2603.0" y="1140.0" font-size="12" text-anchor="middle" dominant-baseline="middle">0</text>
<circle cx="2887.0" cy="197.0" r="1" fill="blue" />
<text x="2887.0" y="197.0" font-size="12" text-anchor="middle" dominant-baseline="middle">1</text>
<circle cx="1999.0" cy="2791.0" r="1" fill="blue" />
<text x="1999.0" y="2791.0" font-size="12" text-anchor="middle" dominant-baseline="middle">2</text>
<circle cx="4925.0" cy="1332.0" r="1" fill="blue" />
<text x="4925.0" y="1332.0" font-size="12" text-anchor="middle" dominant-baseline="middle">3</text>
<circle cx="3366.0" cy="1690.0" r="1" fill="blue" />
<text x="3366.0" y="1690.0" font-size="12" text-anchor="middle" dominant-baseline="middle">4</text>
<circle cx="2245.0" cy="2756.0" r="1" fill="blue" />
<text x="2245.0" y="2756.0" font-size="12" text-anchor="middle" dominant-baseline="middle">5</text>
<circle cx="4016.0" cy="105.0" r="1" fill="blue" />
<text x="4016.0" y="105.0" font-size="12" text-anchor="middle" dominant-baseline="middle">6</text>
<circle cx="1605.0" cy="1554.0" r="1" fill="blue" />
<text x="1605.0" y="1554.0" font-size="12" text-anchor="middle" dominant-baseline="middle">7</text>
<circle cx="3168.0" cy="1418.0" r="1" fill="blue" />
<text x="3168.0" y="1418.0" font-size="12" text-anchor="middle" dominant-baseline="middle">8</text>
<circle cx="2892.0" cy="83.0" r="1" fill="blue" />
<text x="2892.0" y="83.0" font-size="12" text-anchor="middle" dominant-baseline="middle">9</text>
<circle cx="2391.0" cy="2573.0" r="1" fill="blue" />
<text x="2391.0" y="2573.0" font-size="12" text-anchor="middle" dominant-baseline="middle">10</text>
<circle cx="941.0" cy="2183.0" r="1" fill="blue" />
<text x="941.0" y="2183.0" font-size="12" text-anchor="middle" dominant-baseline="middle">11</text>
<circle cx="406.0" cy="1645.0" r="1" fill="blue" />
<text x="406.0" y="1645.0" font-size="12" text-anchor="middle" dominant-baseline="middle">12</text>
<circle cx="3111.0" cy="2758.0" r="1" fill="blue" />
<text x="3111.0" y="2758.0" font-size="12" text-anchor="middle" dominant-baseline="middle">13</text>
<circle cx="2350.0" cy="1558.0" r="1" fill="blue" />
<text x="2350.0" y="1558.0" font-size="12" text-anchor="middle" dominant-baseline="middle">14</text>
<circle cx="2760.0" cy="1602.0" r="1" fill="blue" />
<text x="2760.0" y="1602.0" font-size="12" text-anchor="middle" dominant-baseline="middle">15</text>
<circle cx="762.0" cy="3234.0" r="1" fill="blue" />
<text x="762.0" y="3234.0" font-size="12" text-anchor="middle" dominant-baseline="middle">16</text>
<circle cx="3784.0" cy="3009.0" r="1" fill="blue" />
<text x="3784.0" y="3009.0" font-size="12" text-anchor="middle" dominant-baseline="middle">17</text>
<circle cx="972.0" cy="2793.0" r="1" fill="blue" />
<text x="972.0" y="2793.0" font-size="12" text-anchor="middle" dominant-baseline="middle">18</text>
<circle cx="614.0" cy="949.0" r="1" fill="blue" />
<text x="614.0" y="949.0" font-size="12" text-anchor="middle" dominant-baseline="middle">19</text>
<circle cx="1975.0" cy="3054.0" r="1" fill="blue" />
<text x="1975.0" y="3054.0" font-size="12" text-anchor="middle" dominant-baseline="middle">20</text>
<circle cx="2541.0" cy="2093.0" r="1" fill="blue" />
<text x="2541.0" y="2093.0" font-size="12" text-anchor="middle" dominant-baseline="middle">21</text>
<circle cx="2703.0" cy="1386.0" r="1" fill="blue" />
<text x="2703.0" y="1386.0" font-size="12" text-anchor="middle" dominant-baseline="middle">22</text>
<circle cx="454.0" cy="3136.0" r="1" fill="blue" />
<text x="454.0" y="3136.0" font-size="12" text-anchor="middle" dominant-baseline="middle">23</text>
<circle cx="1943.0" cy="3105.0" r="1" fill="blue" />
<text x="1943.0" y="3105.0" font-size="12" text-anchor="middle" dominant-baseline="middle">24</text>
<circle cx="4129.0" cy="68.0" r="1" fill="blue" />
<text x="4129.0" y="68.0" font-size="12" text-anchor="middle" dominant-baseline="middle">25</text>
<circle cx="227.0" cy="2674.0" r="1" fill="blue" />
<text x="227.0" y="2674.0" font-size="12" text-anchor="middle" dominant-baseline="middle">26</text>
<circle cx="1081.0" cy="1581.0" r="1" fill="blue" />
<text x="1081.0" y="1581.0" font-size="12" text-anchor="middle" dominant-baseline="middle">27</text>
<circle cx="2261.0" cy="994.0" r="1" fill="blue" />
<text x="2261.0" y="994.0" font-size="12" text-anchor="middle" dominant-baseline="middle">28</text>
<circle cx="3808.0" cy="1832.0" r="1" fill="blue" />
<text x="3808.0" y="1832.0" font-size="12" text-anchor="middle" dominant-baseline="middle">29</text>
<circle cx="3388.0" cy="1640.0" r="1" fill="blue" />
<text x="3388.0" y="1640.0" font-size="12" text-anchor="middle" dominant-baseline="middle">30</text>
<circle cx="3025.0" cy="2693.0" r="1" fill="blue" />
<text x="3025.0" y="2693.0" font-size="12" text-anchor="middle" dominant-baseline="middle">31</text>
<circle cx="4261.0" cy="1257.0" r="1" fill="blue" />
<text x="4261.0" y="1257.0" font-size="12" text-anchor="middle" dominant-baseline="middle">32</text>
<circle cx="3790.0" cy="2981.0" r="1" fill="blue" />
<text x="3790.0" y="2981.0" font-size="12" text-anchor="middle" dominant-baseline="middle">33</text>
<circle cx="3632.0" cy="269.0" r="1" fill="blue" />
<text x="3632.0" y="269.0" font-size="12" text-anchor="middle" dominant-baseline="middle">34</text>
<circle cx="3550.0" cy="1597.0" r="1" fill="blue" />
<text x="3550.0" y="1597.0" font-size="12" text-anchor="middle" dominant-baseline="middle">35</text>
<circle cx="2700.0" cy="2074.0" r="1" fill="blue" />
<text x="2700.0" y="2074.0" font-size="12" text-anchor="middle" dominant-baseline="middle">36</text>
<circle cx="2085.0" cy="257.0" r="1" fill="blue" />
<text x="2085.0" y="257.0" font-size="12" text-anchor="middle" dominant-baseline="middle">37</text>
<circle cx="5117.0" cy="153.0" r="1" fill="blue" />
<text x="5117.0" y="153.0" font-size="12" text-anchor="middle" dominant-baseline="middle">38</text>
<circle cx="1506.0" cy="1332.0" r="1" fill="blue" />
<text x="1506.0" y="1332.0" font-size="12" text-anchor="middle" dominant-baseline="middle">39</text>
<circle cx="3007.0" cy="1352.0" r="1" fill="blue" />
<text x="3007.0" y="1352.0" font-size="12" text-anchor="middle" dominant-baseline="middle">40</text>
<circle cx="2587.0" cy="1917.0" r="1" fill="blue" />
<text x="2587.0" y="1917.0" font-size="12" text-anchor="middle" dominant-baseline="middle">41</text>
<circle cx="2097.0" cy="1219.0" r="1" fill="blue" />
<text x="2097.0" y="1219.0" font-size="12" text-anchor="middle" dominant-baseline="middle">42</text>
<circle cx="4900.0" cy="323.0" r="1" fill="blue" />
<text x="4900.0" y="323.0" font-size="12" text-anchor="middle" dominant-baseline="middle">43</text>
<circle cx="3884.0" cy="334.0" r="1" fill="blue" />
<text x="3884.0" y="334.0" font-size="12" text-anchor="middle" dominant-baseline="middle">44</text>
<circle cx="1152.0" cy="1597.0" r="1" fill="blue" />
<text x="1152.0" y="1597.0" font-size="12" text-anchor="middle" dominant-baseline="middle">45</text>
<circle cx="1854.0" cy="754.0" r="1" fill="blue" />
<text x="1854.0" y="754.0" font-size="12" text-anchor="middle" dominant-baseline="middle">46</text>
<circle cx="95.0" cy="972.0" r="1" fill="blue" />
<text x="95.0" y="972.0" font-size="12" text-anchor="middle" dominant-baseline="middle">47</text>
<circle cx="2866.0" cy="2185.0" r="1" fill="blue" />
<text x="2866.0" y="2185.0" font-size="12" text-anchor="middle" dominant-baseline="middle">48</text>
<circle cx="1435.0" cy="2855.0" r="1" fill="blue" />
<text x="1435.0" y="2855.0" font-size="12" text-anchor="middle" dominant-baseline="middle">49</text>
<circle cx="4281.0" cy="143.0" r="1" fill="blue" />
<text x="4281.0" y="143.0" font-size="12" text-anchor="middle" dominant-baseline="middle">50</text>
<circle cx="1984.0" cy="427.0" r="1" fill="blue" />
<text x="1984.0" y="427.0" font-size="12" text-anchor="middle" dominant-baseline="middle">51</text>
<circle cx="2735.0" cy="2593.0" r="1" fill="blue" />
<text x="2735.0" y="2593.0" font-size="12" text-anchor="middle" dominant-baseline="middle">52</text>
<circle cx="4566.0" cy="83.0" r="1" fill="blue" />
<text x="4566.0" y="83.0" font-size="12" text-anchor="middle" dominant-baseline="middle">53</text>
<circle cx="1578.0" cy="947.0" r="1" fill="blue" />
<text x="1578.0" y="947.0" font-size="12" text-anchor="middle" dominant-baseline="middle">54</text>
<circle cx="349.0" cy="2248.0" r="1" fill="blue" />
<text x="349.0" y="2248.0" font-size="12" text-anchor="middle" dominant-baseline="middle">55</text>
<circle cx="1316.0" cy="3141.0" r="1" fill="blue" />
<text x="1316.0" y="3141.0" font-size="12" text-anchor="middle" dominant-baseline="middle">56</text>
<circle cx="1698.0" cy="378.0" r="1" fill="blue" />
<text x="1698.0" y="378.0" font-size="12" text-anchor="middle" dominant-baseline="middle">57</text>
<circle cx="1285.0" cy="1329.0" r="1" fill="blue" />
<text x="1285.0" y="1329.0" font-size="12" text-anchor="middle" dominant-baseline="middle">58</text>
<circle cx="4229.0" cy="220.0" r="1" fill="blue" />
<text x="4229.0" y="220.0" font-size="12" text-anchor="middle" dominant-baseline="middle">59</text>
<circle cx="4731.0" cy="1702.0" r="1" fill="blue" />
<text x="4731.0" y="1702.0" font-size="12" text-anchor="middle" dominant-baseline="middle">60</text>
<circle cx="1976.0" cy="1923.0" r="1" fill="blue" />
<text x="1976.0" y="1923.0" font-size="12" text-anchor="middle" dominant-baseline="middle">61</text>
<circle cx="5084.0" cy="144.0" r="1" fill="blue" />
<text x="5084.0" y="144.0" font-size="12" text-anchor="middle" dominant-baseline="middle">62</text>
<circle cx="2530.0" cy="1431.0" r="1" fill="blue" />
<text x="2530.0" y="1431.0" font-size="12" text-anchor="middle" dominant-baseline="middle">63</text>
<circle cx="1047.0" cy="1129.0" r="1" fill="blue" />
<text x="1047.0" y="1129.0" font-size="12" text-anchor="middle" dominant-baseline="middle">64</text>
<circle cx="4908.0" cy="622.0" r="1" fill="blue" />
<text x="4908.0" y="622.0" font-size="12" text-anchor="middle" dominant-baseline="middle">65</text>
<circle cx="4909.0" cy="3089.0" r="1" fill="blue" />
<text x="4909.0" y="3089.0" font-size="12" text-anchor="middle" dominant-baseline="middle">66</text>
<circle cx="4751.0" cy="2954.0" r="1" fill="blue" />
<text x="4751.0" y="2954.0" font-size="12" text-anchor="middle" dominant-baseline="middle">67</text>
<circle cx="4824.0" cy="1085.0" r="1" fill="blue" />
<text x="4824.0" y="1085.0" font-size="12" text-anchor="middle" dominant-baseline="middle">68</text>
<circle cx="2427.0" cy="2414.0" r="1" fill="blue" />
<text x="2427.0" y="2414.0" font-size="12" text-anchor="middle" dominant-baseline="middle">69</text>
<circle cx="4896.0" cy="318.0" r="1" fill="blue" />
<text x="4896.0" y="318.0" font-size="12" text-anchor="middle" dominant-baseline="middle">70</text>
<circle cx="4757.0" cy="3205.0" r="1" fill="blue" />
<text x="4757.0" y="3205.0" font-size="12" text-anchor="middle" dominant-baseline="middle">71</text>
<circle cx="3246.0" cy="404.0" r="1" fill="blue" />
<text x="3246.0" y="404.0" font-size="12" text-anchor="middle" dominant-baseline="middle">72</text>
<circle cx="1406.0" cy="830.0" r="1" fill="blue" />
<text x="1406.0" y="830.0" font-size="12" text-anchor="middle" dominant-baseline="middle">73</text>
<circle cx="880.0" cy="1248.0" r="1" fill="blue" />
<text x="880.0" y="1248.0" font-size="12" text-anchor="middle" dominant-baseline="middle">74</text>
<circle cx="210.0" cy="3197.0" r="1" fill="blue" />
<text x="210.0" y="3197.0" font-size="12" text-anchor="middle" dominant-baseline="middle">75</text>
<circle cx="4207.0" cy="650.0" r="1" fill="blue" />
<text x="4207.0" y="650.0" font-size="12" text-anchor="middle" dominant-baseline="middle">76</text>
<circle cx="2582.0" cy="1790.0" r="1" fill="blue" />
<text x="2582.0" y="1790.0" font-size="12" text-anchor="middle" dominant-baseline="middle">77</text>
<circle cx="4292.0" cy="1923.0" r="1" fill="blue" />
<text x="4292.0" y="1923.0" font-size="12" text-anchor="middle" dominant-baseline="middle">78</text>
<circle cx="1336.0" cy="1378.0" r="1" fill="blue" />
<text x="1336.0" y="1378.0" font-size="12" text-anchor="middle" dominant-baseline="middle">79</text>
<circle cx="1621.0" cy="1011.0" r="1" fill="blue" />
<text x="1621.0" y="1011.0" font-size="12" text-anchor="middle" dominant-baseline="middle">80</text>
<circle cx="1396.0" cy="1729.0" r="1" fill="blue" />
<text x="1396.0" y="1729.0" font-size="12" text-anchor="middle" dominant-baseline="middle">81</text>
<circle cx="706.0" cy="1031.0" r="1" fill="blue" />
<text x="706.0" y="1031.0" font-size="12" text-anchor="middle" dominant-baseline="middle">82</text>
<circle cx="1231.0" cy="2206.0" r="1" fill="blue" />
<text x="1231.0" y="2206.0" font-size="12" text-anchor="middle" dominant-baseline="middle">83</text>
<circle cx="554.0" cy="1324.0" r="1" fill="blue" />
<text x="554.0" y="1324.0" font-size="12" text-anchor="middle" dominant-baseline="middle">84</text>
<circle cx="146.0" cy="1743.0" r="1" fill="blue" />
<text x="146.0" y="1743.0" font-size="12" text-anchor="middle" dominant-baseline="middle">85</text>
<circle cx="2565.0" cy="1645.0" r="1" fill="blue" />
<text x="2565.0" y="1645.0" font-size="12" text-anchor="middle" dominant-baseline="middle">86</text>
<circle cx="2121.0" cy="183.0" r="1" fill="blue" />
<text x="2121.0" y="183.0" font-size="12" text-anchor="middle" dominant-baseline="middle">87</text>
<circle cx="4051.0" cy="2456.0" r="1" fill="blue" />
<text x="4051.0" y="2456.0" font-size="12" text-anchor="middle" dominant-baseline="middle">88</text>
<circle cx="3405.0" cy="2055.0" r="1" fill="blue" />
<text x="3405.0" y="2055.0" font-size="12" text-anchor="middle" dominant-baseline="middle">89</text>
<circle cx="2584.0" cy="1364.0" r="1" fill="blue" />
<text x="2584.0" y="1364.0" font-size="12" text-anchor="middle" dominant-baseline="middle">90</text>
<circle cx="3746.0" cy="2703.0" r="1" fill="blue" />
<text x="3746.0" y="2703.0" font-size="12" text-anchor="middle" dominant-baseline="middle">91</text>
<circle cx="902.0" cy="2886.0" r="1" fill="blue" />
<text x="902.0" y="2886.0" font-size="12" text-anchor="middle" dominant-baseline="middle">92</text>
<circle cx="3214.0" cy="986.0" r="1" fill="blue" />
<text x="3214.0" y="986.0" font-size="12" text-anchor="middle" dominant-baseline="middle">93</text>
<circle cx="4336.0" cy="1007.0" r="1" fill="blue" />
<text x="4336.0" y="1007.0" font-size="12" text-anchor="middle" dominant-baseline="middle">94</text>
<circle cx="2284.0" cy="1289.0" r="1" fill="blue" />
<text x="2284.0" y="1289.0" font-size="12" text-anchor="middle" dominant-baseline="middle">95</text>
<circle cx="957.0" cy="1780.0" r="1" fill="blue" />
<text x="957.0" y="1780.0" font-size="12" text-anchor="middle" dominant-baseline="middle">96</text>
<circle cx="3869.0" cy="372.0" r="1" fill="blue" />
<text x="3869.0" y="372.0" font-size="12" text-anchor="middle" dominant-baseline="middle">97</text>
<circle cx="1947.0" cy="1646.0" r="1" fill="blue" />
<text x="1947.0" y="1646.0" font-size="12" text-anchor="middle" dominant-baseline="middle">98</text>
<circle cx="3398.0" cy="271.0" r="1" fill="blue" />
<text x="3398.0" y="271.0" font-size="12" text-anchor="middle" dominant-baseline="middle">99</text>
<circle cx="1745.0" cy="176.0" r="1" fill="blue" />
<text x="1745.0" y="176.0" font-size="12" text-anchor="middle" dominant-baseline="middle">100</text>
<circle cx="3932.0" cy="455.0" r="1" fill="blue" />
<text x="3932.0" y="455.0" font-size="12" text-anchor="middle" dominant-baseline="middle">101</text>
<circle cx="4046.0" cy="793.0" r="1" fill="blue" />
<text x="4046.0" y="793.0" font-size="12" text-anchor="middle" dominant-baseline="middle">102</text>
<circle cx="312.0" cy="1624.0" r="1" fill="blue" />
<text x="312.0" y="1624.0" font-size="12" text-anchor="middle" dominant-baseline="middle">103</text>
<circle cx="2642.0" cy="2080.0" r="1" fill="blue" />
<text x="2642.0" y="2080.0" font-size="12" text-anchor="middle" dominant-baseline="middle">104</text>
<circle cx="3603.0" cy="1754.0" r="1" fill="blue" />
<text x="3603.0" y="1754.0" font-size="12" text-anchor="middle" dominant-baseline="middle">105</text>
<circle cx="543.0" cy="2435.0" r="1" fill="blue" />
<text x="543.0" y="2435.0" font-size="12" text-anchor="middle" dominant-baseline="middle">106</text>
<circle cx="439.0" cy="3179.0" r="1" fill="blue" />
<text x="439.0" y="3179.0" font-size="12" text-anchor="middle" dominant-baseline="middle">107</text>
<circle cx="1942.0" cy="2069.0" r="1" fill="blue" />
<text x="1942.0" y="2069.0" font-size="12" text-anchor="middle" dominant-baseline="middle">108</text>
<circle cx="85.0" cy="1634.0" r="1" fill="blue" />
<text x="85.0" y="1634.0" font-size="12" text-anchor="middle" dominant-baseline="middle">109</text>
<circle cx="1950.0" cy="150.0" r="1" fill="blue" />
<text x="1950.0" y="150.0" font-size="12" text-anchor="middle" dominant-baseline="middle">110</text>
<circle cx="1978.0" cy="2058.0" r="1" fill="blue" />
<text x="1978.0" y="2058.0" font-size="12" text-anchor="middle" dominant-baseline="middle">111</text>
<circle cx="2719.0" cy="2129.0" r="1" fill="blue" />
<text x="2719.0" y="2129.0" font-size="12" text-anchor="middle" dominant-baseline="middle">112</text>
<circle cx="2771.0" cy="1111.0" r="1" fill="blue" />
<text x="2771.0" y="1111.0" font-size="12" text-anchor="middle" dominant-baseline="middle">113</text>
<circle cx="3991.0" cy="1369.0" r="1" fill="blue" />
<text x="3991.0" y="1369.0" font-size="12" text-anchor="middle" dominant-baseline="middle">114</text>
<circle cx="1557.0" cy="1968.0" r="1" fill="blue" />
<text x="1557.0" y="1968.0" font-size="12" text-anchor="middle" dominant-baseline="middle">115</text>
<circle cx="3205.0" cy="1827.0" r="1" fill="blue" />
<text x="3205.0" y="1827.0" font-size="12" text-anchor="middle" dominant-baseline="middle">116</text>
<circle cx="1521.0" cy="1792.0" r="1" fill="blue" />
<text x="1521.0" y="1792.0" font-size="12" text-anchor="middle" dominant-baseline="middle">117</text>
<circle cx="3334.0" cy="1659.0" r="1" fill="blue" />
<text x="3334.0" y="1659.0" font-size="12" text-anchor="middle" dominant-baseline="middle">118</text>
<circle cx="3372.0" cy="2356.0" r="1" fill="blue" />
<text x="3372.0" y="2356.0" font-size="12" text-anchor="middle" dominant-baseline="middle">119</text>
<circle cx="2777.0" cy="865.0" r="1" fill="blue" />
<text x="2777.0" y="865.0" font-size="12" text-anchor="middle" dominant-baseline="middle">120</text>
<circle cx="3939.0" cy="566.0" r="1" fill="blue" />
<text x="3939.0" y="566.0" font-size="12" text-anchor="middle" dominant-baseline="middle">121</text>
<circle cx="1632.0" cy="2208.0" r="1" fill="blue" />
<text x="1632.0" y="2208.0" font-size="12" text-anchor="middle" dominant-baseline="middle">122</text>
<circle cx="3248.0" cy="2194.0" r="1" fill="blue" />
<text x="3248.0" y="2194.0" font-size="12" text-anchor="middle" dominant-baseline="middle">123</text>
<circle cx="2359.0" cy="389.0" r="1" fill="blue" />
<text x="2359.0" y="389.0" font-size="12" text-anchor="middle" dominant-baseline="middle">124</text>
<circle cx="2516.0" cy="3253.0" r="1" fill="blue" />
<text x="2516.0" y="3253.0" font-size="12" text-anchor="middle" dominant-baseline="middle">125</text>
<circle cx="4366.0" cy="607.0" r="1" fill="blue" />
<text x="4366.0" y="607.0" font-size="12" text-anchor="middle" dominant-baseline="middle">126</text>
<circle cx="3851.0" cy="3286.0" r="1" fill="blue" />
<text x="3851.0" y="3286.0" font-size="12" text-anchor="middle" dominant-baseline="middle">127</text>
<circle cx="3928.0" cy="1058.0" r="1" fill="blue" />
<text x="3928.0" y="1058.0" font-size="12" text-anchor="middle" dominant-baseline="middle">128</text>
<circle cx="3916.0" cy="574.0" r="1" fill="blue" />
<text x="3916.0" y="574.0" font-size="12" text-anchor="middle" dominant-baseline="middle">129</text>
<circle cx="4662.0" cy="562.0" r="1" fill="blue" />
<text x="4662.0" y="562.0" font-size="12" text-anchor="middle" dominant-baseline="middle">130</text>
<circle cx="97.0" cy="1696.0" r="1" fill="blue" />
<text x="97.0" y="1696.0" font-size="12" text-anchor="middle" dominant-baseline="middle">131</text>
<circle cx="4632.0" cy="1422.0" r="1" fill="blue" />
<text x="4632.0" y="1422.0" font-size="12" text-anchor="middle" dominant-baseline="middle">132</text>
<circle cx="2717.0" cy="61.0" r="1" fill="blue" />
<text x="2717.0" y="61.0" font-size="12" text-anchor="middle" dominant-baseline="middle">133</text>
<circle cx="3469.0" cy="3183.0" r="1" fill="blue" />
<text x="3469.0" y="3183.0" font-size="12" text-anchor="middle" dominant-baseline="middle">134</text>
<circle cx="3411.0" cy="19.0" r="1" fill="blue" />
<text x="3411.0" y="19.0" font-size="12" text-anchor="middle" dominant-baseline="middle">135</text>
<circle cx="4426.0" cy="2324.0" r="1" fill="blue" />
<text x="4426.0" y="2324.0" font-size="12" text-anchor="middle" dominant-baseline="middle">136</text>
<circle cx="4792.0" cy="299.0" r="1" fill="blue" />
<text x="4792.0" y="299.0" font-size="12" text-anchor="middle" dominant-baseline="middle">137</text>
<circle cx="2051.0" cy="261.0" r="1" fill="blue" />
<text x="2051.0" y="261.0" font-size="12" text-anchor="middle" dominant-baseline="middle">138</text>
<circle cx="1338.0" cy="1425.0" r="1" fill="blue" />
<text x="1338.0" y="1425.0" font-size="12" text-anchor="middle" dominant-baseline="middle">139</text>
<circle cx="1919.0" cy="2909.0" r="1" fill="blue" />
<text x="1919.0" y="2909.0" font-size="12" text-anchor="middle" dominant-baseline="middle">140</text>
<circle cx="3694.0" cy="2905.0" r="1" fill="blue" />
<text x="3694.0" y="2905.0" font-size="12" text-anchor="middle" dominant-baseline="middle">141</text>
<circle cx="4697.0" cy="911.0" r="1" fill="blue" />
<text x="4697.0" y="911.0" font-size="12" text-anchor="middle" dominant-baseline="middle">142</text>
<circle cx="3752.0" cy="2855.0" r="1" fill="blue" />
<text x="3752.0" y="2855.0" font-size="12" text-anchor="middle" dominant-baseline="middle">143</text>
<circle cx="1002.0" cy="2396.0" r="1" fill="blue" />
<text x="1002.0" y="2396.0" font-size="12" text-anchor="middle" dominant-baseline="middle">144</text>
<circle cx="3339.0" cy="1543.0" r="1" fill="blue" />
<text x="3339.0" y="1543.0" font-size="12" text-anchor="middle" dominant-baseline="middle">145</text>
<circle cx="2179.0" cy="1288.0" r="1" fill="blue" />
<text x="2179.0" y="1288.0" font-size="12" text-anchor="middle" dominant-baseline="middle">146</text>
<circle cx="1304.0" cy="2461.0" r="1" fill="blue" />
<text x="1304.0" y="2461.0" font-size="12" text-anchor="middle" dominant-baseline="middle">147</text>
<circle cx="2669.0" cy="2486.0" r="1" fill="blue" />
<text x="2669.0" y="2486.0" font-size="12" text-anchor="middle" dominant-baseline="middle">148</text>
<circle cx="4611.0" cy="58.0" r="1" fill="blue" />
<text x="4611.0" y="58.0" font-size="12" text-anchor="middle" dominant-baseline="middle">149</text>
<circle cx="1625.0" cy="401.0" r="1" fill="blue" />
<text x="1625.0" y="401.0" font-size="12" text-anchor="middle" dominant-baseline="middle">150</text>
<circle cx="3636.0" cy="2754.0" r="1" fill="blue" />
<text x="3636.0" y="2754.0" font-size="12" text-anchor="middle" dominant-baseline="middle">151</text>
<circle cx="4020.0" cy="505.0" r="1" fill="blue" />
<text x="4020.0" y="505.0" font-size="12" text-anchor="middle" dominant-baseline="middle">152</text>
<circle cx="3715.0" cy="820.0" r="1" fill="blue" />
<text x="3715.0" y="820.0" font-size="12" text-anchor="middle" dominant-baseline="middle">153</text>
<circle cx="1495.0" cy="2231.0" r="1" fill="blue" />
<text x="1495.0" y="2231.0" font-size="12" text-anchor="middle" dominant-baseline="middle">154</text>
<circle cx="1599.0" cy="3041.0" r="1" fill="blue" />
<text x="1599.0" y="3041.0" font-size="12" text-anchor="middle" dominant-baseline="middle">155</text>
<circle cx="4393.0" cy="1985.0" r="1" fill="blue" />
<text x="4393.0" y="1985.0" font-size="12" text-anchor="middle" dominant-baseline="middle">156</text>
<circle cx="679.0" cy="1757.0" r="1" fill="blue" />
<text x="679.0" y="1757.0" font-size="12" text-anchor="middle" dominant-baseline="middle">157</text>
<circle cx="2406.0" cy="776.0" r="1" fill="blue" />
<text x="2406.0" y="776.0" font-size="12" text-anchor="middle" dominant-baseline="middle">158</text>
<circle cx="3484.0" cy="2394.0" r="1" fill="blue" />
<text x="3484.0" y="2394.0" font-size="12" text-anchor="middle" dominant-baseline="middle">159</text>
<circle cx="2425.0" cy="1064.0" r="1" fill="blue" />
<text x="2425.0" y="1064.0" font-size="12" text-anchor="middle" dominant-baseline="middle">160</text>
<circle cx="4999.0" cy="2273.0" r="1" fill="blue" />
<text x="4999.0" y="2273.0" font-size="12" text-anchor="middle" dominant-baseline="middle">161</text>
<circle cx="4936.0" cy="2739.0" r="1" fill="blue" />
<text x="4936.0" y="2739.0" font-size="12" text-anchor="middle" dominant-baseline="middle">162</text>
<circle cx="2168.0" cy="18.0" r="1" fill="blue" />
<text x="2168.0" y="18.0" font-size="12" text-anchor="middle" dominant-baseline="middle">163</text>
<circle cx="2562.0" cy="1274.0" r="1" fill="blue" />
<text x="2562.0" y="1274.0" font-size="12" text-anchor="middle" dominant-baseline="middle">164</text>
<circle cx="3543.0" cy="2120.0" r="1" fill="blue" />
<text x="3543.0" y="2120.0" font-size="12" text-anchor="middle" dominant-baseline="middle">165</text>
<circle cx="1516.0" cy="3158.0" r="1" fill="blue" />
<text x="1516.0" y="3158.0" font-size="12" text-anchor="middle" dominant-baseline="middle">166</text>
<circle cx="4156.0" cy="981.0" r="1" fill="blue" />
<text x="4156.0" y="981.0" font-size="12" text-anchor="middle" dominant-baseline="middle">167</text>
<circle cx="3293.0" cy="1948.0" r="1" fill="blue" />
<text x="3293.0" y="1948.0" font-size="12" text-anchor="middle" dominant-baseline="middle">168</text>
<circle cx="1141.0" cy="2798.0" r="1" fill="blue" />
<text x="1141.0" y="2798.0" font-size="12" text-anchor="middle" dominant-baseline="middle">169</text>
<circle cx="2812.0" cy="716.0" r="1" fill="blue" />
<text x="2812.0" y="716.0" font-size="12" text-anchor="middle" dominant-baseline="middle">170</text>
<circle cx="2972.0" cy="978.0" r="1" fill="blue" />
<text x="2972.0" y="978.0" font-size="12" text-anchor="middle" dominant-baseline="middle">171</text>
<circle cx="1802.0" cy="924.0" r="1" fill="blue" />
<text x="1802.0" y="924.0" font-size="12" text-anchor="middle" dominant-baseline="middle">172</text>
<circle cx="4793.0" cy="360.0" r="1" fill="blue" />
<text x="4793.0" y="360.0" font-size="12" text-anchor="middle" dominant-baseline="middle">173</text>
<circle cx="3718.0" cy="1934.0" r="1" fill="blue" />
<text x="3718.0" y="1934.0" font-size="12" text-anchor="middle" dominant-baseline="middle">174</text>
<circle cx="567.0" cy="2253.0" r="1" fill="blue" />
<text x="567.0" y="2253.0" font-size="12" text-anchor="middle" dominant-baseline="middle">175</text>
<circle cx="2376.0" cy="681.0" r="1" fill="blue" />
<text x="2376.0" y="681.0" font-size="12" text-anchor="middle" dominant-baseline="middle">176</text>
<circle cx="1735.0" cy="396.0" r="1" fill="blue" />
<text x="1735.0" y="396.0" font-size="12" text-anchor="middle" dominant-baseline="middle">177</text>
<circle cx="2661.0" cy="1492.0" r="1" fill="blue" />
<text x="2661.0" y="1492.0" font-size="12" text-anchor="middle" dominant-baseline="middle">178</text>
<circle cx="2221.0" cy="3259.0" r="1" fill="blue" />
<text x="2221.0" y="3259.0" font-size="12" text-anchor="middle" dominant-baseline="middle">179</text>
<circle cx="2843.0" cy="3042.0" r="1" fill="blue" />
<text x="2843.0" y="3042.0" font-size="12" text-anchor="middle" dominant-baseline="middle">180</text>
<circle cx="4395.0" cy="3070.0" r="1" fill="blue" />
<text x="4395.0" y="3070.0" font-size="12" text-anchor="middle" dominant-baseline="middle">181</text>
<circle cx="968.0" cy="1129.0" r="1" fill="blue" />
<text x="968.0" y="1129.0" font-size="12" text-anchor="middle" dominant-baseline="middle">182</text>
<circle cx="5075.0" cy="53.0" r="1" fill="blue" />
<text x="5075.0" y="53.0" font-size="12" text-anchor="middle" dominant-baseline="middle">183</text>
<circle cx="2792.0" cy="1069.0" r="1" fill="blue" />
<text x="2792.0" y="1069.0" font-size="12" text-anchor="middle" dominant-baseline="middle">184</text>
<circle cx="1718.0" cy="2367.0" r="1" fill="blue" />
<text x="1718.0" y="2367.0" font-size="12" text-anchor="middle" dominant-baseline="middle">185</text>
<circle cx="4172.0" cy="2503.0" r="1" fill="blue" />
<text x="4172.0" y="2503.0" font-size="12" text-anchor="middle" dominant-baseline="middle">186</text>
<circle cx="2486.0" cy="155.0" r="1" fill="blue" />
<text x="2486.0" y="155.0" font-size="12" text-anchor="middle" dominant-baseline="middle">187</text>
<circle cx="4003.0" cy="1607.0" r="1" fill="blue" />
<text x="4003.0" y="1607.0" font-size="12" text-anchor="middle" dominant-baseline="middle">188</text>
<circle cx="2019.0" cy="3233.0" r="1" fill="blue" />
<text x="2019.0" y="3233.0" font-size="12" text-anchor="middle" dominant-baseline="middle">189</text>
<circle cx="1633.0" cy="1839.0" r="1" fill="blue" />
<text x="1633.0" y="1839.0" font-size="12" text-anchor="middle" dominant-baseline="middle">190</text>
<circle cx="1164.0" cy="2395.0" r="1" fill="blue" />
<text x="1164.0" y="2395.0" font-size="12" text-anchor="middle" dominant-baseline="middle">191</text>
<circle cx="2744.0" cy="135.0" r="1" fill="blue" />
<text x="2744.0" y="135.0" font-size="12" text-anchor="middle" dominant-baseline="middle">192</text>
<circle cx="4798.0" cy="3201.0" r="1" fill="blue" />
<text x="4798.0" y="3201.0" font-size="12" text-anchor="middle" dominant-baseline="middle">193</text>
<circle cx="1552.0" cy="1848.0" r="1" fill="blue" />
<text x="1552.0" y="1848.0" font-size="12" text-anchor="middle" dominant-baseline="middle">194</text>
<circle cx="324.0" cy="1120.0" r="1" fill="blue" />
<text x="324.0" y="1120.0" font-size="12" text-anchor="middle" dominant-baseline="middle">195</text>
<circle cx="1366.0" cy="1245.0" r="1" fill="blue" />
<text x="1366.0" y="1245.0" font-size="12" text-anchor="middle" dominant-baseline="middle">196</text>
<circle cx="2459.0" cy="1743.0" r="1" fill="blue" />
<text x="2459.0" y="1743.0" font-size="12" text-anchor="middle" dominant-baseline="middle">197</text>
<circle cx="263.0" cy="3049.0" r="1" fill="blue" />
<text x="263.0" y="3049.0" font-size="12" text-anchor="middle" dominant-baseline="middle">198</text>
<circle cx="1845.0" cy="1212.0" r="1" fill="blue" />
<text x="1845.0" y="1212.0" font-size="12" text-anchor="middle" dominant-baseline="middle">199</text>
<circle cx="10.0" cy="10.0" r="10" fill="none" stroke="green" />
<circle cx="10.0" cy="10.0" r="5" fill="red" />
<text x="10.0" y="10.0" font-size="12" text-anchor="middle" dominant-baseline="middle">0-0</text>
<circle cx="20.0" cy="10.0" r="10" fill="none" stroke="green" />
<circle cx="20.0" cy="10.0" r="5" fill="red" />
<text x="20.0" y="10.0" font-size="12" text-anchor="middle" dominant-baseline="middle">1-1</text>
<circle cx="30.0" cy="10.0" r="10" fill="none" stroke="green" />
<circle cx="30.0" cy="10.0" r="5" fill="red" />
<text x="30.0" y="10.0" font-size="12" text-anchor="middle" dominant-baseline="middle">2-2</text>
<circle cx="40.0" cy="10.0" r="10" fill="none" stroke="green" />
<circle cx="40.0" cy="10.0" r="5" fill="red" />
<text x="40.0" y="10.0" font-size="12" text-anchor="middle" dominant-baseline="middle">3-3</text>
<circle cx="50.0" cy="10.0" r="10" fill="none" stroke="green" />
<circle cx="50.0" cy="10.0" r="5" fill="red" />
<text x="50.0" y="10.0" font-size="12" text-anchor="middle" dominant-baseline="middle">4-4</text>
<circle cx="60.0" cy="10.0" r="10" fill="none" stroke="green" />
<circle cx="60.0" cy="10.0" r="5" fill="red" />
<text x="60.0" y="10.0" font-size="12" text-anchor="middle" dominant-baseline="middle">5-5</text>
<circle cx="70.0" cy="10.0" r="10" fill="none" stroke="green" />
<circle cx="70.0" cy="10.0" r="5" fill="red" />
<text x="70.0" y="10.0" font-size="12" text-anchor="middle" dominant-baseline="middle">6-6</text>
<circle cx="80.0" cy="10.0" r="10" fill="none" stroke="green" />
<circle cx="80.0" cy="10.0" r="5" fill="red" />
<text x="80.0" y="10.0" font-size="12" text-anchor="middle" dominant-baseline="middle">7-7</text>
<circle cx="90.0" cy="10.0" r="10" fill="none" stroke="green" />
<circle cx="90.0" cy="10.0" r="5" fill="red" />
<text x="90.0" y="10.0" font-size="12" text-anchor="middle" dominant-baseline="middle">8-8</text>
<circle cx="100.0" cy="10.0" r="10" fill="none" stroke="green" />
<circle cx="100.0" cy="10.0" r="5" fill="red" />
<text x="100.0" y="10.0" font-size="12" text-anchor="middle" dominant-baseline="middle">9-9</text>
<circle cx="110.0" cy="10.0" r="10" fill="none" stroke="green" />
<circle cx="110.0" cy="10.0" r="5" fill="red" />
<text x="110.0" y="10.0" font-size="12" text-anchor="middle" dominant-baseline="middle">10-10</text>
<circle cx="120.0" cy="10.0" r="10" fill="none" stroke="green" />
<circle cx="120.0" cy="10.0" r="5" fill="red" />
<text x="120.0" y="10.0" font-size="12" text-anchor="middle" dominant-baseline="middle">11-11</text>
<circle cx="130.0" cy="10.0" r="10" fill="none" stroke="green" />
<circle cx="130.0" cy="10.0" r="5" fill="red" />
<text x="130.0" y="10.0" font-size="12" text-anchor="middle" dominant-baseline="middle">12-12</text>
<circle cx="140.0" cy="10.0" r="10" fill="none" stroke="green" />
<circle cx="140.0" cy="10.0" r="5" fill="red" />
<text x="140.0" y="10.0" font-size="12" text-anchor="middle" dominant-baseline="middle">13-13</text>
<circle cx="150.0" cy="10.0" r="10" fill="none" stroke="green" />
<circle cx="150.0" cy="10.0" r="5" fill="red" />
<text x="150.0" y="10.0" font-size="12" text-anchor="middle" dominant-baseline="middle">14-14</text>
<circle cx="160.0" cy="10.0" r="10" fill="none" stroke="green" />
<circle cx="160.0" cy="10.0" r="5" fill="red" />
<text x="160.0" y="10.0" font-size="12" text-anchor="middle" dominant-baseline="middle">15-15</text>
<circle cx="170.0" cy="10.0" r="10" fill="none" stroke="green" />
<circle cx="170.0" cy="10.0" r="5" fill="red" />
<text x="170.0" y="10.0" font-size="12" text-anchor="middle" dominant-baseline="middle">16-16</text>
<circle cx="180.0" cy="10.0" r="10" fill="none" stroke="green" />
<circle cx="180.0" cy="10.0" r="5" fill="red" />
<text x="180.0" y="10.0" font-size="12" text-anchor="middle" dominant-baseline="middle">17-17</text>
<circle cx="190.0" cy="10.0" r="10" fill="none" stroke="green" />
<circle cx="190.0" cy="10.0" r="5" fill="red" />
<text x="190.0" y="10.0" font-size="12" text-anchor="middle" dominant-baseline="middle">18-18</text>
<circle cx="200.0" cy="10.0" r="10" fill="none" stroke="green" />
<circle cx="200.0" cy="10.0" r="5" fill="red" />
<text x="200.0" y="10.0" font-size="12" text-anchor="middle" dominant-baseline="middle">19-19</text>
<circle cx="210.0" cy="10.0" r="10" fill="none" stroke="green" />
<circle cx="210.0" cy="10.0" r="5" fill="red" />
<text x="210.0" y="10.0" font-size="12" text-anchor="middle" dominant-baseline="middle">20-20</text>
<circle cx="220.0" cy="10.0" r="10" fill="none" stroke="green" />
<circle cx="220.0" cy="10.0" r="5" fill="red" />
<text x="220.0" y="10.0" font-size="12" text-anchor="middle" dominant-baseline="middle">21-21</text>
<circle cx="230.0" cy="10.0" r="10" fill="none" stroke="green" />
<circle cx="230.0" cy="10.0" r="5" fill="red" />
<text x="230.0" y="10.0" font-size="12" text-anchor="middle" dominant-baseline="middle">22-22</text>
<circle cx="240.0" cy="10.0" r="10" fill="none" stroke="green" />
<circle cx="240.0" cy="10.0" r="5" fill="red" />
<text x="240.0" y="10.0" font-size="12" text-anchor="middle" dominant-baseline="middle">23-23</text>
<circle cx="250.0" cy="10.0" r="10" fill="none" stroke="green" />
<circle cx="250.0" cy="10.0" r="5" fill="red" />
<text x="250.0" y="10.0" font-size="12" text-anchor="middle" dominant-baseline="middle">24-24</text>
<circle cx="260.0" cy="10.0" r="10" fill="none" stroke="green" />
<circle cx="260.0" cy="10.0" r="5" fill="red" />
<text x="260.0" y="10.0" font-size="12" text-anchor="middle" dominant-baseline="middle">25-25</text>
<circle cx="270.0" cy="10.0" r="10" fill="none" stroke="green" />
<circle cx="270.0" cy="10.0" r="5" fill="red" />
<text x="270.0" y="10.0" font-size="12" text-anchor="middle" dominant-baseline="middle">26-26</text>
<circle cx="280.0" cy="10.0" r="10" fill="none" stroke="green" />
<circle cx="280.0" cy="10.0" r="5" fill="red" />
<text x="280.0" y="10.0" font-size="12" text-anchor="middle" dominant-baseline="middle">27-27</text>
<circle cx="290.0" cy="10.0" r="10" fill="none" stroke="green" />
<circle cx="290.0" cy="10.0" r="5" fill="red" />
<text x="290.0" y="10.0" font-size="12" text-anchor="middle" dominant-baseline="middle">28-28</text>
<circle cx="300.0" cy="10.0" r="10" fill="none" stroke="green" />
<circle cx="300.0" cy="10.0" r="5" fill="red" />
<text x="300.0" y="10.0" font-size="12" text-anchor="middle" dominant-baseline="middle">29-29</text>
<circle cx="310.0" cy="10.0" r="10" fill="none" stroke="green" />
<circle cx="310.0" cy="10.0" r="5" fill="red" />
<text x="310.0" y="10.0" font-size="12" text-anchor="middle" dominant-baseline="middle">30-30</text>
<circle cx="320.0" cy="10.0" r="10" fill="none" stroke="green" />
<circle cx="320.0" cy="10.0" r="5" fill="red" />
<text x="320.0" y="10.0" font-size="12" text-anchor="middle" dominant-baseline="middle">31-31</text>
<circle cx="330.0" cy="10.0" r="10" fill="none" stroke="green" />
<circle cx="330.0" cy="10.0" r="5" fill="red" />
<text x="330.0" y="10.0" font-size="12" text-anchor="middle" dominant-baseline="middle">32-32</text>
<circle cx="340.0" cy="10.0" r="10" fill="none" stroke="green" />
<circle cx="340.0" cy="10.0" r="5" fill="red" />
<text x="340.0" y="10.0" font-size="12" text-anchor="middle" dominant-baseline="middle">33-33</text>
<circle cx="350.0" cy="10.0" r="10" fill="none" stroke="green" />
<circle cx="350.0" cy="10.0" r="5" fill="red" />
<text x="350.0" y="10.0" font-size="12" text-anchor="middle" dominant-baseline="middle">34-34</text>
<circle cx="360.0" cy="10.0" r="10" fill="none" stroke="green" />
<circle cx="360.0" cy="10.0" r="5" fill="red" />
<text x="360.0" y="10.0" font-size="12" text-anchor="middle" dominant-baseline="middle">35-35</text>
<circle cx="370.0" cy="10.0" r="10" fill="none" stroke="green" />
<circle cx="370.0" cy="10.0" r="5" fill="red" />
<text x="370.0" y="10.0" font-size="12" text-anchor="middle" dominant-baseline="middle">36-36</text>
<circle cx="380.0" cy="10.0" r="10" fill="none" stroke="green" />
<circle cx="380.0" cy="10.0" r="5" fill="red" />
<text x="380.0" y="10.0" font-size="12" text-anchor="middle" dominant-baseline="middle">37-37</text>
<circle cx="390.0" cy="10.0" r="10" fill="none" stroke="green" />
<circle cx="390.0" cy="10.0" r="5" fill="red" />
<text x="390.0" y="10.0" font-size="12" text-anchor="middle" dominant-baseline="middle">38-38</text>
<circle cx="400.0" cy="10.0" r="10" fill="none" stroke="green" />
<circle cx="400.0" cy="10.0" r="5" fill="red" />
<text x="400.0" y="10.0" font-size="12" text-anchor="middle" dominant-baseline="middle">39-39</text>
</svg>