<?xml version="1.0" encoding="UTF-8"?>
<svg xmlns="http://www.w3.org/2000/svg" xmlns:xlink="http://www.w3.org/1999/xlink"
     width="4200.0" height="6234.0" viewBox="0 0 4200.0 6234.0">
<defs>
</defs>
<rect x="0" y="0" width="4200.0" height="6234.0" fill="none" stroke="black" stroke-opacity="0.5" />
<rect x="1076.0" y="2395.0" width="198.0" height="909.0" fill="none" stroke="red" />
<circle cx="1582.0" cy="6084.0" r="1" fill="blue" />
<text x="1582.0" y="6084.0" font-size="12" text-anchor="middle" dominant-baseline="middle">0</text>
<circle cx="3814.0" cy="4230.0" r="1" fill="blue" />
<text x="3814.0" y="4230.0" font-size="12" text-anchor="middle" dominant-baseline="middle">1</text>
<circle cx="3392.0" cy="772.0" r="1" fill="blue" />
<text x="3392.0" y="772.0" font-size="12" text-anchor="middle" dominant-baseline="middle">2</text>
<circle cx="2032.0" cy="5747.0" r="1" fill="blue" />
<text x="2032.0" y="5747.0" font-size="12" text-anchor="middle" dominant-baseline="middle">3</text>
<circle cx="2483.0" cy="1684.0" r="1" fill="blue" />
<text x="2483.0" y="1684.0" font-size="12" text-anchor="middle" dominant-baseline="middle">4</text>
<circle cx="282.0" cy="2352.0" r="1" fill="blue" />
<text x="282.0" y="2352.0" font-size="12" text-anchor="middle" dominant-baseline="middle">5</text>
<circle cx="1638.0" cy="4276.0" r="1" fill="blue" />
<text x="1638.0" y="4276.0" font-size="12" text-anchor="middle" dominant-baseline="middle">6</text>
<circle cx="1806.0" cy="2386.0" r="1" fill="blue" />
<text x="1806.0" y="2386.0" font-size="12" text-anchor="middle" dominant-baseline="middle">7</text>
<circle cx="4094.0" cy="1741.0" r="1" fill="blue" />
<text x="4094.0" y="1741.0" font-size="12" text-anchor="middle" dominant-baseline="middle">8</text>
<circle cx="2678.0" cy="5214.0" r="1" fill="blue" />
<text x="2678.0" y="5214.0" font-size="12" text-anchor="middle" dominant-baseline="middle">9</text>
<circle cx="1361.0" cy="942.0" r="1" fill="blue" />
<text x="1361.0" y="942.0" font-size="12" text-anchor="middle" dominant-baseline="middle">10</text>
<circle cx="3001.0" cy="3412.0" r="1" fill="blue" />
<text x="3001.0" y="3412.0" font-size="12" text-anchor="middle" dominant-baseline="middle">11</text>
<circle cx="2924.0" cy="1406.0" r="1" fill="blue" />
<text x="2924.0" y="1406.0" font-size="12" text-anchor="middle" dominant-baseline="middle">12</text>
<circle cx="2726.0" cy="2220.0" r="1" fill="blue" />
<text x="2726.0" y="2220.0" font-size="12" text-anchor="middle" dominant-baseline="middle">13</text>
<circle cx="2583.0" cy="3557.0" r="1" fill="blue" />
<text x="2583.0" y="3557.0" font-size="12" text-anchor="middle" dominant-baseline="middle">14</text>
<circle cx="3931.0" cy="4117.0" r="1" fill="blue" />
<text x="3931.0" y="4117.0" font-size="12" text-anchor="middle" dominant-baseline="middle">15</text>
<circle cx="2323.0" cy="4138.0" r="1" fill="blue" />
<text x="2323.0" y="4138.0" font-size="12" text-anchor="middle" dominant-baseline="middle">16</text>
<circle cx="2771.0" cy="5373.0" r="1" fill="blue" />
<text x="2771.0" y="5373.0" font-size="12" text-anchor="middle" dominant-baseline="middle">17</text>
<circle cx="2092.0" cy="5319.0" r="1" fill="blue" />
<text x="2092.0" y="5319.0" font-size="12" text-anchor="middle" dominant-baseline="middle">18</text>
<circle cx="3894.0" cy="5.0" r="1" fill="blue" />
<text x="3894.0" y="5.0" font-size="12" text-anchor="middle" dominant-baseline="middle">19</text>
<circle cx="4025.0" cy="2665.0" r="1" fill="blue" />
<text x="4025.0" y="2665.0" font-size="12" text-anchor="middle" dominant-baseline="middle">20</text>
<circle cx="410.0" cy="150.0" r="1" fill="blue" />
<text x="410.0" y="150.0" font-size="12" text-anchor="middle" dominant-baseline="middle">21</text>
<circle cx="1633.0" cy="386.0" r="1" fill="blue" />
<text x="1633.0" y="386.0" font-size="12" text-anchor="middle" dominant-baseline="middle">22</text>
<circle cx="2596.0" cy="2649.0" r="1" fill="blue" />
<text x="2596.0" y="2649.0" font-size="12" text-anchor="middle" dominant-baseline="middle">23</text>
<circle cx="1621.0" cy="1914.0" r="1" fill="blue" />
<text x="1621.0" y="1914.0" font-size="12" text-anchor="middle" dominant-baseline="middle">24</text>
<circle cx="1120.0" cy="1972.0" r="1" fill="blue" />
<text x="1120.0" y="1972.0" font-size="12" text-anchor="middle" dominant-baseline="middle">25</text>
<circle cx="2296.0" cy="4795.0" r="1" fill="blue" />
<text x="2296.0" y="4795.0" font-size="12" text-anchor="middle" dominant-baseline="middle">26</text>
<circle cx="2855.0" cy="6212.0" r="1" fill="blue" />
<text x="2855.0" y="6212.0" font-size="12" text-anchor="middle" dominant-baseline="middle">27</text>
<circle cx="2503.0" cy="5263.0" r="1" fill="blue" />
<text x="2503.0" y="5263.0" font-size="12" text-anchor="middle" dominant-baseline="middle">28</text>
<circle cx="1499.0" cy="1472.0" r="1" fill="blue" />
<text x="1499.0" y="1472.0" font-size="12" text-anchor="middle" dominant-baseline="middle">29</text>
<circle cx="3436.0" cy="3870.0" r="1" fill="blue" />
<text x="3436.0" y="3870.0" font-size="12" text-anchor="middle" dominant-baseline="middle">30</text>
<circle cx="1872.0" cy="816.0" r="1" fill="blue" />
<text x="1872.0" y="816.0" font-size="12" text-anchor="middle" dominant-baseline="middle">31</text>
<circle cx="2272.0" cy="2133.0" r="1" fill="blue" />
<text x="2272.0" y="2133.0" font-size="12" text-anchor="middle" dominant-baseline="middle">32</text>
<circle cx="333.0" cy="5540.0" r="1" fill="blue" />
<text x="333.0" y="5540.0" font-size="12" text-anchor="middle" dominant-baseline="middle">33</text>
<circle cx="1146.0" cy="1927.0" r="1" fill="blue" />
<text x="1146.0" y="1927.0" font-size="12" text-anchor="middle" dominant-baseline="middle">34</text>
<circle cx="2154.0" cy="4400.0" r="1" fill="blue" />
<text x="2154.0" y="4400.0" font-size="12" text-anchor="middle" dominant-baseline="middle">35</text>
<circle cx="2467.0" cy="1403.0" r="1" fill="blue" />
<text x="2467.0" y="1403.0" font-size="12" text-anchor="middle" dominant-baseline="middle">36</text>
<circle cx="2777.0" cy="4769.0" r="1" fill="blue" />
<text x="2777.0" y="4769.0" font-size="12" text-anchor="middle" dominant-baseline="middle">37</text>
<circle cx="1645.0" cy="4244.0" r="1" fill="blue" />
<text x="1645.0" y="4244.0" font-size="12" text-anchor="middle" dominant-baseline="middle">38</text>
<circle cx="3674.0" cy="4396.0" r="1" fill="blue" />
<text x="3674.0" y="4396.0" font-size="12" text-anchor="middle" dominant-baseline="middle">39</text>
<circle cx="1554.0" cy="1085.0" r="1" fill="blue" />
<text x="1554.0" y="1085.0" font-size="12" text-anchor="middle" dominant-baseline="middle">40</text>
<circle cx="1841.0" cy="3094.0" r="1" fill="blue" />
<text x="1841.0" y="3094.0" font-size="12" text-anchor="middle" dominant-baseline="middle">41</text>
<circle cx="1230.0" cy="4573.0" r="1" fill="blue" />
<text x="1230.0" y="4573.0" font-size="12" text-anchor="middle" dominant-baseline="middle">42</text>
<circle cx="1527.0" cy="449.0" r="1" fill="blue" />
<text x="1527.0" y="449.0" font-size="12" text-anchor="middle" dominant-baseline="middle">43</text>
<circle cx="4189.0" cy="2805.0" r="1" fill="blue" />
<text x="4189.0" y="2805.0" font-size="12" text-anchor="middle" dominant-baseline="middle">44</text>
<circle cx="3934.0" cy="1379.0" r="1" fill="blue" />
<text x="3934.0" y="1379.0" font-size="12" text-anchor="middle" dominant-baseline="middle">45</text>
<circle cx="505.0" cy="4518.0" r="1" fill="blue" />
<text x="505.0" y="4518.0" font-size="12" text-anchor="middle" dominant-baseline="middle">46</text>
<circle cx="3841.0" cy="1331.0" r="1" fill="blue" />
<text x="3841.0" y="1331.0" font-size="12" text-anchor="middle" dominant-baseline="middle">47</text>
<circle cx="409.0" cy="81.0" r="1" fill="blue" />
<text x="409.0" y="81.0" font-size="12" text-anchor="middle" dominant-baseline="middle">48</text>
<circle cx="1258.0" cy="1145.0" r="1" fill="blue" />
<text x="1258.0" y="1145.0" font-size="12" text-anchor="middle" dominant-baseline="middle">49</text>
<circle cx="1907.0" cy="4459.0" r="1" fill="blue" />
<text x="1907.0" y="4459.0" font-size="12" text-anchor="middle" dominant-baseline="middle">50</text>
<circle cx="2192.0" cy="5495.0" r="1" fill="blue" />
<text x="2192.0" y="5495.0" font-size="12" text-anchor="middle" dominant-baseline="middle">51</text>
<circle cx="404.0" cy="2809.0" r="1" fill="blue" />
<text x="404.0" y="2809.0" font-size="12" text-anchor="middle" dominant-baseline="middle">52</text>
<circle cx="2417.0" cy="1967.0" r="1" fill="blue" />
<text x="2417.0" y="1967.0" font-size="12" text-anchor="middle" dominant-baseline="middle">53</text>
<circle cx="421.0" cy="2644.0" r="1" fill="blue" />
<text x="421.0" y="2644.0" font-size="12" text-anchor="middle" dominant-baseline="middle">54</text>
<circle cx="4196.0" cy="982.0" r="1" fill="blue" />
<text x="4196.0" y="982.0" font-size="12" text-anchor="middle" dominant-baseline="middle">55</text>
<circle cx="2642.0" cy="1696.0" r="1" fill="blue" />
<text x="2642.0" y="1696.0" font-size="12" text-anchor="middle" dominant-baseline="middle">56</text>
<circle cx="4097.0" cy="2107.0" r="1" fill="blue" />
<text x="4097.0" y="2107.0" font-size="12" text-anchor="middle" dominant-baseline="middle">57</text>
<circle cx="3008.0" cy="4219.0" r="1" fill="blue" />
<text x="3008.0" y="4219.0" font-size="12" text-anchor="middle" dominant-baseline="middle">58</text>
<circle cx="1258.0" cy="1688.0" r="1" fill="blue" />
<text x="1258.0" y="1688.0" font-size="12" text-anchor="middle" dominant-baseline="middle">59</text>
<circle cx="42.0" cy="6130.0" r="1" fill="blue" />
<text x="42.0" y="6130.0" font-size="12" text-anchor="middle" dominant-baseline="middle">60</text>
<circle cx="1342.0" cy="2084.0" r="1" fill="blue" />
<text x="1342.0" y="2084.0" font-size="12" text-anchor="middle" dominant-baseline="middle">61</text>
<circle cx="1661.0" cy="4052.0" r="1" fill="blue" />
<text x="1661.0" y="4052.0" font-size="12" text-anchor="middle" dominant-baseline="middle">62</text>
<circle cx="647.0" cy="3877.0" r="1" fill="blue" />
<text x="647.0" y="3877.0" font-size="12" text-anchor="middle" dominant-baseline="middle">63</text>
<circle cx="764.0" cy="3936.0" r="1" fill="blue" />
<text x="764.0" y="3936.0" font-size="12" text-anchor="middle" dominant-baseline="middle">64</text>
<circle cx="2380.0" cy="3451.0" r="1" fill="blue" />
<text x="2380.0" y="3451.0" font-size="12" text-anchor="middle" dominant-baseline="middle">65</text>
<circle cx="740.0" cy="3784.0" r="1" fill="blue" />
<text x="740.0" y="3784.0" font-size="12" text-anchor="middle" dominant-baseline="middle">66</text>
<circle cx="3796.0" cy="1829.0" r="1" fill="blue" />
<text x="3796.0" y="1829.0" font-size="12" text-anchor="middle" dominant-baseline="middle">67</text>
<circle cx="1953.0" cy="1419.0" r="1" fill="blue" />
<text x="1953.0" y="1419.0" font-size="12" text-anchor="middle" dominant-baseline="middle">68</text>
<circle cx="3108.0" cy="2475.0" r="1" fill="blue" />
<text x="3108.0" y="2475.0" font-size="12" text-anchor="middle" dominant-baseline="middle">69</text>
<circle cx="3932.0" cy="2504.0" r="1" fill="blue" />
<text x="3932.0" y="2504.0" font-size="12" text-anchor="middle" dominant-baseline="middle">70</text>
<circle cx="3895.0" cy="2404.0" r="1" fill="blue" />
<text x="3895.0" y="2404.0" font-size="12" text-anchor="middle" dominant-baseline="middle">71</text>
<circle cx="872.0" cy="4303.0" r="1" fill="blue" />
<text x="872.0" y="4303.0" font-size="12" text-anchor="middle" dominant-baseline="middle">72</text>
<circle cx="3164.0" cy="5957.0" r="1" fill="blue" />
<text x="3164.0" y="5957.0" font-size="12" text-anchor="middle" dominant-baseline="middle">73</text>
<circle cx="917.0" cy="1787.0" r="1" fill="blue" />
<text x="917.0" y="1787.0" font-size="12" text-anchor="middle" dominant-baseline="middle">74</text>
<circle cx="4056.0" cy="5044.0" r="1" fill="blue" />
<text x="4056.0" y="5044.0" font-size="12" text-anchor="middle" dominant-baseline="middle">75</text>
<circle cx="3675.0" cy="2346.0" r="1" fill="blue" />
<text x="3675.0" y="2346.0" font-size="12" text-anchor="middle" dominant-baseline="middle">76</text>
<circle cx="2317.0" cy="2730.0" r="1" fill="blue" />
<text x="2317.0" y="2730.0" font-size="12" text-anchor="middle" dominant-baseline="middle">77</text>
<circle cx="525.0" cy="484.0" r="1" fill="blue" />
<text x="525.0" y="484.0" font-size="12" text-anchor="middle" dominant-baseline="middle">78</text>
<circle cx="2904.0" cy="1071.0" r="1" fill="blue" />
<text x="2904.0" y="1071.0" font-size="12" text-anchor="middle" dominant-baseline="middle">79</text>
<circle cx="2802.0" cy="25.0" r="1" fill="blue" />
<text x="2802.0" y="25.0" font-size="12" text-anchor="middle" dominant-baseline="middle">80</text>
<circle cx="4096.0" cy="636.0" r="1" fill="blue" />
<text x="4096.0" y="636.0" font-size="12" text-anchor="middle" dominant-baseline="middle">81</text>
<circle cx="655.0" cy="5576.0" r="1" fill="blue" />
<text x="655.0" y="5576.0" font-size="12" text-anchor="middle" dominant-baseline="middle">82</text>
<circle cx="1854.0" cy="5042.0" r="1" fill="blue" />
<text x="1854.0" y="5042.0" font-size="12" text-anchor="middle" dominant-baseline="middle">83</text>
<circle cx="868.0" cy="2564.0" r="1" fill="blue" />
<text x="868.0" y="2564.0" font-size="12" text-anchor="middle" dominant-baseline="middle">84</text>
<circle cx="2541.0" cy="4117.0" r="1" fill="blue" />
<text x="2541.0" y="4117.0" font-size="12" text-anchor="middle" dominant-baseline="middle">85</text>
<circle cx="1320.0" cy="3234.0" r="1" fill="blue" />
<text x="1320.0" y="3234.0" font-size="12" text-anchor="middle" dominant-baseline="middle">86</text>
<circle cx="2172.0" cy="3795.0" r="1" fill="blue" />
<text x="2172.0" y="3795.0" font-size="12" text-anchor="middle" dominant-baseline="middle">87</text>
<circle cx="814.0" cy="3405.0" r="1" fill="blue" />
<text x="814.0" y="3405.0" font-size="12" text-anchor="middle" dominant-baseline="middle">88</text>
<circle cx="3289.0" cy="5667.0" r="1" fill="blue" />
<text x="3289.0" y="5667.0" font-size="12" text-anchor="middle" dominant-baseline="middle">89</text>
<circle cx="3648.0" cy="3504.0" r="1" fill="blue" />
<text x="3648.0" y="3504.0" font-size="12" text-anchor="middle" dominant-baseline="middle">90</text>
<circle cx="155.0" cy="5107.0" r="1" fill="blue" />
<text x="155.0" y="5107.0" font-size="12" text-anchor="middle" dominant-baseline="middle">91</text>
<circle cx="930.0" cy="6049.0" r="1" fill="blue" />
<text x="930.0" y="6049.0" font-size="12" text-anchor="middle" dominant-baseline="middle">92</text>
<circle cx="3616.0" cy="4616.0" r="1" fill="blue" />
<text x="3616.0" y="4616.0" font-size="12" text-anchor="middle" dominant-baseline="middle">93</text>
<circle cx="1338.0" cy="2961.0" r="1" fill="blue" />
<text x="1338.0" y="2961.0" font-size="12" text-anchor="middle" dominant-baseline="middle">94</text>
<circle cx="2066.0" cy="806.0" r="1" fill="blue" />
<text x="2066.0" y="806.0" font-size="12" text-anchor="middle" dominant-baseline="middle">95</text>
<circle cx="2996.0" cy="1241.0" r="1" fill="blue" />
<text x="2996.0" y="1241.0" font-size="12" text-anchor="middle" dominant-baseline="middle">96</text>
<circle cx="3248.0" cy="1977.0" r="1" fill="blue" />
<text x="3248.0" y="1977.0" font-size="12" text-anchor="middle" dominant-baseline="middle">97</text>
<circle cx="4139.0" cy="1155.0" r="1" fill="blue" />
<text x="4139.0" y="1155.0" font-size="12" text-anchor="middle" dominant-baseline="middle">98</text>
<circle cx="1118.0" cy="5761.0" r="1" fill="blue" />
<text x="1118.0" y="5761.0" font-size="12" text-anchor="middle" dominant-baseline="middle">99</text>
<circle cx="1236.0" cy="2123.0" r="1" fill="blue" />
<text x="1236.0" y="2123.0" font-size="12" text-anchor="middle" dominant-baseline="middle">100</text>
<circle cx="1371.0" cy="2729.0" r="1" fill="blue" />
<text x="1371.0" y="2729.0" font-size="12" text-anchor="middle" dominant-baseline="middle">101</text>
<circle cx="2716.0" cy="6189.0" r="1" fill="blue" />
<text x="2716.0" y="6189.0" font-size="12" text-anchor="middle" dominant-baseline="middle">102</text>
<circle cx="3642.0" cy="5234.0" r="1" fill="blue" />
<text x="3642.0" y="5234.0" font-size="12" text-anchor="middle" dominant-baseline="middle">103</text>
<circle cx="2665.0" cy="4476.0" r="1" fill="blue" />
<text x="2665.0" y="4476.0" font-size="12" text-anchor="middle" dominant-baseline="middle">104</text>
<circle cx="408.0" cy="5531.0" r="1" fill="blue" />
<text x="408.0" y="5531.0" font-size="12" text-anchor="middle" dominant-baseline="middle">105</text>
<circle cx="704.0" cy="5776.0" r="1" fill="blue" />
<text x="704.0" y="5776.0" font-size="12" text-anchor="middle" dominant-baseline="middle">106</text>
<circle cx="3468.0" cy="530.0" r="1" fill="blue" />
<text x="3468.0" y="530.0" font-size="12" text-anchor="middle" dominant-baseline="middle">107</text>
<circle cx="1316.0" cy="681.0" r="1" fill="blue" />
<text x="1316.0" y="681.0" font-size="12" text-anchor="middle" dominant-baseline="middle">108</text>
<circle cx="1605.0" cy="478.0" r="1" fill="blue" />
<text x="1605.0" y="478.0" font-size="12" text-anchor="middle" dominant-baseline="middle">109</text>
<circle cx="3361.0" cy="4604.0" r="1" fill="blue" />
<text x="3361.0" y="4604.0" font-size="12" text-anchor="middle" dominant-baseline="middle">110</text>
<circle cx="4075.0" cy="4411.0" r="1" fill="blue" />
<text x="4075.0" y="4411.0" font-size="12" text-anchor="middle" dominant-baseline="middle">111</text>
<circle cx="368.0" cy="6012.0" r="1" fill="blue" />
<text x="368.0" y="6012.0" font-size="12" text-anchor="middle" dominant-baseline="middle">112</text>
<circle cx="3236.0" cy="2387.0" r="1" fill="blue" />
<text x="3236.0" y="2387.0" font-size="12" text-anchor="middle" dominant-baseline="middle">113</text>
<circle cx="2420.0" cy="4286.0" r="1" fill="blue" />
<text x="2420.0" y="4286.0" font-size="12" text-anchor="middle" dominant-baseline="middle">114</text>
<circle cx="302.0" cy="548.0" r="1" fill="blue" />
<text x="302.0" y="548.0" font-size="12" text-anchor="middle" dominant-baseline="middle">115</text>
<circle cx="959.0" cy="2058.0" r="1" fill="blue" />
<text x="959.0" y="2058.0" font-size="12" text-anchor="middle" dominant-baseline="middle">116</text>
<circle cx="1771.0" cy="2474.0" r="1" fill="blue" />
<text x="1771.0" y="2474.0" font-size="12" text-anchor="middle" dominant-baseline="middle">117</text>
<circle cx="2414.0" cy="112.0" r="1" fill="blue" />
<text x="2414.0" y="112.0" font-size="12" text-anchor="middle" dominant-baseline="middle">118</text>
<circle cx="1796.0" cy="294.0" r="1" fill="blue" />
<text x="1796.0" y="294.0" font-size="12" text-anchor="middle" dominant-baseline="middle">119</text>
<circle cx="68.0" cy="2753.0" r="1" fill="blue" />
<text x="68.0" y="2753.0" font-size="12" text-anchor="middle" dominant-baseline="middle">120</text>
<circle cx="2721.0" cy="1950.0" r="1" fill="blue" />
<text x="2721.0" y="1950.0" font-size="12" text-anchor="middle" dominant-baseline="middle">121</text>
<circle cx="1204.0" cy="1608.0" r="1" fill="blue" />
<text x="1204.0" y="1608.0" font-size="12" text-anchor="middle" dominant-baseline="middle">122</text>
<circle cx="2500.0" cy="623.0" r="1" fill="blue" />
<text x="2500.0" y="623.0" font-size="12" text-anchor="middle" dominant-baseline="middle">123</text>
<circle cx="659.0" cy="177.0" r="1" fill="blue" />
<text x="659.0" y="177.0" font-size="12" text-anchor="middle" dominant-baseline="middle">124</text>
<circle cx="318.0" cy="1370.0" r="1" fill="blue" />
<text x="318.0" y="1370.0" font-size="12" text-anchor="middle" dominant-baseline="middle">125</text>
<circle cx="734.0" cy="2700.0" r="1" fill="blue" />
<text x="734.0" y="2700.0" font-size="12" text-anchor="middle" dominant-baseline="middle">126</text>
<circle cx="3944.0" cy="5635.0" r="1" fill="blue" />
<text x="3944.0" y="5635.0" font-size="12" text-anchor="middle" dominant-baseline="middle">127</text>
<circle cx="1107.0" cy="4727.0" r="1" fill="blue" />
<text x="1107.0" y="4727.0" font-size="12" text-anchor="middle" dominant-baseline="middle">128</text>
<circle cx="3013.0" cy="3068.0" r="1" fill="blue" />
<text x="3013.0" y="3068.0" font-size="12" text-anchor="middle" dominant-baseline="middle">129</text>
<circle cx="1337.0" cy="2488.0" r="1" fill="blue" />
<text x="1337.0" y="2488.0" font-size="12" text-anchor="middle" dominant-baseline="middle">130</text>
<circle cx="3717.0" cy="3093.0" r="1" fill="blue" />
<text x="3717.0" y="3093.0" font-size="12" text-anchor="middle" dominant-baseline="middle">131</text>
<circle cx="533.0" cy="1683.0" r="1" fill="blue" />
<text x="533.0" y="1683.0" font-size="12" text-anchor="middle" dominant-baseline="middle">132</text>
<circle cx="1139.0" cy="233.0" r="1" fill="blue" />
<text x="1139.0" y="233.0" font-size="12" text-anchor="middle" dominant-baseline="middle">133</text>
<circle cx="3979.0" cy="2636.0" r="1" fill="blue" />
<text x="3979.0" y="2636.0" font-size="12" text-anchor="middle" dominant-baseline="middle">134</text>
<circle cx="2653.0" cy="3452.0" r="1" fill="blue" />
<text x="2653.0" y="3452.0" font-size="12" text-anchor="middle" dominant-baseline="middle">135</text>
<circle cx="2532.0" cy="2317.0" r="1" fill="blue" />
<text x="2532.0" y="2317.0" font-size="12" text-anchor="middle" dominant-baseline="middle">136</text>
<circle cx="118.0" cy="1945.0" r="1" fill="blue" />
<text x="118.0" y="1945.0" font-size="12" text-anchor="middle" dominant-baseline="middle">137</text>
<circle cx="2586.0" cy="5515.0" r="1" fill="blue" />
<text x="2586.0" y="5515.0" font-size="12" text-anchor="middle" dominant-baseline="middle">138</text>
<circle cx="1361.0" cy="3818.0" r="1" fill="blue" />
<text x="1361.0" y="3818.0" font-size="12" text-anchor="middle" dominant-baseline="middle">139</text>
<circle cx="662.0" cy="684.0" r="1" fill="blue" />
<text x="662.0" y="684.0" font-size="12" text-anchor="middle" dominant-baseline="middle">140</text>
<circle cx="758.0" cy="3063.0" r="1" fill="blue" />
<text x="758.0" y="3063.0" font-size="12" text-anchor="middle" dominant-baseline="middle">141</text>
<circle cx="1994.0" cy="3913.0" r="1" fill="blue" />
<text x="1994.0" y="3913.0" font-size="12" text-anchor="middle" dominant-baseline="middle">142</text>
<circle cx="821.0" cy="5879.0" r="1" fill="blue" />
<text x="821.0" y="5879.0" font-size="12" text-anchor="middle" dominant-baseline="middle">143</text>
<circle cx="247.0" cy="4727.0" r="1" fill="blue" />
<text x="247.0" y="4727.0" font-size="12" text-anchor="middle" dominant-baseline="middle">144</text>
<circle cx="589.0" cy="4146.0" r="1" fill="blue" />
<text x="589.0" y="4146.0" font-size="12" text-anchor="middle" dominant-baseline="middle">145</text>
<circle cx="2925.0" cy="5664.0" r="1" fill="blue" />
<text x="2925.0" y="5664.0" font-size="12" text-anchor="middle" dominant-baseline="middle">146</text>
<circle cx="1321.0" cy="4311.0" r="1" fill="blue" />
<text x="1321.0" y="4311.0" font-size="12" text-anchor="middle" dominant-baseline="middle">147</text>
<circle cx="4138.0" cy="1744.0" r="1" fill="blue" />
<text x="4138.0" y="1744.0" font-size="12" text-anchor="middle" dominant-baseline="middle">148</text>
<circle cx="1343.0" cy="574.0" r="1" fill="blue" />
<text x="1343.0" y="574.0" font-size="12" text-anchor="middle" dominant-baseline="middle">149</text>
<circle cx="948.0" cy="3939.0" r="1" fill="blue" />
<text x="948.0" y="3939.0" font-size="12" text-anchor="middle" dominant-baseline="middle">150</text>
<circle cx="522.0" cy="3201.0" r="1" fill="blue" />
<text x="522.0" y="3201.0" font-size="12" text-anchor="middle" dominant-baseline="middle">151</text>
<circle cx="555.0" cy="2991.0" r="1" fill="blue" />
<text x="555.0" y="2991.0" font-size="12" text-anchor="middle" dominant-baseline="middle">152</text>
<circle cx="2191.0" cy="3846.0" r="1" fill="blue" />
<text x="2191.0" y="3846.0" font-size="12" text-anchor="middle" dominant-baseline="middle">153</text>
<circle cx="577.0" cy="2474.0" r="1" fill="blue" />
<text x="577.0" y="2474.0" font-size="12" text-anchor="middle" dominant-baseline="middle">154</text>
<circle cx="3949.0" cy="6113.0" r="1" fill="blue" />
<text x="3949.0" y="6113.0" font-size="12" text-anchor="middle" dominant-baseline="middle">155</text>
<circle cx="3407.0" cy="5567.0" r="1" fill="blue" />
<text x="3407.0" y="5567.0" font-size="12" text-anchor="middle" dominant-baseline="middle">156</text>
<circle cx="3732.0" cy="163.0" r="1" fill="blue" />
<text x="3732.0" y="163.0" font-size="12" text-anchor="middle" dominant-baseline="middle">157</text>
<circle cx="2927.0" cy="3027.0" r="1" fill="blue" />
<text x="2927.0" y="3027.0" font-size="12" text-anchor="middle" dominant-baseline="middle">158</text>
<circle cx="778.0" cy="5021.0" r="1" fill="blue" />
<text x="778.0" y="5021.0" font-size="12" text-anchor="middle" dominant-baseline="middle">159</text>
<circle cx="2869.0" cy="5844.0" r="1" fill="blue" />
<text x="2869.0" y="5844.0" font-size="12" text-anchor="middle" dominant-baseline="middle">160</text>
<circle cx="3421.0" cy="5656.0" r="1" fill="blue" />
<text x="3421.0" y="5656.0" font-size="12" text-anchor="middle" dominant-baseline="middle">161</text>
<circle cx="1217.0" cy="1324.0" r="1" fill="blue" />
<text x="1217.0" y="1324.0" font-size="12" text-anchor="middle" dominant-baseline="middle">162</text>
<circle cx="3829.0" cy="1907.0" r="1" fill="blue" />
<text x="3829.0" y="1907.0" font-size="12" text-anchor="middle" dominant-baseline="middle">163</text>
<circle cx="2574.0" cy="3876.0" r="1" fill="blue" />
<text x="2574.0" y="3876.0" font-size="12" text-anchor="middle" dominant-baseline="middle">164</text>
<circle cx="3262.0" cy="5121.0" r="1" fill="blue" />
<text x="3262.0" y="5121.0" font-size="12" text-anchor="middle" dominant-baseline="middle">165</text>
<circle cx="1585.0" cy="3487.0" r="1" fill="blue" />
<text x="1585.0" y="3487.0" font-size="12" text-anchor="middle" dominant-baseline="middle">166</text>
<circle cx="2037.0" cy="2207.0" r="1" fill="blue" />
<text x="2037.0" y="2207.0" font-size="12" text-anchor="middle" dominant-baseline="middle">167</text>
<circle cx="1549.0" cy="4362.0" r="1" fill="blue" />
<text x="1549.0" y="4362.0" font-size="12" text-anchor="middle" dominant-baseline="middle">168</text>
<circle cx="3565.0" cy="107.0" r="1" fill="blue" />
<text x="3565.0" y="107.0" font-size="12" text-anchor="middle" dominant-baseline="middle">169</text>
<circle cx="3943.0" cy="3010.0" r="1" fill="blue" />
<text x="3943.0" y="3010.0" font-size="12" text-anchor="middle" dominant-baseline="middle">170</text>
<circle cx="3064.0" cy="2895.0" r="1" fill="blue" />
<text x="3064.0" y="2895.0" font-size="12" text-anchor="middle" dominant-baseline="middle">171</text>
<circle cx="450.0" cy="2680.0" r="1" fill="blue" />
<text x="450.0" y="2680.0" font-size="12" text-anchor="middle" dominant-baseline="middle">172</text>
<circle cx="2006.0" cy="1913.0" r="1" fill="blue" />
<text x="2006.0" y="1913.0" font-size="12" text-anchor="middle" dominant-baseline="middle">173</text>
<circle cx="3398.0" cy="4860.0" r="1" fill="blue" />
<text x="3398.0" y="4860.0" font-size="12" text-anchor="middle" dominant-baseline="middle">174</text>
<circle cx="1413.0" cy="2263.0" r="1" fill="blue" />
<text x="1413.0" y="2263.0" font-size="12" text-anchor="middle" dominant-baseline="middle">175</text>
<circle cx="1440.0" cy="494.0" r="1" fill="blue" />
<text x="1440.0" y="494.0" font-size="12" text-anchor="middle" dominant-baseline="middle">176</text>
<circle cx="2315.0" cy="1110.0" r="1" fill="blue" />
<text x="2315.0" y="1110.0" font-size="12" text-anchor="middle" dominant-baseline="middle">177</text>
<circle cx="3416.0" cy="3639.0" r="1" fill="blue" />
<text x="3416.0" y="3639.0" font-size="12" text-anchor="middle" dominant-baseline="middle">178</text>
<circle cx="2998.0" cy="4546.0" r="1" fill="blue" />
<text x="2998.0" y="4546.0" font-size="12" text-anchor="middle" dominant-baseline="middle">179</text>
<circle cx="2795.0" cy="6122.0" r="1" fill="blue" />
<text x="2795.0" y="6122.0" font-size="12" text-anchor="middle" dominant-baseline="middle">180</text>
<circle cx="1987.0" cy="970.0" r="1" fill="blue" />
<text x="1987.0" y="970.0" font-size="12" text-anchor="middle" dominant-baseline="middle">181</text>
<circle cx="2597.0" cy="493.0" r="1" fill="blue" />
<text x="2597.0" y="493.0" font-size="12" text-anchor="middle" dominant-baseline="middle">182</text>
<circle cx="2418.0" cy="3481.0" r="1" fill="blue" />
<text x="2418.0" y="3481.0" font-size="12" text-anchor="middle" dominant-baseline="middle">183</text>
<circle cx="1206.0" cy="1461.0" r="1" fill="blue" />
<text x="1206.0" y="1461.0" font-size="12" text-anchor="middle" dominant-baseline="middle">184</text>
<circle cx="3043.0" cy="2934.0" r="1" fill="blue" />
<text x="3043.0" y="2934.0" font-size="12" text-anchor="middle" dominant-baseline="middle">185</text>
<circle cx="1406.0" cy="334.0" r="1" fill="blue" />
<text x="1406.0" y="334.0" font-size="12" text-anchor="middle" dominant-baseline="middle">186</text>
<circle cx="49.0" cy="577.0" r="1" fill="blue" />
<text x="49.0" y="577.0" font-size="12" text-anchor="middle" dominant-baseline="middle">187</text>
<circle cx="614.0" cy="6113.0" r="1" fill="blue" />
<text x="614.0" y="6113.0" font-size="12" text-anchor="middle" dominant-baseline="middle">188</text>
<circle cx="3464.0" cy="6199.0" r="1" fill="blue" />
<text x="3464.0" y="6199.0" font-size="12" text-anchor="middle" dominant-baseline="middle">189</text>
<circle cx="1137.0" cy="542.0" r="1" fill="blue" />
<text x="1137.0" y="542.0" font-size="12" text-anchor="middle" dominant-baseline="middle">190</text>
<circle cx="32.0" cy="5956.0" r="1" fill="blue" />
<text x="32.0" y="5956.0" font-size="12" text-anchor="middle" dominant-baseline="middle">191</text>
<circle cx="954.0" cy="5329.0" r="1" fill="blue" />
<text x="954.0" y="5329.0" font-size="12" text-anchor="middle" dominant-baseline="middle">192</text>
<circle cx="4034.0" cy="2610.0" r="1" fill="blue" />
<text x="4034.0" y="2610.0" font-size="12" text-anchor="middle" dominant-baseline="middle">193</text>
<circle cx="2941.0" cy="3701.0" r="1" fill="blue" />
<text x="2941.0" y="3701.0" font-size="12" text-anchor="middle" dominant-baseline="middle">194</text>
<circle cx="1884.0" cy="4139.0" r="1" fill="blue" />
<text x="1884.0" y="4139.0" font-size="12" text-anchor="middle" dominant-baseline="middle">195</text>
<circle cx="4160.0" cy="4885.0" r="1" fill="blue" />
<text x="4160.0" y="4885.0" font-size="12" text-anchor="middle" dominant-baseline="middle">196</text>
<circle cx="1992.0" cy="2211.0" r="1" fill="blue" />
<text x="1992.0" y="2211.0" font-size="12" text-anchor="middle" dominant-baseline="middle">197</text>
<circle cx="1783.0" cy="441.0" r="1" fill="blue" />
<text x="1783.0" y="441.0" font-size="12" text-anchor="middle" dominant-baseline="middle">198</text>
<circle cx="3404.0" cy="1959.0" r="1" fill="blue" />
<text x="3404.0" y="1959.0" font-size="12" text-anchor="middle" dominant-baseline="middle">199</text>
<circle cx="1244.0" cy="103.0" r="1" fill="blue" />
<text x="1244.0" y="103.0" font-size="12" text-anchor="middle" dominant-baseline="middle">200</text>
<circle cx="307.0" cy="1834.0" r="1" fill="blue" />
<text x="307.0" y="1834.0" font-size="12" text-anchor="middle" dominant-baseline="middle">201</text>
<circle cx="3067.0" cy="6032.0" r="1" fill="blue" />
<text x="3067.0" y="6032.0" font-size="12" text-anchor="middle" dominant-baseline="middle">202</text>
<circle cx="878.0" cy="5083.0" r="1" fill="blue" />
<text x="878.0" y="5083.0" font-size="12" text-anchor="middle" dominant-baseline="middle">203</text>
<circle cx="4171.0" cy="1689.0" r="1" fill="blue" />
<text x="4171.0" y="1689.0" font-size="12" text-anchor="middle" dominant-baseline="middle">204</text>
<circle cx="587.0" cy="1007.0" r="1" fill="blue" />
<text x="587.0" y="1007.0" font-size="12" text-anchor="middle" dominant-baseline="middle">205</text>
<circle cx="2362.0" cy="2843.0" r="1" fill="blue" />
<text x="2362.0" y="2843.0" font-size="12" text-anchor="middle" dominant-baseline="middle">206</text>
<circle cx="1655.0" cy="3193.0" r="1" fill="blue" />
<text x="1655.0" y="3193.0" font-size="12" text-anchor="middle" dominant-baseline="middle">207</text>
<circle cx="1001.0" cy="4254.0" r="1" fill="blue" />
<text x="1001.0" y="4254.0" font-size="12" text-anchor="middle" dominant-baseline="middle">208</text>
<circle cx="22.0" cy="5313.0" r="1" fill="blue" />
<text x="22.0" y="5313.0" font-size="12" text-anchor="middle" dominant-baseline="middle">209</text>
<circle cx="4101.0" cy="1830.0" r="1" fill="blue" />
<text x="4101.0" y="1830.0" font-size="12" text-anchor="middle" dominant-baseline="middle">210</text>
<circle cx="3023.0" cy="4339.0" r="1" fill="blue" />
<text x="3023.0" y="4339.0" font-size="12" text-anchor="middle" dominant-baseline="middle">211</text>
<circle cx="3186.0" cy="5781.0" r="1" fill="blue" />
<text x="3186.0" y="5781.0" font-size="12" text-anchor="middle" dominant-baseline="middle">212</text>
<circle cx="3324.0" cy="4397.0" r="1" fill="blue" />
<text x="3324.0" y="4397.0" font-size="12" text-anchor="middle" dominant-baseline="middle">213</text>
<circle cx="571.0" cy="2784.0" r="1" fill="blue" />
<text x="571.0" y="2784.0" font-size="12" text-anchor="middle" dominant-baseline="middle">214</text>
<circle cx="2207.0" cy="347.0" r="1" fill="blue" />
<text x="2207.0" y="347.0" font-size="12" text-anchor="middle" dominant-baseline="middle">215</text>
<circle cx="1215.0" cy="4318.0" r="1" fill="blue" />
<text x="1215.0" y="4318.0" font-size="12" text-anchor="middle" dominant-baseline="middle">216</text>
<circle cx="2481.0" cy="5339.0" r="1" fill="blue" />
<text x="2481.0" y="5339.0" font-size="12" text-anchor="middle" dominant-baseline="middle">217</text>
<circle cx="4114.0" cy="4506.0" r="1" fill="blue" />
<text x="4114.0" y="4506.0" font-size="12" text-anchor="middle" dominant-baseline="middle">218</text>
<circle cx="3592.0" cy="3556.0" r="1" fill="blue" />
<text x="3592.0" y="3556.0" font-size="12" text-anchor="middle" dominant-baseline="middle">219</text>
<circle cx="659.0" cy="161.0" r="1" fill="blue" />
<text x="659.0" y="161.0" font-size="12" text-anchor="middle" dominant-baseline="middle">220</text>
<circle cx="3938.0" cy="138.0" r="1" fill="blue" />
<text x="3938.0" y="138.0" font-size="12" text-anchor="middle" dominant-baseline="middle">221</text>
<circle cx="791.0" cy="2591.0" r="1" fill="blue" />
<text x="791.0" y="2591.0" font-size="12" text-anchor="middle" dominant-baseline="middle">222</text>
<circle cx="3065.0" cy="687.0" r="1" fill="blue" />
<text x="3065.0" y="687.0" font-size="12" text-anchor="middle" dominant-baseline="middle">223</text>
<circle cx="2848.0" cy="1940.0" r="1" fill="blue" />
<text x="2848.0" y="1940.0" font-size="12" text-anchor="middle" dominant-baseline="middle">224</text>
<circle cx="3174.0" cy="1696.0" r="1" fill="blue" />
<text x="3174.0" y="1696.0" font-size="12" text-anchor="middle" dominant-baseline="middle">225</text>
<circle cx="2352.0" cy="3135.0" r="1" fill="blue" />
<text x="2352.0" y="3135.0" font-size="12" text-anchor="middle" dominant-baseline="middle">226</text>
<circle cx="772.0" cy="5124.0" r="1" fill="blue" />
<text x="772.0" y="5124.0" font-size="12" text-anchor="middle" dominant-baseline="middle">227</text>
<circle cx="3538.0" cy="3668.0" r="1" fill="blue" />
<text x="3538.0" y="3668.0" font-size="12" text-anchor="middle" dominant-baseline="middle">228</text>
<circle cx="3331.0" cy="4928.0" r="1" fill="blue" />
<text x="3331.0" y="4928.0" font-size="12" text-anchor="middle" dominant-baseline="middle">229</text>
<circle cx="935.0" cy="4436.0" r="1" fill="blue" />
<text x="935.0" y="4436.0" font-size="12" text-anchor="middle" dominant-baseline="middle">230</text>
<circle cx="3919.0" cy="2866.0" r="1" fill="blue" />
<text x="3919.0" y="2866.0" font-size="12" text-anchor="middle" dominant-baseline="middle">231</text>
<circle cx="3116.0" cy="4049.0" r="1" fill="blue" />
<text x="3116.0" y="4049.0" font-size="12" text-anchor="middle" dominant-baseline="middle">232</text>
<circle cx="3347.0" cy="1428.0" r="1" fill="blue" />
<text x="3347.0" y="1428.0" font-size="12" text-anchor="middle" dominant-baseline="middle">233</text>
<circle cx="3163.0" cy="1293.0" r="1" fill="blue" />
<text x="3163.0" y="1293.0" font-size="12" text-anchor="middle" dominant-baseline="middle">234</text>
<circle cx="3736.0" cy="1817.0" r="1" fill="blue" />
<text x="3736.0" y="1817.0" font-size="12" text-anchor="middle" dominant-baseline="middle">235</text>
<circle cx="342.0" cy="1355.0" r="1" fill="blue" />
<text x="342.0" y="1355.0" font-size="12" text-anchor="middle" dominant-baseline="middle">236</text>
<circle cx="1069.0" cy="509.0" r="1" fill="blue" />
<text x="1069.0" y="509.0" font-size="12" text-anchor="middle" dominant-baseline="middle">237</text>
<circle cx="1519.0" cy="4128.0" r="1" fill="blue" />
<text x="1519.0" y="4128.0" font-size="12" text-anchor="middle" dominant-baseline="middle">238</text>
<circle cx="3567.0" cy="3362.0" r="1" fill="blue" />
<text x="3567.0" y="3362.0" font-size="12" text-anchor="middle" dominant-baseline="middle">239</text>
<circle cx="2398.0" cy="136.0" r="1" fill="blue" />
<text x="2398.0" y="136.0" font-size="12" text-anchor="middle" dominant-baseline="middle">240</text>
<circle cx="1704.0" cy="4000.0" r="1" fill="blue" />
<text x="1704.0" y="4000.0" font-size="12" text-anchor="middle" dominant-baseline="middle">241</text>
<circle cx="480.0" cy="4512.0" r="1" fill="blue" />
<text x="480.0" y="4512.0" font-size="12" text-anchor="middle" dominant-baseline="middle">242</text>
<circle cx="2140.0" cy="4886.0" r="1" fill="blue" />
<text x="2140.0" y="4886.0" font-size="12" text-anchor="middle" dominant-baseline="middle">243</text>
<circle cx="247.0" cy="5264.0" r="1" fill="blue" />
<text x="247.0" y="5264.0" font-size="12" text-anchor="middle" dominant-baseline="middle">244</text>
<circle cx="699.0" cy="60.0" r="1" fill="blue" />
<text x="699.0" y="60.0" font-size="12" text-anchor="middle" dominant-baseline="middle">245</text>
<circle cx="2533.0" cy="3495.0" r="1" fill="blue" />
<text x="2533.0" y="3495.0" font-size="12" text-anchor="middle" dominant-baseline="middle">246</text>
<circle cx="2474.0" cy="4267.0" r="1" fill="blue" />
<text x="2474.0" y="4267.0" font-size="12" text-anchor="middle" dominant-baseline="middle">247</text>
<circle cx="420.0" cy="5373.0" r="1" fill="blue" />
<text x="420.0" y="5373.0" font-size="12" text-anchor="middle" dominant-baseline="middle">248</text>
<circle cx="636.0" cy="3270.0" r="1" fill="blue" />
<text x="636.0" y="3270.0" font-size="12" text-anchor="middle" dominant-baseline="middle">249</text>
<circle cx="2035.0" cy="3804.0" r="1" fill="blue" />
<text x="2035.0" y="3804.0" font-size="12" text-anchor="middle" dominant-baseline="middle">250</text>
<circle cx="1805.0" cy="3273.0" r="1" fill="blue" />
<text x="1805.0" y="3273.0" font-size="12" text-anchor="middle" dominant-baseline="middle">251</text>
<circle cx="373.0" cy="5484.0" r="1" fill="blue" />
<text x="373.0" y="5484.0" font-size="12" text-anchor="middle" dominant-baseline="middle">252</text>
<circle cx="2152.0" cy="3248.0" r="1" fill="blue" />
<text x="2152.0" y="3248.0" font-size="12" text-anchor="middle" dominant-baseline="middle">253</text>
<circle cx="2479.0" cy="6150.0" r="1" fill="blue" />
<text x="2479.0" y="6150.0" font-size="12" text-anchor="middle" dominant-baseline="middle">254</text>
<circle cx="148.0" cy="94.0" r="1" fill="blue" />
<text x="148.0" y="94.0" font-size="12" text-anchor="middle" dominant-baseline="middle">255</text>
<circle cx="1335.0" cy="1549.0" r="1" fill="blue" />
<text x="1335.0" y="1549.0" font-size="12" text-anchor="middle" dominant-baseline="middle">256</text>
<circle cx="1846.0" cy="4279.0" r="1" fill="blue" />
<text x="1846.0" y="4279.0" font-size="12" text-anchor="middle" dominant-baseline="middle">257</text>
<circle cx="3962.0" cy="682.0" r="1" fill="blue" />
<text x="3962.0" y="682.0" font-size="12" text-anchor="middle" dominant-baseline="middle">258</text>
<circle cx="1528.0" cy="5509.0" r="1" fill="blue" />
<text x="1528.0" y="5509.0" font-size="12" text-anchor="middle" dominant-baseline="middle">259</text>
<circle cx="4068.0" cy="498.0" r="1" fill="blue" />
<text x="4068.0" y="498.0" font-size="12" text-anchor="middle" dominant-baseline="middle">260</text>
<circle cx="113.0" cy="3977.0" r="1" fill="blue" />
<text x="113.0" y="3977.0" font-size="12" text-anchor="middle" dominant-baseline="middle">261</text>
<circle cx="841.0" cy="3651.0" r="1" fill="blue" />
<text x="841.0" y="3651.0" font-size="12" text-anchor="middle" dominant-baseline="middle">262</text>
<circle cx="3049.0" cy="2083.0" r="1" fill="blue" />
<text x="3049.0" y="2083.0" font-size="12" text-anchor="middle" dominant-baseline="middle">263</text>
<circle cx="3502.0" cy="196.0" r="1" fill="blue" />
<text x="3502.0" y="196.0" font-size="12" text-anchor="middle" dominant-baseline="middle">264</text>
<circle cx="321.0" cy="6144.0" r="1" fill="blue" />
<text x="321.0" y="6144.0" font-size="12" text-anchor="middle" dominant-baseline="middle">265</text>
<circle cx="3997.0" cy="5422.0" r="1" fill="blue" />
<text x="3997.0" y="5422.0" font-size="12" text-anchor="middle" dominant-baseline="middle">266</text>
<circle cx="2916.0" cy="1166.0" r="1" fill="blue" />
<text x="2916.0" y="1166.0" font-size="12" text-anchor="middle" dominant-baseline="middle">267</text>
<circle cx="1160.0" cy="3717.0" r="1" fill="blue" />
<text x="1160.0" y="3717.0" font-size="12" text-anchor="middle" dominant-baseline="middle">268</text>
<circle cx="3932.0" cy="1665.0" r="1" fill="blue" />
<text x="3932.0" y="1665.0" font-size="12" text-anchor="middle" dominant-baseline="middle">269</text>
<circle cx="3790.0" cy="246.0" r="1" fill="blue" />
<text x="3790.0" y="246.0" font-size="12" text-anchor="middle" dominant-baseline="middle">270</text>
<circle cx="2143.0" cy="75.0" r="1" fill="blue" />
<text x="2143.0" y="75.0" font-size="12" text-anchor="middle" dominant-baseline="middle">271</text>
<circle cx="2771.0" cy="333.0" r="1" fill="blue" />
<text x="2771.0" y="333.0" font-size="12" text-anchor="middle" dominant-baseline="middle">272</text>
<circle cx="1468.0" cy="6174.0" r="1" fill="blue" />
<text x="1468.0" y="6174.0" font-size="12" text-anchor="middle" dominant-baseline="middle">273</text>
<circle cx="3205.0" cy="2936.0" r="1" fill="blue" />
<text x="3205.0" y="2936.0" font-size="12" text-anchor="middle" dominant-baseline="middle">274</text>
<circle cx="1683.0" cy="5271.0" r="1" fill="blue" />
<text x="1683.0" y="5271.0" font-size="12" text-anchor="middle" dominant-baseline="middle">275</text>
<circle cx="2427.0" cy="889.0" r="1" fill="blue" />
<text x="2427.0" y="889.0" font-size="12" text-anchor="middle" dominant-baseline="middle">276</text>
<circle cx="2234.0" cy="3.0" r="1" fill="blue" />
<text x="2234.0" y="3.0" font-size="12" text-anchor="middle" dominant-baseline="middle">277</text>
<circle cx="3847.0" cy="5122.0" r="1" fill="blue" />
<text x="3847.0" y="5122.0" font-size="12" text-anchor="middle" dominant-baseline="middle">278</text>
<circle cx="3870.0" cy="4347.0" r="1" fill="blue" />
<text x="3870.0" y="4347.0" font-size="12" text-anchor="middle" dominant-baseline="middle">279</text>
<circle cx="3013.0" cy="1410.0" r="1" fill="blue" />
<text x="3013.0" y="1410.0" font-size="12" text-anchor="middle" dominant-baseline="middle">280</text>
<circle cx="3361.0" cy="1853.0" r="1" fill="blue" />
<text x="3361.0" y="1853.0" font-size="12" text-anchor="middle" dominant-baseline="middle">281</text>
<circle cx="1143.0" cy="3352.0" r="1" fill="blue" />
<text x="1143.0" y="3352.0" font-size="12" text-anchor="middle" dominant-baseline="middle">282</text>
<circle cx="1138.0" cy="5636.0" r="1" fill="blue" />
<text x="1138.0" y="5636.0" font-size="12" text-anchor="middle" dominant-baseline="middle">283</text>
<circle cx="1645.0" cy="4078.0" r="1" fill="blue" />
<text x="1645.0" y="4078.0" font-size="12" text-anchor="middle" dominant-baseline="middle">284</text>
<circle cx="497.0" cy="2082.0" r="1" fill="blue" />
<text x="497.0" y="2082.0" font-size="12" text-anchor="middle" dominant-baseline="middle">285</text>
<circle cx="822.0" cy="5405.0" r="1" fill="blue" />
<text x="822.0" y="5405.0" font-size="12" text-anchor="middle" dominant-baseline="middle">286</text>
<circle cx="1329.0" cy="4604.0" r="1" fill="blue" />
<text x="1329.0" y="4604.0" font-size="12" text-anchor="middle" dominant-baseline="middle">287</text>
<circle cx="2704.0" cy="2886.0" r="1" fill="blue" />
<text x="2704.0" y="2886.0" font-size="12" text-anchor="middle" dominant-baseline="middle">288</text>
<circle cx="1749.0" cy="641.0" r="1" fill="blue" />
<text x="1749.0" y="641.0" font-size="12" text-anchor="middle" dominant-baseline="middle">289</text>
<circle cx="2237.0" cy="810.0" r="1" fill="blue" />
<text x="2237.0" y="810.0" font-size="12" text-anchor="middle" dominant-baseline="middle">290</text>
<circle cx="1499.0" cy="2307.0" r="1" fill="blue" />
<text x="1499.0" y="2307.0" font-size="12" text-anchor="middle" dominant-baseline="middle">291</text>
<circle cx="773.0" cy="2709.0" r="1" fill="blue" />
<text x="773.0" y="2709.0" font-size="12" text-anchor="middle" dominant-baseline="middle">292</text>
<circle cx="2310.0" cy="2413.0" r="1" fill="blue" />
<text x="2310.0" y="2413.0" font-size="12" text-anchor="middle" dominant-baseline="middle">293</text>
<circle cx="1542.0" cy="4832.0" r="1" fill="blue" />
<text x="1542.0" y="4832.0" font-size="12" text-anchor="middle" dominant-baseline="middle">294</text>
<circle cx="4124.0" cy="6042.0" r="1" fill="blue" />
<text x="4124.0" y="6042.0" font-size="12" text-anchor="middle" dominant-baseline="middle">295</text>
<circle cx="580.0" cy="4795.0" r="1" fill="blue" />
<text x="580.0" y="4795.0" font-size="12" text-anchor="middle" dominant-baseline="middle">296</text>
<circle cx="309.0" cy="1463.0" r="1" fill="blue" />
<text x="309.0" y="1463.0" font-size="12" text-anchor="middle" dominant-baseline="middle">297</text>
<circle cx="505.0" cy="1257.0" r="1" fill="blue" />
<text x="505.0" y="1257.0" font-size="12" text-anchor="middle" dominant-baseline="middle">298</text>
<circle cx="133.0" cy="3837.0" r="1" fill="blue" />
<text x="133.0" y="3837.0" font-size="12" text-anchor="middle" dominant-baseline="middle">299</text>
<circle cx="1086.0" cy="2405.0" r="10" fill="none" stroke="green" />
<circle cx="1086.0" cy="2405.0" r="5" fill="red" />
<text x="1086.0" y="2405.0" font-size="12" text-anchor="middle" dominant-baseline="middle">0-0</text>
<circle cx="1096.0" cy="2405.0" r="10" fill="none" stroke="green" />
<circle cx="1096.0" cy="2405.0" r="5" fill="red" />
<text x="1096.0" y="2405.0" font-size="12" text-anchor="middle" dominant-baseline="middle">1-1</text>
<circle cx="1106.0" cy="2405.0" r="10" fill="none" stroke="green" />
<circle cx="1106.0" cy="2405.0" r="5" fill="red" />
<text x="1106.0" y="2405.0" font-size="12" text-anchor="middle" dominant-baseline="middle">2-2</text>
</svg>